%TF.GenerationSoftware,KiCad,Pcbnew,9.0.0*%
%TF.CreationDate,2025-06-02T16:04:28+05:30*%
%TF.ProjectId,mini_hvac_0,6d696e69-5f68-4766-9163-5f302e6b6963,rev?*%
%TF.SameCoordinates,Original*%
%TF.FileFunction,Copper,L1,Top*%
%TF.FilePolarity,Positive*%
%FSLAX46Y46*%
G04 Gerber Fmt 4.6, Leading zero omitted, Abs format (unit mm)*
G04 Created by KiCad (PCBNEW 9.0.0) date 2025-06-02 16:04:29*
%MOMM*%
%LPD*%
G01*
G04 APERTURE LIST*
G04 Aperture macros list*
%AMRoundRect*
0 Rectangle with rounded corners*
0 $1 Rounding radius*
0 $2 $3 $4 $5 $6 $7 $8 $9 X,Y pos of 4 corners*
0 Add a 4 corners polygon primitive as box body*
4,1,4,$2,$3,$4,$5,$6,$7,$8,$9,$2,$3,0*
0 Add four circle primitives for the rounded corners*
1,1,$1+$1,$2,$3*
1,1,$1+$1,$4,$5*
1,1,$1+$1,$6,$7*
1,1,$1+$1,$8,$9*
0 Add four rect primitives between the rounded corners*
20,1,$1+$1,$2,$3,$4,$5,0*
20,1,$1+$1,$4,$5,$6,$7,0*
20,1,$1+$1,$6,$7,$8,$9,0*
20,1,$1+$1,$8,$9,$2,$3,0*%
G04 Aperture macros list end*
%TA.AperFunction,ComponentPad*%
%ADD10C,2.000000*%
%TD*%
%TA.AperFunction,ComponentPad*%
%ADD11R,1.600000X1.600000*%
%TD*%
%TA.AperFunction,ComponentPad*%
%ADD12O,1.600000X1.600000*%
%TD*%
%TA.AperFunction,ComponentPad*%
%ADD13RoundRect,0.250000X-0.725000X0.600000X-0.725000X-0.600000X0.725000X-0.600000X0.725000X0.600000X0*%
%TD*%
%TA.AperFunction,ComponentPad*%
%ADD14O,1.950000X1.700000*%
%TD*%
%TA.AperFunction,ComponentPad*%
%ADD15RoundRect,0.250000X0.725000X-0.600000X0.725000X0.600000X-0.725000X0.600000X-0.725000X-0.600000X0*%
%TD*%
%TA.AperFunction,ComponentPad*%
%ADD16R,1.350000X1.350000*%
%TD*%
%TA.AperFunction,ComponentPad*%
%ADD17O,1.350000X1.350000*%
%TD*%
%TA.AperFunction,ComponentPad*%
%ADD18R,1.700000X1.700000*%
%TD*%
%TA.AperFunction,ComponentPad*%
%ADD19O,1.700000X1.700000*%
%TD*%
%TA.AperFunction,ComponentPad*%
%ADD20C,1.600000*%
%TD*%
%TA.AperFunction,ComponentPad*%
%ADD21RoundRect,0.250000X0.750000X-0.600000X0.750000X0.600000X-0.750000X0.600000X-0.750000X-0.600000X0*%
%TD*%
%TA.AperFunction,ComponentPad*%
%ADD22O,2.000000X1.700000*%
%TD*%
%TA.AperFunction,ViaPad*%
%ADD23C,0.600000*%
%TD*%
%TA.AperFunction,Conductor*%
%ADD24C,0.300000*%
%TD*%
%TA.AperFunction,Conductor*%
%ADD25C,0.500000*%
%TD*%
%TA.AperFunction,Conductor*%
%ADD26C,0.200000*%
%TD*%
G04 APERTURE END LIST*
D10*
%TO.P,SW2,1,1*%
%TO.N,D3*%
X170250000Y-67500000D03*
X170250000Y-61000000D03*
%TO.P,SW2,2,2*%
%TO.N,GND*%
X174750000Y-67500000D03*
X174750000Y-61000000D03*
%TD*%
D11*
%TO.P,A1,1,D1/TX*%
%TO.N,unconnected-(A1-D1{slash}TX-Pad1)*%
X139190000Y-55090000D03*
D12*
%TO.P,A1,2,D0/RX*%
%TO.N,unconnected-(A1-D0{slash}RX-Pad2)*%
X136650000Y-55090000D03*
%TO.P,A1,3,~{RESET}*%
%TO.N,unconnected-(A1-~{RESET}-Pad3)*%
X134110000Y-55090000D03*
%TO.P,A1,4,GND*%
%TO.N,GND*%
X131570000Y-55090000D03*
%TO.P,A1,5,D2*%
%TO.N,D2*%
X129030000Y-55090000D03*
%TO.P,A1,6,D3*%
%TO.N,D3*%
X126490000Y-55090000D03*
%TO.P,A1,7,D4*%
%TO.N,D4*%
X123950000Y-55090000D03*
%TO.P,A1,8,D5*%
%TO.N,unconnected-(A1-D5-Pad8)*%
X121410000Y-55090000D03*
%TO.P,A1,9,D6*%
%TO.N,unconnected-(A1-D6-Pad9)*%
X118870000Y-55090000D03*
%TO.P,A1,10,D7*%
%TO.N,CD_EN*%
X116330000Y-55090000D03*
%TO.P,A1,11,D8*%
%TO.N,D8*%
X113790000Y-55090000D03*
%TO.P,A1,12,D9*%
%TO.N,D9*%
X111250000Y-55090000D03*
%TO.P,A1,13,D10*%
%TO.N,D10*%
X108710000Y-55090000D03*
%TO.P,A1,14,D11*%
%TO.N,D11{slash}MOSI*%
X106170000Y-55090000D03*
%TO.P,A1,15,D12*%
%TO.N,D12{slash}MISO*%
X103630000Y-55090000D03*
%TO.P,A1,16,D13*%
%TO.N,D13{slash}SCK*%
X103630000Y-70330000D03*
%TO.P,A1,17,3V3*%
%TO.N,unconnected-(A1-3V3-Pad17)*%
X106170000Y-70330000D03*
%TO.P,A1,18,AREF*%
%TO.N,unconnected-(A1-AREF-Pad18)*%
X108710000Y-70330000D03*
%TO.P,A1,19,A0*%
%TO.N,A0*%
X111250000Y-70330000D03*
%TO.P,A1,20,A1*%
%TO.N,A1*%
X113790000Y-70330000D03*
%TO.P,A1,21,A2*%
%TO.N,unconnected-(A1-A2-Pad21)*%
X116330000Y-70330000D03*
%TO.P,A1,22,A3*%
%TO.N,A3*%
X118870000Y-70330000D03*
%TO.P,A1,23,A4*%
%TO.N,A4*%
X121410000Y-70330000D03*
%TO.P,A1,24,A5*%
%TO.N,unconnected-(A1-A5-Pad24)*%
X123950000Y-70330000D03*
%TO.P,A1,25,A6*%
%TO.N,A6*%
X126490000Y-70330000D03*
%TO.P,A1,26,A7*%
%TO.N,A7*%
X129030000Y-70330000D03*
%TO.P,A1,27,+5V*%
%TO.N,+5V*%
X131570000Y-70330000D03*
%TO.P,A1,28,~{RESET}*%
%TO.N,unconnected-(A1-~{RESET}-Pad28)*%
X134110000Y-70330000D03*
%TO.P,A1,29,GND*%
%TO.N,GND*%
X136650000Y-70330000D03*
%TO.P,A1,30,VIN*%
%TO.N,VIN*%
X139190000Y-70330000D03*
%TD*%
D13*
%TO.P,J11,1,Pin_1*%
%TO.N,A1*%
X116000000Y-76090000D03*
D14*
%TO.P,J11,2,Pin_2*%
%TO.N,GND*%
X116000000Y-78590000D03*
%TO.P,J11,3,Pin_3*%
%TO.N,+5V*%
X116000000Y-81090000D03*
%TD*%
D15*
%TO.P,J5,1,Pin_1*%
%TO.N,D8*%
X150475000Y-40000000D03*
D14*
%TO.P,J5,2,Pin_2*%
%TO.N,GND*%
X150475000Y-37500000D03*
%TO.P,J5,3,Pin_3*%
%TO.N,+5V*%
X150475000Y-35000000D03*
%TD*%
D13*
%TO.P,J10,1,Pin_1*%
%TO.N,A0*%
X108200000Y-76090000D03*
D14*
%TO.P,J10,2,Pin_2*%
%TO.N,GND*%
X108200000Y-78590000D03*
%TO.P,J10,3,Pin_3*%
%TO.N,+5V*%
X108200000Y-81090000D03*
%TD*%
D10*
%TO.P,SW1,1,1*%
%TO.N,D2*%
X170250000Y-77250000D03*
X170250000Y-70750000D03*
%TO.P,SW1,2,2*%
%TO.N,GND*%
X174750000Y-77250000D03*
X174750000Y-70750000D03*
%TD*%
D16*
%TO.P,J16,1,Pin_1*%
%TO.N,VIN*%
X142000000Y-51840000D03*
D17*
%TO.P,J16,2,Pin_2*%
%TO.N,CD_PS*%
X142000000Y-49840000D03*
%TD*%
D15*
%TO.P,J6,1,Pin_1*%
%TO.N,D8*%
X157750000Y-40000000D03*
D14*
%TO.P,J6,2,Pin_2*%
%TO.N,GND*%
X157750000Y-37500000D03*
%TO.P,J6,3,Pin_3*%
%TO.N,+5V*%
X157750000Y-35000000D03*
%TD*%
D18*
%TO.P,J20,1,Pin_1*%
%TO.N,GND*%
X98500000Y-50500000D03*
D19*
%TO.P,J20,2,Pin_2*%
%TO.N,+5V*%
X98500000Y-47960000D03*
%TO.P,J20,3,Pin_3*%
%TO.N,D12{slash}MISO*%
X98500000Y-45420000D03*
%TO.P,J20,4,Pin_4*%
%TO.N,D11{slash}MOSI*%
X98500000Y-42880000D03*
%TO.P,J20,5,Pin_5*%
%TO.N,D13{slash}SCK*%
X98500000Y-40340000D03*
%TO.P,J20,6,Pin_6*%
%TO.N,D10*%
X98500000Y-37800000D03*
%TD*%
D13*
%TO.P,J14,1,Pin_1*%
%TO.N,CD_PS*%
X106200000Y-35000000D03*
D14*
%TO.P,J14,2,Pin_2*%
%TO.N,Net-(J14-Pin_2)*%
X106200000Y-37500000D03*
%TO.P,J14,3,Pin_3*%
%TO.N,CD_EN*%
X106200000Y-40000000D03*
%TO.P,J14,4,Pin_4*%
%TO.N,GND*%
X106200000Y-42500000D03*
%TD*%
D15*
%TO.P,J3,1,Pin_1*%
%TO.N,D8*%
X136300000Y-40000000D03*
D14*
%TO.P,J3,2,Pin_2*%
%TO.N,GND*%
X136300000Y-37500000D03*
%TO.P,J3,3,Pin_3*%
%TO.N,+5V*%
X136300000Y-35000000D03*
%TD*%
D20*
%TO.P,R1,1*%
%TO.N,D8*%
X116750000Y-41310000D03*
D12*
%TO.P,R1,2*%
%TO.N,+5V*%
X116750000Y-33690000D03*
%TD*%
D15*
%TO.P,J8,1,Pin_1*%
%TO.N,D8*%
X172500000Y-45000000D03*
D14*
%TO.P,J8,2,Pin_2*%
%TO.N,GND*%
X172500000Y-42500000D03*
%TO.P,J8,3,Pin_3*%
%TO.N,+5V*%
X172500000Y-40000000D03*
%TD*%
D15*
%TO.P,J4,1,Pin_1*%
%TO.N,D8*%
X143500000Y-40000000D03*
D14*
%TO.P,J4,2,Pin_2*%
%TO.N,GND*%
X143500000Y-37500000D03*
%TO.P,J4,3,Pin_3*%
%TO.N,+5V*%
X143500000Y-35000000D03*
%TD*%
D15*
%TO.P,J2,1,Pin_1*%
%TO.N,D8*%
X129250000Y-40000000D03*
D14*
%TO.P,J2,2,Pin_2*%
%TO.N,GND*%
X129250000Y-37500000D03*
%TO.P,J2,3,Pin_3*%
%TO.N,+5V*%
X129250000Y-35000000D03*
%TD*%
D18*
%TO.P,J15,1,Pin_1*%
%TO.N,+5V*%
X153500000Y-66500000D03*
D19*
%TO.P,J15,2,Pin_2*%
%TO.N,GND*%
X153500000Y-63960000D03*
%TO.P,J15,3,Pin_3*%
%TO.N,A3*%
X153500000Y-61420000D03*
%TO.P,J15,4,Pin_4*%
%TO.N,A4*%
X153500000Y-58880000D03*
%TD*%
D15*
%TO.P,J1,1,Pin_1*%
%TO.N,D8*%
X122000000Y-40000000D03*
D14*
%TO.P,J1,2,Pin_2*%
%TO.N,GND*%
X122000000Y-37500000D03*
%TO.P,J1,3,Pin_3*%
%TO.N,+5V*%
X122000000Y-35000000D03*
%TD*%
D13*
%TO.P,J12,1,Pin_1*%
%TO.N,A6*%
X124500000Y-76090000D03*
D14*
%TO.P,J12,2,Pin_2*%
%TO.N,GND*%
X124500000Y-78590000D03*
%TO.P,J12,3,Pin_3*%
%TO.N,+5V*%
X124500000Y-81090000D03*
%TD*%
D13*
%TO.P,J17,1,Pin_1*%
%TO.N,A4*%
X147500000Y-58950000D03*
D14*
%TO.P,J17,2,Pin_2*%
%TO.N,A3*%
X147500000Y-61450000D03*
%TO.P,J17,3,Pin_3*%
%TO.N,GND*%
X147500000Y-63950000D03*
%TO.P,J17,4,Pin_4*%
%TO.N,+5V*%
X147500000Y-66450000D03*
%TD*%
D15*
%TO.P,J7,1,Pin_1*%
%TO.N,D8*%
X165000000Y-40000000D03*
D14*
%TO.P,J7,2,Pin_2*%
%TO.N,GND*%
X165000000Y-37500000D03*
%TO.P,J7,3,Pin_3*%
%TO.N,+5V*%
X165000000Y-35000000D03*
%TD*%
D21*
%TO.P,J9,1,Pin_1*%
%TO.N,GND*%
X139300000Y-81090000D03*
D22*
%TO.P,J9,2,Pin_2*%
%TO.N,VIN*%
X139300000Y-78590000D03*
%TD*%
D13*
%TO.P,J13,1,Pin_1*%
%TO.N,A7*%
X132300000Y-76090000D03*
D14*
%TO.P,J13,2,Pin_2*%
%TO.N,GND*%
X132300000Y-78590000D03*
%TO.P,J13,3,Pin_3*%
%TO.N,+5V*%
X132300000Y-81090000D03*
%TD*%
D11*
%TO.P,C1,1*%
%TO.N,Net-(J14-Pin_2)*%
X111294888Y-40750000D03*
D20*
%TO.P,C1,2*%
%TO.N,GND*%
X113294888Y-40750000D03*
%TD*%
%TO.P,R2,1*%
%TO.N,D9*%
X111250000Y-52400000D03*
D12*
%TO.P,R2,2*%
%TO.N,Net-(J14-Pin_2)*%
X111250000Y-44780000D03*
%TD*%
D10*
%TO.P,SW3,1,1*%
%TO.N,D4*%
X170250000Y-57750000D03*
X170250000Y-51250000D03*
%TO.P,SW3,2,2*%
%TO.N,GND*%
X174750000Y-57750000D03*
X174750000Y-51250000D03*
%TD*%
D23*
%TO.N,VIN*%
X142000000Y-62500000D03*
X142000000Y-60000000D03*
%TO.N,CD_EN*%
X109750000Y-47000000D03*
%TO.N,CD_PS*%
X116750000Y-37000000D03*
%TD*%
D24*
%TO.N,D8*%
X157750000Y-40000000D02*
X165000000Y-40000000D01*
X150475000Y-40000000D02*
X157750000Y-40000000D01*
X143500000Y-40000000D02*
X150475000Y-40000000D01*
X136300000Y-40000000D02*
X143500000Y-40000000D01*
X129250000Y-40000000D02*
X136300000Y-40000000D01*
X122000000Y-40000000D02*
X129250000Y-40000000D01*
D25*
%TO.N,+5V*%
X165000000Y-35000000D02*
X157750000Y-35000000D01*
X150475000Y-35000000D02*
X157750000Y-35000000D01*
X150475000Y-35000000D02*
X143500000Y-35000000D01*
X136300000Y-35000000D02*
X143500000Y-35000000D01*
X136300000Y-35000000D02*
X129250000Y-35000000D01*
X122000000Y-35000000D02*
X129250000Y-35000000D01*
D24*
%TO.N,D4*%
X128000000Y-46500000D02*
X123950000Y-50550000D01*
X123950000Y-50550000D02*
X123950000Y-55090000D01*
X160000000Y-46500000D02*
X128000000Y-46500000D01*
X163000000Y-49500000D02*
X160000000Y-46500000D01*
X163000000Y-51000000D02*
X163000000Y-49500000D01*
X163250000Y-51250000D02*
X163000000Y-51000000D01*
X170250000Y-51250000D02*
X163250000Y-51250000D01*
%TO.N,D3*%
X126490000Y-51010000D02*
X126490000Y-55090000D01*
X130000000Y-47500000D02*
X126490000Y-51010000D01*
X159500000Y-47500000D02*
X130000000Y-47500000D01*
X162000000Y-50000000D02*
X159500000Y-47500000D01*
X162000000Y-59500000D02*
X162000000Y-50000000D01*
X163500000Y-61000000D02*
X162000000Y-59500000D01*
X170250000Y-61000000D02*
X163500000Y-61000000D01*
%TO.N,D2*%
X129030000Y-50530000D02*
X129030000Y-55090000D01*
X131000000Y-48500000D02*
X129000000Y-50500000D01*
X159000000Y-48500000D02*
X131000000Y-48500000D01*
X161000000Y-50500000D02*
X159000000Y-48500000D01*
X161000000Y-68500000D02*
X161000000Y-50500000D01*
X163250000Y-70750000D02*
X161000000Y-68500000D01*
X129000000Y-50500000D02*
X129030000Y-50530000D01*
X170250000Y-70750000D02*
X163250000Y-70750000D01*
%TO.N,D8*%
X167500000Y-40000000D02*
X165000000Y-40000000D01*
X172500000Y-45000000D02*
X167500000Y-40000000D01*
D25*
%TO.N,+5V*%
X172500000Y-40000000D02*
X167500000Y-35000000D01*
X167500000Y-35000000D02*
X165000000Y-35000000D01*
D24*
X147500000Y-81500000D02*
X147500000Y-66450000D01*
X134710000Y-83500000D02*
X145500000Y-83500000D01*
X145500000Y-83500000D02*
X147500000Y-81500000D01*
X132300000Y-81090000D02*
X134710000Y-83500000D01*
X108200000Y-81090000D02*
X116000000Y-81090000D01*
X124500000Y-81090000D02*
X132300000Y-81090000D01*
X116000000Y-81090000D02*
X124500000Y-81090000D01*
D25*
X131570000Y-69020000D02*
X131570000Y-70330000D01*
%TO.N,CD_PS*%
X114750000Y-35000000D02*
X106200000Y-35000000D01*
X116750000Y-37000000D02*
X114750000Y-35000000D01*
D24*
%TO.N,A6*%
X126490000Y-74100000D02*
X124500000Y-76090000D01*
X126490000Y-70330000D02*
X126490000Y-74100000D01*
D25*
%TO.N,VIN*%
X139300000Y-70440000D02*
X139190000Y-70330000D01*
X142000000Y-60000000D02*
X142000000Y-62500000D01*
X139300000Y-78590000D02*
X139300000Y-70440000D01*
%TO.N,+5V*%
X100500000Y-49960000D02*
X100500000Y-79000000D01*
X153500000Y-66500000D02*
X147550000Y-66500000D01*
X98500000Y-47960000D02*
X100500000Y-49960000D01*
X116750000Y-33690000D02*
X120690000Y-33690000D01*
X134140000Y-66450000D02*
X131570000Y-69020000D01*
X102590000Y-81090000D02*
X108200000Y-81090000D01*
X147550000Y-66500000D02*
X147500000Y-66450000D01*
X147500000Y-66450000D02*
X134140000Y-66450000D01*
X120690000Y-33690000D02*
X122000000Y-35000000D01*
X100500000Y-79000000D02*
X102590000Y-81090000D01*
D24*
%TO.N,A0*%
X109250000Y-76090000D02*
X111250000Y-74090000D01*
X108200000Y-76090000D02*
X109250000Y-76090000D01*
X111250000Y-74090000D02*
X111250000Y-70330000D01*
%TO.N,D10*%
X108710000Y-48010000D02*
X108710000Y-55090000D01*
X98500000Y-37800000D02*
X108710000Y-48010000D01*
%TO.N,A1*%
X113790000Y-73880000D02*
X113790000Y-70330000D01*
X116000000Y-76090000D02*
X113790000Y-73880000D01*
D26*
%TO.N,CD_EN*%
X109750000Y-47000000D02*
X107750000Y-45000000D01*
X107750000Y-45000000D02*
X107750000Y-41550000D01*
X107750000Y-41550000D02*
X106200000Y-40000000D01*
D24*
%TO.N,D11{slash}MOSI*%
X98500000Y-42880000D02*
X106170000Y-50550000D01*
X106170000Y-50550000D02*
X106170000Y-55090000D01*
%TO.N,A3*%
X153500000Y-61420000D02*
X147530000Y-61420000D01*
X147530000Y-61420000D02*
X147500000Y-61450000D01*
%TO.N,A4*%
X147500000Y-58950000D02*
X123890000Y-58950000D01*
X147570000Y-58880000D02*
X147500000Y-58950000D01*
X121410000Y-61430000D02*
X121410000Y-70330000D01*
X123890000Y-58950000D02*
X121410000Y-61430000D01*
X153500000Y-58880000D02*
X147570000Y-58880000D01*
%TO.N,D8*%
X116750000Y-44250000D02*
X116750000Y-41310000D01*
X116750000Y-41310000D02*
X120690000Y-41310000D01*
X120690000Y-41310000D02*
X122000000Y-40000000D01*
X113790000Y-47210000D02*
X116750000Y-44250000D01*
X113790000Y-55090000D02*
X113790000Y-47210000D01*
%TO.N,A7*%
X132300000Y-76090000D02*
X131250000Y-76090000D01*
X129030000Y-73870000D02*
X129030000Y-70330000D01*
X131250000Y-76090000D02*
X129030000Y-73870000D01*
D25*
%TO.N,D9*%
X111250000Y-52400000D02*
X111250000Y-55090000D01*
D24*
%TO.N,D12{slash}MISO*%
X98500000Y-45420000D02*
X103630000Y-50550000D01*
X103630000Y-50550000D02*
X103630000Y-55090000D01*
D25*
%TO.N,Net-(J14-Pin_2)*%
X111250000Y-44780000D02*
X111250000Y-40794888D01*
X109250000Y-37500000D02*
X111294888Y-39544888D01*
X106200000Y-37500000D02*
X109250000Y-37500000D01*
X111250000Y-40794888D02*
X111294888Y-40750000D01*
X111294888Y-39544888D02*
X111294888Y-40750000D01*
%TD*%
%TA.AperFunction,Conductor*%
%TO.N,GND*%
G36*
X176942539Y-31520185D02*
G01*
X176988294Y-31572989D01*
X176999500Y-31624500D01*
X176999500Y-80856230D01*
X176979815Y-80923269D01*
X176927011Y-80969024D01*
X176857853Y-80978968D01*
X176794297Y-80949943D01*
X176763780Y-80910032D01*
X176676975Y-80729780D01*
X176676974Y-80729778D01*
X176520303Y-80480438D01*
X176336700Y-80250207D01*
X176128473Y-80041980D01*
X175898242Y-79858377D01*
X175761974Y-79772754D01*
X175648896Y-79701702D01*
X175383603Y-79573944D01*
X175383581Y-79573935D01*
X175105647Y-79476681D01*
X175105635Y-79476677D01*
X174818546Y-79411151D01*
X174818530Y-79411149D01*
X174525922Y-79378180D01*
X174525918Y-79378180D01*
X174231442Y-79378180D01*
X174231437Y-79378180D01*
X173938829Y-79411149D01*
X173938813Y-79411151D01*
X173651724Y-79476677D01*
X173651712Y-79476681D01*
X173373778Y-79573935D01*
X173373756Y-79573944D01*
X173108463Y-79701702D01*
X172859119Y-79858376D01*
X172628887Y-80041979D01*
X172420659Y-80250207D01*
X172237056Y-80480439D01*
X172080382Y-80729783D01*
X171952624Y-80995076D01*
X171952615Y-80995098D01*
X171855361Y-81273032D01*
X171855357Y-81273044D01*
X171789831Y-81560133D01*
X171789829Y-81560149D01*
X171756860Y-81852757D01*
X171756860Y-82147242D01*
X171789829Y-82439850D01*
X171789831Y-82439866D01*
X171855357Y-82726955D01*
X171855361Y-82726967D01*
X171952615Y-83004901D01*
X171952624Y-83004923D01*
X172080382Y-83270216D01*
X172080386Y-83270222D01*
X172237057Y-83519562D01*
X172420660Y-83749793D01*
X172628887Y-83958020D01*
X172859118Y-84141623D01*
X173064234Y-84270506D01*
X173110525Y-84322841D01*
X173121173Y-84391894D01*
X173092798Y-84455743D01*
X173034409Y-84494115D01*
X172998262Y-84499500D01*
X100259098Y-84499500D01*
X100192059Y-84479815D01*
X100146304Y-84427011D01*
X100136360Y-84357853D01*
X100165385Y-84294297D01*
X100193126Y-84270506D01*
X100398242Y-84141623D01*
X100628473Y-83958020D01*
X100836700Y-83749793D01*
X101020303Y-83519562D01*
X101176974Y-83270222D01*
X101261564Y-83094569D01*
X101304735Y-83004923D01*
X101304736Y-83004919D01*
X101304742Y-83004908D01*
X101402002Y-82726956D01*
X101467529Y-82439863D01*
X101500500Y-82147238D01*
X101500500Y-81852762D01*
X101467529Y-81560137D01*
X101406193Y-81291406D01*
X101410466Y-81221668D01*
X101451765Y-81165310D01*
X101516977Y-81140227D01*
X101585398Y-81154381D01*
X101614765Y-81176133D01*
X102111580Y-81672948D01*
X102111584Y-81672951D01*
X102234498Y-81755080D01*
X102234511Y-81755087D01*
X102330511Y-81794851D01*
X102371087Y-81811658D01*
X102371091Y-81811658D01*
X102371092Y-81811659D01*
X102516079Y-81840500D01*
X102516082Y-81840500D01*
X102663917Y-81840500D01*
X106887779Y-81840500D01*
X106954818Y-81860185D01*
X106988097Y-81891615D01*
X107044892Y-81969788D01*
X107195213Y-82120109D01*
X107367179Y-82245048D01*
X107367181Y-82245049D01*
X107367184Y-82245051D01*
X107556588Y-82341557D01*
X107758757Y-82407246D01*
X107968713Y-82440500D01*
X107968714Y-82440500D01*
X108431286Y-82440500D01*
X108431287Y-82440500D01*
X108641243Y-82407246D01*
X108843412Y-82341557D01*
X109032816Y-82245051D01*
X109054789Y-82229086D01*
X109204786Y-82120109D01*
X109204788Y-82120106D01*
X109204792Y-82120104D01*
X109355104Y-81969792D01*
X109355106Y-81969788D01*
X109355109Y-81969786D01*
X109482915Y-81793875D01*
X109484259Y-81794851D01*
X109530705Y-81752834D01*
X109584618Y-81740500D01*
X114615382Y-81740500D01*
X114682421Y-81760185D01*
X114716099Y-81794591D01*
X114717085Y-81793875D01*
X114844890Y-81969786D01*
X114995213Y-82120109D01*
X115167179Y-82245048D01*
X115167181Y-82245049D01*
X115167184Y-82245051D01*
X115356588Y-82341557D01*
X115558757Y-82407246D01*
X115768713Y-82440500D01*
X115768714Y-82440500D01*
X116231286Y-82440500D01*
X116231287Y-82440500D01*
X116441243Y-82407246D01*
X116643412Y-82341557D01*
X116832816Y-82245051D01*
X116854789Y-82229086D01*
X117004786Y-82120109D01*
X117004788Y-82120106D01*
X117004792Y-82120104D01*
X117155104Y-81969792D01*
X117155106Y-81969788D01*
X117155109Y-81969786D01*
X117282915Y-81793875D01*
X117284259Y-81794851D01*
X117330705Y-81752834D01*
X117384618Y-81740500D01*
X123115382Y-81740500D01*
X123182421Y-81760185D01*
X123216099Y-81794591D01*
X123217085Y-81793875D01*
X123344890Y-81969786D01*
X123495213Y-82120109D01*
X123667179Y-82245048D01*
X123667181Y-82245049D01*
X123667184Y-82245051D01*
X123856588Y-82341557D01*
X124058757Y-82407246D01*
X124268713Y-82440500D01*
X124268714Y-82440500D01*
X124731286Y-82440500D01*
X124731287Y-82440500D01*
X124941243Y-82407246D01*
X125143412Y-82341557D01*
X125332816Y-82245051D01*
X125354789Y-82229086D01*
X125504786Y-82120109D01*
X125504788Y-82120106D01*
X125504792Y-82120104D01*
X125655104Y-81969792D01*
X125655106Y-81969788D01*
X125655109Y-81969786D01*
X125782915Y-81793875D01*
X125784259Y-81794851D01*
X125830705Y-81752834D01*
X125884618Y-81740500D01*
X130915382Y-81740500D01*
X130982421Y-81760185D01*
X131016099Y-81794591D01*
X131017085Y-81793875D01*
X131144890Y-81969786D01*
X131295213Y-82120109D01*
X131467179Y-82245048D01*
X131467181Y-82245049D01*
X131467184Y-82245051D01*
X131656588Y-82341557D01*
X131858757Y-82407246D01*
X132068713Y-82440500D01*
X132068714Y-82440500D01*
X132531285Y-82440500D01*
X132531287Y-82440500D01*
X132640907Y-82423137D01*
X132710196Y-82432091D01*
X132747983Y-82457929D01*
X134295325Y-84005272D01*
X134295326Y-84005273D01*
X134295329Y-84005275D01*
X134295331Y-84005277D01*
X134401873Y-84076465D01*
X134520256Y-84125501D01*
X134520260Y-84125501D01*
X134520261Y-84125502D01*
X134645928Y-84150500D01*
X134645931Y-84150500D01*
X145564071Y-84150500D01*
X145648615Y-84133682D01*
X145689744Y-84125501D01*
X145808127Y-84076465D01*
X145914669Y-84005277D01*
X148005276Y-81914669D01*
X148076465Y-81808127D01*
X148125501Y-81689744D01*
X148128841Y-81672951D01*
X148150500Y-81564069D01*
X148150500Y-77131902D01*
X168749500Y-77131902D01*
X168749500Y-77368097D01*
X168786446Y-77601368D01*
X168859433Y-77825996D01*
X168966519Y-78036163D01*
X168966657Y-78036433D01*
X169105483Y-78227510D01*
X169272490Y-78394517D01*
X169463567Y-78533343D01*
X169562991Y-78584002D01*
X169674003Y-78640566D01*
X169674005Y-78640566D01*
X169674008Y-78640568D01*
X169710839Y-78652535D01*
X169898631Y-78713553D01*
X170131903Y-78750500D01*
X170131908Y-78750500D01*
X170368097Y-78750500D01*
X170601368Y-78713553D01*
X170654510Y-78696286D01*
X170825992Y-78640568D01*
X171036433Y-78533343D01*
X171227510Y-78394517D01*
X171394517Y-78227510D01*
X171533343Y-78036433D01*
X171640568Y-77825992D01*
X171713553Y-77601368D01*
X171719560Y-77563441D01*
X171750500Y-77368097D01*
X171750500Y-77131947D01*
X173250000Y-77131947D01*
X173250000Y-77368052D01*
X173286934Y-77601247D01*
X173359897Y-77825802D01*
X173467087Y-78036174D01*
X173527338Y-78119104D01*
X173527340Y-78119105D01*
X174226212Y-77420233D01*
X174237482Y-77462292D01*
X174309890Y-77587708D01*
X174412292Y-77690110D01*
X174537708Y-77762518D01*
X174579765Y-77773787D01*
X173880893Y-78472658D01*
X173963828Y-78532914D01*
X174174197Y-78640102D01*
X174398752Y-78713065D01*
X174398751Y-78713065D01*
X174631948Y-78750000D01*
X174868052Y-78750000D01*
X175101247Y-78713065D01*
X175325802Y-78640102D01*
X175536163Y-78532918D01*
X175536169Y-78532914D01*
X175619104Y-78472658D01*
X175619105Y-78472658D01*
X174920233Y-77773787D01*
X174962292Y-77762518D01*
X175087708Y-77690110D01*
X175190110Y-77587708D01*
X175262518Y-77462292D01*
X175273787Y-77420234D01*
X175972658Y-78119105D01*
X175972658Y-78119104D01*
X176032914Y-78036169D01*
X176032918Y-78036163D01*
X176140102Y-77825802D01*
X176213065Y-77601247D01*
X176250000Y-77368052D01*
X176250000Y-77131947D01*
X176213065Y-76898752D01*
X176140102Y-76674197D01*
X176032914Y-76463828D01*
X175972658Y-76380894D01*
X175972658Y-76380893D01*
X175273787Y-77079765D01*
X175262518Y-77037708D01*
X175190110Y-76912292D01*
X175087708Y-76809890D01*
X174962292Y-76737482D01*
X174920234Y-76726212D01*
X175619105Y-76027340D01*
X175619104Y-76027338D01*
X175536174Y-75967087D01*
X175325802Y-75859897D01*
X175101247Y-75786934D01*
X175101248Y-75786934D01*
X174868052Y-75750000D01*
X174631948Y-75750000D01*
X174398752Y-75786934D01*
X174174197Y-75859897D01*
X173963830Y-75967084D01*
X173880894Y-76027340D01*
X174579766Y-76726212D01*
X174537708Y-76737482D01*
X174412292Y-76809890D01*
X174309890Y-76912292D01*
X174237482Y-77037708D01*
X174226212Y-77079765D01*
X173527340Y-76380894D01*
X173467084Y-76463830D01*
X173359897Y-76674197D01*
X173286934Y-76898752D01*
X173250000Y-77131947D01*
X171750500Y-77131947D01*
X171750500Y-77131902D01*
X171713553Y-76898631D01*
X171640566Y-76674003D01*
X171533477Y-76463830D01*
X171533343Y-76463567D01*
X171394517Y-76272490D01*
X171227510Y-76105483D01*
X171036433Y-75966657D01*
X170825996Y-75859433D01*
X170601368Y-75786446D01*
X170368097Y-75749500D01*
X170368092Y-75749500D01*
X170131908Y-75749500D01*
X170131903Y-75749500D01*
X169898631Y-75786446D01*
X169674003Y-75859433D01*
X169463566Y-75966657D01*
X169380047Y-76027338D01*
X169272490Y-76105483D01*
X169272488Y-76105485D01*
X169272487Y-76105485D01*
X169105485Y-76272487D01*
X169105485Y-76272488D01*
X169105483Y-76272490D01*
X169045862Y-76354550D01*
X168966657Y-76463566D01*
X168859433Y-76674003D01*
X168786446Y-76898631D01*
X168749500Y-77131902D01*
X148150500Y-77131902D01*
X148150500Y-67773932D01*
X148170185Y-67706893D01*
X148218205Y-67663447D01*
X148332816Y-67605051D01*
X148424672Y-67538313D01*
X148504786Y-67480109D01*
X148504788Y-67480106D01*
X148504792Y-67480104D01*
X148655104Y-67329792D01*
X148675577Y-67301613D01*
X148730906Y-67258949D01*
X148775894Y-67250500D01*
X152025501Y-67250500D01*
X152092540Y-67270185D01*
X152138295Y-67322989D01*
X152149501Y-67374500D01*
X152149501Y-67397876D01*
X152155908Y-67457483D01*
X152206202Y-67592328D01*
X152206206Y-67592335D01*
X152292452Y-67707544D01*
X152292455Y-67707547D01*
X152407664Y-67793793D01*
X152407671Y-67793797D01*
X152542517Y-67844091D01*
X152542516Y-67844091D01*
X152549444Y-67844835D01*
X152602127Y-67850500D01*
X154397872Y-67850499D01*
X154457483Y-67844091D01*
X154592331Y-67793796D01*
X154707546Y-67707546D01*
X154793796Y-67592331D01*
X154844091Y-67457483D01*
X154850500Y-67397873D01*
X154850499Y-65602128D01*
X154844091Y-65542517D01*
X154798356Y-65419896D01*
X154793797Y-65407671D01*
X154793793Y-65407664D01*
X154707547Y-65292455D01*
X154707544Y-65292452D01*
X154592335Y-65206206D01*
X154592328Y-65206202D01*
X154460401Y-65156997D01*
X154404467Y-65115126D01*
X154380050Y-65049662D01*
X154394902Y-64981389D01*
X154416053Y-64953133D01*
X154529728Y-64839458D01*
X154654620Y-64667557D01*
X154751095Y-64478217D01*
X154816757Y-64276129D01*
X154816757Y-64276126D01*
X154827231Y-64210000D01*
X153933012Y-64210000D01*
X153965925Y-64152993D01*
X154000000Y-64025826D01*
X154000000Y-63894174D01*
X153965925Y-63767007D01*
X153933012Y-63710000D01*
X154827231Y-63710000D01*
X154816757Y-63643873D01*
X154816757Y-63643870D01*
X154751095Y-63441782D01*
X154654620Y-63252442D01*
X154529727Y-63080540D01*
X154529723Y-63080535D01*
X154379464Y-62930276D01*
X154379459Y-62930272D01*
X154207555Y-62805377D01*
X154198500Y-62800763D01*
X154147706Y-62752788D01*
X154130912Y-62684966D01*
X154153451Y-62618832D01*
X154198508Y-62579793D01*
X154207816Y-62575051D01*
X154287007Y-62517515D01*
X154379786Y-62450109D01*
X154379788Y-62450106D01*
X154379792Y-62450104D01*
X154530104Y-62299792D01*
X154530106Y-62299788D01*
X154530109Y-62299786D01*
X154655048Y-62127820D01*
X154655047Y-62127820D01*
X154655051Y-62127816D01*
X154751557Y-61938412D01*
X154817246Y-61736243D01*
X154850500Y-61526287D01*
X154850500Y-61313713D01*
X154817246Y-61103757D01*
X154751557Y-60901588D01*
X154655051Y-60712184D01*
X154655049Y-60712181D01*
X154655048Y-60712179D01*
X154530109Y-60540213D01*
X154379786Y-60389890D01*
X154207820Y-60264951D01*
X154207115Y-60264591D01*
X154199054Y-60260485D01*
X154148259Y-60212512D01*
X154131463Y-60144692D01*
X154153999Y-60078556D01*
X154199054Y-60039515D01*
X154207816Y-60035051D01*
X154230382Y-60018656D01*
X154379786Y-59910109D01*
X154379788Y-59910106D01*
X154379792Y-59910104D01*
X154530104Y-59759792D01*
X154530106Y-59759788D01*
X154530109Y-59759786D01*
X154655048Y-59587820D01*
X154655047Y-59587820D01*
X154655051Y-59587816D01*
X154751557Y-59398412D01*
X154817246Y-59196243D01*
X154850500Y-58986287D01*
X154850500Y-58773713D01*
X154817246Y-58563757D01*
X154751557Y-58361588D01*
X154655051Y-58172184D01*
X154655049Y-58172181D01*
X154655048Y-58172179D01*
X154530109Y-58000213D01*
X154379786Y-57849890D01*
X154207820Y-57724951D01*
X154018414Y-57628444D01*
X154018413Y-57628443D01*
X154018412Y-57628443D01*
X153816243Y-57562754D01*
X153816241Y-57562753D01*
X153816240Y-57562753D01*
X153654957Y-57537208D01*
X153606287Y-57529500D01*
X153393713Y-57529500D01*
X153345042Y-57537208D01*
X153183760Y-57562753D01*
X152981585Y-57628444D01*
X152792179Y-57724951D01*
X152620213Y-57849890D01*
X152469890Y-58000213D01*
X152342085Y-58176125D01*
X152340740Y-58175148D01*
X152294295Y-58217166D01*
X152240382Y-58229500D01*
X149065242Y-58229500D01*
X148998203Y-58209815D01*
X148952448Y-58157011D01*
X148947536Y-58144504D01*
X148909814Y-58030666D01*
X148817712Y-57881344D01*
X148693656Y-57757288D01*
X148544334Y-57665186D01*
X148377797Y-57610001D01*
X148377795Y-57610000D01*
X148275010Y-57599500D01*
X146724998Y-57599500D01*
X146724981Y-57599501D01*
X146622203Y-57610000D01*
X146622200Y-57610001D01*
X146455668Y-57665185D01*
X146455663Y-57665187D01*
X146306342Y-57757289D01*
X146182289Y-57881342D01*
X146090187Y-58030663D01*
X146090185Y-58030668D01*
X146035000Y-58197204D01*
X146034088Y-58201467D01*
X146000801Y-58262898D01*
X145939586Y-58296581D01*
X145912837Y-58299500D01*
X123825929Y-58299500D01*
X123700260Y-58324497D01*
X123700257Y-58324498D01*
X123696642Y-58325996D01*
X123691430Y-58328155D01*
X123581881Y-58373530D01*
X123581863Y-58373540D01*
X123475332Y-58444721D01*
X123475325Y-58444727D01*
X120904724Y-61015329D01*
X120891360Y-61035331D01*
X120833534Y-61121874D01*
X120784499Y-61240255D01*
X120784497Y-61240261D01*
X120759500Y-61365928D01*
X120759500Y-69131928D01*
X120739815Y-69198967D01*
X120708385Y-69232246D01*
X120562787Y-69338028D01*
X120562782Y-69338032D01*
X120418028Y-69482786D01*
X120297715Y-69648386D01*
X120250485Y-69741080D01*
X120202510Y-69791876D01*
X120134689Y-69808671D01*
X120068554Y-69786134D01*
X120029515Y-69741080D01*
X119982419Y-69648650D01*
X119982287Y-69648390D01*
X119951115Y-69605485D01*
X119861971Y-69482786D01*
X119717213Y-69338028D01*
X119551613Y-69217715D01*
X119551612Y-69217714D01*
X119551610Y-69217713D01*
X119471542Y-69176916D01*
X119369223Y-69124781D01*
X119174534Y-69061522D01*
X118999995Y-69033878D01*
X118972352Y-69029500D01*
X118767648Y-69029500D01*
X118743329Y-69033351D01*
X118565465Y-69061522D01*
X118370776Y-69124781D01*
X118188386Y-69217715D01*
X118022786Y-69338028D01*
X117878028Y-69482786D01*
X117757715Y-69648386D01*
X117710485Y-69741080D01*
X117662510Y-69791876D01*
X117594689Y-69808671D01*
X117528554Y-69786134D01*
X117489515Y-69741080D01*
X117442419Y-69648650D01*
X117442287Y-69648390D01*
X117411115Y-69605485D01*
X117321971Y-69482786D01*
X117177213Y-69338028D01*
X117011613Y-69217715D01*
X117011612Y-69217714D01*
X117011610Y-69217713D01*
X116931542Y-69176916D01*
X116829223Y-69124781D01*
X116634534Y-69061522D01*
X116459995Y-69033878D01*
X116432352Y-69029500D01*
X116227648Y-69029500D01*
X116203329Y-69033351D01*
X116025465Y-69061522D01*
X115830776Y-69124781D01*
X115648386Y-69217715D01*
X115482786Y-69338028D01*
X115338028Y-69482786D01*
X115217715Y-69648386D01*
X115170485Y-69741080D01*
X115122510Y-69791876D01*
X115054689Y-69808671D01*
X114988554Y-69786134D01*
X114949515Y-69741080D01*
X114902419Y-69648650D01*
X114902287Y-69648390D01*
X114871115Y-69605485D01*
X114781971Y-69482786D01*
X114637213Y-69338028D01*
X114471613Y-69217715D01*
X114471612Y-69217714D01*
X114471610Y-69217713D01*
X114391542Y-69176916D01*
X114289223Y-69124781D01*
X114094534Y-69061522D01*
X113919995Y-69033878D01*
X113892352Y-69029500D01*
X113687648Y-69029500D01*
X113663329Y-69033351D01*
X113485465Y-69061522D01*
X113290776Y-69124781D01*
X113108386Y-69217715D01*
X112942786Y-69338028D01*
X112798028Y-69482786D01*
X112677715Y-69648386D01*
X112630485Y-69741080D01*
X112582510Y-69791876D01*
X112514689Y-69808671D01*
X112448554Y-69786134D01*
X112409515Y-69741080D01*
X112362419Y-69648650D01*
X112362287Y-69648390D01*
X112331115Y-69605485D01*
X112241971Y-69482786D01*
X112097213Y-69338028D01*
X111931613Y-69217715D01*
X111931612Y-69217714D01*
X111931610Y-69217713D01*
X111851542Y-69176916D01*
X111749223Y-69124781D01*
X111554534Y-69061522D01*
X111379995Y-69033878D01*
X111352352Y-69029500D01*
X111147648Y-69029500D01*
X111123329Y-69033351D01*
X110945465Y-69061522D01*
X110750776Y-69124781D01*
X110568386Y-69217715D01*
X110402786Y-69338028D01*
X110258028Y-69482786D01*
X110137715Y-69648386D01*
X110090485Y-69741080D01*
X110042510Y-69791876D01*
X109974689Y-69808671D01*
X109908554Y-69786134D01*
X109869515Y-69741080D01*
X109822419Y-69648650D01*
X109822287Y-69648390D01*
X109791115Y-69605485D01*
X109701971Y-69482786D01*
X109557213Y-69338028D01*
X109391613Y-69217715D01*
X109391612Y-69217714D01*
X109391610Y-69217713D01*
X109311542Y-69176916D01*
X109209223Y-69124781D01*
X109014534Y-69061522D01*
X108839995Y-69033878D01*
X108812352Y-69029500D01*
X108607648Y-69029500D01*
X108583329Y-69033351D01*
X108405465Y-69061522D01*
X108210776Y-69124781D01*
X108028386Y-69217715D01*
X107862786Y-69338028D01*
X107718028Y-69482786D01*
X107597715Y-69648386D01*
X107550485Y-69741080D01*
X107502510Y-69791876D01*
X107434689Y-69808671D01*
X107368554Y-69786134D01*
X107329515Y-69741080D01*
X107282419Y-69648650D01*
X107282287Y-69648390D01*
X107251115Y-69605485D01*
X107161971Y-69482786D01*
X107017213Y-69338028D01*
X106851613Y-69217715D01*
X106851612Y-69217714D01*
X106851610Y-69217713D01*
X106771542Y-69176916D01*
X106669223Y-69124781D01*
X106474534Y-69061522D01*
X106299995Y-69033878D01*
X106272352Y-69029500D01*
X106067648Y-69029500D01*
X106043329Y-69033351D01*
X105865465Y-69061522D01*
X105670776Y-69124781D01*
X105488386Y-69217715D01*
X105322786Y-69338028D01*
X105178028Y-69482786D01*
X105057715Y-69648386D01*
X105010485Y-69741080D01*
X104962510Y-69791876D01*
X104894689Y-69808671D01*
X104828554Y-69786134D01*
X104789515Y-69741080D01*
X104742419Y-69648650D01*
X104742287Y-69648390D01*
X104711115Y-69605485D01*
X104621971Y-69482786D01*
X104477213Y-69338028D01*
X104311613Y-69217715D01*
X104311612Y-69217714D01*
X104311610Y-69217713D01*
X104231542Y-69176916D01*
X104129223Y-69124781D01*
X103934534Y-69061522D01*
X103759995Y-69033878D01*
X103732352Y-69029500D01*
X103527648Y-69029500D01*
X103503329Y-69033351D01*
X103325465Y-69061522D01*
X103130776Y-69124781D01*
X102948386Y-69217715D01*
X102782786Y-69338028D01*
X102638028Y-69482786D01*
X102517715Y-69648386D01*
X102424781Y-69830776D01*
X102361522Y-70025465D01*
X102329500Y-70227648D01*
X102329500Y-70432351D01*
X102361522Y-70634534D01*
X102424781Y-70829223D01*
X102517715Y-71011613D01*
X102638028Y-71177213D01*
X102782786Y-71321971D01*
X102917969Y-71420185D01*
X102948390Y-71442287D01*
X103028453Y-71483081D01*
X103130776Y-71535218D01*
X103130778Y-71535218D01*
X103130781Y-71535220D01*
X103235137Y-71569127D01*
X103325465Y-71598477D01*
X103426557Y-71614488D01*
X103527648Y-71630500D01*
X103527649Y-71630500D01*
X103732351Y-71630500D01*
X103732352Y-71630500D01*
X103934534Y-71598477D01*
X104129219Y-71535220D01*
X104311610Y-71442287D01*
X104431494Y-71355187D01*
X104477213Y-71321971D01*
X104477215Y-71321968D01*
X104477219Y-71321966D01*
X104621966Y-71177219D01*
X104621968Y-71177215D01*
X104621971Y-71177213D01*
X104742284Y-71011614D01*
X104742286Y-71011611D01*
X104742287Y-71011610D01*
X104789516Y-70918917D01*
X104837489Y-70868123D01*
X104905310Y-70851328D01*
X104971445Y-70873865D01*
X105010485Y-70918919D01*
X105057715Y-71011614D01*
X105178028Y-71177213D01*
X105322786Y-71321971D01*
X105457969Y-71420185D01*
X105488390Y-71442287D01*
X105568453Y-71483081D01*
X105670776Y-71535218D01*
X105670778Y-71535218D01*
X105670781Y-71535220D01*
X105775137Y-71569127D01*
X105865465Y-71598477D01*
X105966557Y-71614488D01*
X106067648Y-71630500D01*
X106067649Y-71630500D01*
X106272351Y-71630500D01*
X106272352Y-71630500D01*
X106474534Y-71598477D01*
X106669219Y-71535220D01*
X106851610Y-71442287D01*
X106971494Y-71355187D01*
X107017213Y-71321971D01*
X107017215Y-71321968D01*
X107017219Y-71321966D01*
X107161966Y-71177219D01*
X107161968Y-71177215D01*
X107161971Y-71177213D01*
X107282284Y-71011614D01*
X107282286Y-71011611D01*
X107282287Y-71011610D01*
X107329516Y-70918917D01*
X107377489Y-70868123D01*
X107445310Y-70851328D01*
X107511445Y-70873865D01*
X107550485Y-70918919D01*
X107597715Y-71011614D01*
X107718028Y-71177213D01*
X107862786Y-71321971D01*
X107997969Y-71420185D01*
X108028390Y-71442287D01*
X108108453Y-71483081D01*
X108210776Y-71535218D01*
X108210778Y-71535218D01*
X108210781Y-71535220D01*
X108315137Y-71569127D01*
X108405465Y-71598477D01*
X108506557Y-71614488D01*
X108607648Y-71630500D01*
X108607649Y-71630500D01*
X108812351Y-71630500D01*
X108812352Y-71630500D01*
X109014534Y-71598477D01*
X109209219Y-71535220D01*
X109391610Y-71442287D01*
X109511494Y-71355187D01*
X109557213Y-71321971D01*
X109557215Y-71321968D01*
X109557219Y-71321966D01*
X109701966Y-71177219D01*
X109701968Y-71177215D01*
X109701971Y-71177213D01*
X109822284Y-71011614D01*
X109822286Y-71011611D01*
X109822287Y-71011610D01*
X109869516Y-70918917D01*
X109917489Y-70868123D01*
X109985310Y-70851328D01*
X110051445Y-70873865D01*
X110090485Y-70918919D01*
X110137715Y-71011614D01*
X110258028Y-71177213D01*
X110402784Y-71321969D01*
X110448506Y-71355187D01*
X110548385Y-71427753D01*
X110591051Y-71483081D01*
X110599500Y-71528070D01*
X110599500Y-73769192D01*
X110579815Y-73836231D01*
X110563181Y-73856873D01*
X109542840Y-74877213D01*
X109481517Y-74910698D01*
X109411825Y-74905714D01*
X109390063Y-74895071D01*
X109244340Y-74805189D01*
X109244335Y-74805187D01*
X109244334Y-74805186D01*
X109077797Y-74750001D01*
X109077795Y-74750000D01*
X108975010Y-74739500D01*
X107424998Y-74739500D01*
X107424981Y-74739501D01*
X107322203Y-74750000D01*
X107322200Y-74750001D01*
X107155668Y-74805185D01*
X107155663Y-74805187D01*
X107006342Y-74897289D01*
X106882289Y-75021342D01*
X106790187Y-75170663D01*
X106790186Y-75170666D01*
X106735001Y-75337203D01*
X106735001Y-75337204D01*
X106735000Y-75337204D01*
X106724500Y-75439983D01*
X106724500Y-76740001D01*
X106724501Y-76740018D01*
X106735000Y-76842796D01*
X106735001Y-76842799D01*
X106758029Y-76912292D01*
X106790186Y-77009334D01*
X106882288Y-77158656D01*
X107006344Y-77282712D01*
X107150001Y-77371320D01*
X107161558Y-77378448D01*
X107208283Y-77430396D01*
X107219506Y-77499358D01*
X107191663Y-77563441D01*
X107184144Y-77571668D01*
X107045271Y-77710541D01*
X106920379Y-77882442D01*
X106823904Y-78071782D01*
X106758242Y-78273870D01*
X106758242Y-78273873D01*
X106747769Y-78340000D01*
X107795854Y-78340000D01*
X107757370Y-78406657D01*
X107725000Y-78527465D01*
X107725000Y-78652535D01*
X107757370Y-78773343D01*
X107795854Y-78840000D01*
X106747769Y-78840000D01*
X106758242Y-78906126D01*
X106758242Y-78906129D01*
X106823904Y-79108217D01*
X106920379Y-79297557D01*
X107045272Y-79469459D01*
X107045276Y-79469464D01*
X107195535Y-79619723D01*
X107195540Y-79619727D01*
X107360218Y-79739372D01*
X107402884Y-79794701D01*
X107408863Y-79864315D01*
X107376258Y-79926110D01*
X107360218Y-79940008D01*
X107195214Y-80059890D01*
X107195209Y-80059894D01*
X107044892Y-80210211D01*
X106988097Y-80288385D01*
X106932767Y-80331051D01*
X106887779Y-80339500D01*
X102952229Y-80339500D01*
X102885190Y-80319815D01*
X102864548Y-80303181D01*
X101286819Y-78725451D01*
X101253334Y-78664128D01*
X101250500Y-78637770D01*
X101250500Y-49886079D01*
X101221659Y-49741092D01*
X101221658Y-49741091D01*
X101221658Y-49741087D01*
X101221656Y-49741082D01*
X101165087Y-49604511D01*
X101165080Y-49604498D01*
X101082952Y-49481585D01*
X101037295Y-49435928D01*
X100978416Y-49377049D01*
X99870174Y-48268807D01*
X99869699Y-48267937D01*
X99868835Y-48267448D01*
X99852985Y-48237328D01*
X99836689Y-48207484D01*
X99836607Y-48206204D01*
X99836298Y-48205617D01*
X99836165Y-48199281D01*
X99834322Y-48170378D01*
X99834698Y-48166050D01*
X99850500Y-48066287D01*
X99850500Y-47984427D01*
X99850967Y-47979060D01*
X99861798Y-47951330D01*
X99870185Y-47922769D01*
X99874371Y-47919141D01*
X99876388Y-47913979D01*
X99900497Y-47896502D01*
X99922989Y-47877014D01*
X99928471Y-47876225D01*
X99932959Y-47872973D01*
X99962682Y-47871306D01*
X99992147Y-47867070D01*
X99997187Y-47869372D01*
X100002719Y-47869062D01*
X100028621Y-47883727D01*
X100055703Y-47896095D01*
X100062181Y-47902127D01*
X102943181Y-50783127D01*
X102976666Y-50844450D01*
X102979500Y-50870808D01*
X102979500Y-53891928D01*
X102959815Y-53958967D01*
X102928385Y-53992246D01*
X102782787Y-54098028D01*
X102782782Y-54098032D01*
X102638028Y-54242786D01*
X102517715Y-54408386D01*
X102424781Y-54590776D01*
X102361522Y-54785465D01*
X102329500Y-54987648D01*
X102329500Y-55192351D01*
X102361522Y-55394534D01*
X102424781Y-55589223D01*
X102517715Y-55771613D01*
X102638028Y-55937213D01*
X102782786Y-56081971D01*
X102937749Y-56194556D01*
X102948390Y-56202287D01*
X103037212Y-56247544D01*
X103130776Y-56295218D01*
X103130778Y-56295218D01*
X103130781Y-56295220D01*
X103235137Y-56329127D01*
X103325465Y-56358477D01*
X103426557Y-56374488D01*
X103527648Y-56390500D01*
X103527649Y-56390500D01*
X103732351Y-56390500D01*
X103732352Y-56390500D01*
X103934534Y-56358477D01*
X104129219Y-56295220D01*
X104311610Y-56202287D01*
X104407901Y-56132328D01*
X104477213Y-56081971D01*
X104477215Y-56081968D01*
X104477219Y-56081966D01*
X104621966Y-55937219D01*
X104621968Y-55937215D01*
X104621971Y-55937213D01*
X104742284Y-55771614D01*
X104742286Y-55771611D01*
X104742287Y-55771610D01*
X104789516Y-55678917D01*
X104837489Y-55628123D01*
X104905310Y-55611328D01*
X104971445Y-55633865D01*
X105010485Y-55678919D01*
X105057715Y-55771614D01*
X105178028Y-55937213D01*
X105322786Y-56081971D01*
X105477749Y-56194556D01*
X105488390Y-56202287D01*
X105577212Y-56247544D01*
X105670776Y-56295218D01*
X105670778Y-56295218D01*
X105670781Y-56295220D01*
X105775137Y-56329127D01*
X105865465Y-56358477D01*
X105966557Y-56374488D01*
X106067648Y-56390500D01*
X106067649Y-56390500D01*
X106272351Y-56390500D01*
X106272352Y-56390500D01*
X106474534Y-56358477D01*
X106669219Y-56295220D01*
X106851610Y-56202287D01*
X106947901Y-56132328D01*
X107017213Y-56081971D01*
X107017215Y-56081968D01*
X107017219Y-56081966D01*
X107161966Y-55937219D01*
X107161968Y-55937215D01*
X107161971Y-55937213D01*
X107282284Y-55771614D01*
X107282286Y-55771611D01*
X107282287Y-55771610D01*
X107329516Y-55678917D01*
X107377489Y-55628123D01*
X107445310Y-55611328D01*
X107511445Y-55633865D01*
X107550485Y-55678919D01*
X107597715Y-55771614D01*
X107718028Y-55937213D01*
X107862786Y-56081971D01*
X108017749Y-56194556D01*
X108028390Y-56202287D01*
X108117212Y-56247544D01*
X108210776Y-56295218D01*
X108210778Y-56295218D01*
X108210781Y-56295220D01*
X108315137Y-56329127D01*
X108405465Y-56358477D01*
X108506557Y-56374488D01*
X108607648Y-56390500D01*
X108607649Y-56390500D01*
X108812351Y-56390500D01*
X108812352Y-56390500D01*
X109014534Y-56358477D01*
X109209219Y-56295220D01*
X109391610Y-56202287D01*
X109487901Y-56132328D01*
X109557213Y-56081971D01*
X109557215Y-56081968D01*
X109557219Y-56081966D01*
X109701966Y-55937219D01*
X109701968Y-55937215D01*
X109701971Y-55937213D01*
X109822284Y-55771614D01*
X109822286Y-55771611D01*
X109822287Y-55771610D01*
X109869516Y-55678917D01*
X109917489Y-55628123D01*
X109985310Y-55611328D01*
X110051445Y-55633865D01*
X110090485Y-55678919D01*
X110137715Y-55771614D01*
X110258028Y-55937213D01*
X110402786Y-56081971D01*
X110557749Y-56194556D01*
X110568390Y-56202287D01*
X110657212Y-56247544D01*
X110750776Y-56295218D01*
X110750778Y-56295218D01*
X110750781Y-56295220D01*
X110855137Y-56329127D01*
X110945465Y-56358477D01*
X111046557Y-56374488D01*
X111147648Y-56390500D01*
X111147649Y-56390500D01*
X111352351Y-56390500D01*
X111352352Y-56390500D01*
X111554534Y-56358477D01*
X111749219Y-56295220D01*
X111931610Y-56202287D01*
X112027901Y-56132328D01*
X112097213Y-56081971D01*
X112097215Y-56081968D01*
X112097219Y-56081966D01*
X112241966Y-55937219D01*
X112241968Y-55937215D01*
X112241971Y-55937213D01*
X112362284Y-55771614D01*
X112362286Y-55771611D01*
X112362287Y-55771610D01*
X112409516Y-55678917D01*
X112457489Y-55628123D01*
X112525310Y-55611328D01*
X112591445Y-55633865D01*
X112630485Y-55678919D01*
X112677715Y-55771614D01*
X112798028Y-55937213D01*
X112942786Y-56081971D01*
X113097749Y-56194556D01*
X113108390Y-56202287D01*
X113197212Y-56247544D01*
X113290776Y-56295218D01*
X113290778Y-56295218D01*
X113290781Y-56295220D01*
X113395137Y-56329127D01*
X113485465Y-56358477D01*
X113586557Y-56374488D01*
X113687648Y-56390500D01*
X113687649Y-56390500D01*
X113892351Y-56390500D01*
X113892352Y-56390500D01*
X114094534Y-56358477D01*
X114289219Y-56295220D01*
X114471610Y-56202287D01*
X114567901Y-56132328D01*
X114637213Y-56081971D01*
X114637215Y-56081968D01*
X114637219Y-56081966D01*
X114781966Y-55937219D01*
X114781968Y-55937215D01*
X114781971Y-55937213D01*
X114902284Y-55771614D01*
X114902286Y-55771611D01*
X114902287Y-55771610D01*
X114949516Y-55678917D01*
X114997489Y-55628123D01*
X115065310Y-55611328D01*
X115131445Y-55633865D01*
X115170485Y-55678919D01*
X115217715Y-55771614D01*
X115338028Y-55937213D01*
X115482786Y-56081971D01*
X115637749Y-56194556D01*
X115648390Y-56202287D01*
X115737212Y-56247544D01*
X115830776Y-56295218D01*
X115830778Y-56295218D01*
X115830781Y-56295220D01*
X115935137Y-56329127D01*
X116025465Y-56358477D01*
X116126557Y-56374488D01*
X116227648Y-56390500D01*
X116227649Y-56390500D01*
X116432351Y-56390500D01*
X116432352Y-56390500D01*
X116634534Y-56358477D01*
X116829219Y-56295220D01*
X117011610Y-56202287D01*
X117107901Y-56132328D01*
X117177213Y-56081971D01*
X117177215Y-56081968D01*
X117177219Y-56081966D01*
X117321966Y-55937219D01*
X117321968Y-55937215D01*
X117321971Y-55937213D01*
X117442284Y-55771614D01*
X117442286Y-55771611D01*
X117442287Y-55771610D01*
X117489516Y-55678917D01*
X117537489Y-55628123D01*
X117605310Y-55611328D01*
X117671445Y-55633865D01*
X117710485Y-55678919D01*
X117757715Y-55771614D01*
X117878028Y-55937213D01*
X118022786Y-56081971D01*
X118177749Y-56194556D01*
X118188390Y-56202287D01*
X118277212Y-56247544D01*
X118370776Y-56295218D01*
X118370778Y-56295218D01*
X118370781Y-56295220D01*
X118475137Y-56329127D01*
X118565465Y-56358477D01*
X118666557Y-56374488D01*
X118767648Y-56390500D01*
X118767649Y-56390500D01*
X118972351Y-56390500D01*
X118972352Y-56390500D01*
X119174534Y-56358477D01*
X119369219Y-56295220D01*
X119551610Y-56202287D01*
X119647901Y-56132328D01*
X119717213Y-56081971D01*
X119717215Y-56081968D01*
X119717219Y-56081966D01*
X119861966Y-55937219D01*
X119861968Y-55937215D01*
X119861971Y-55937213D01*
X119982284Y-55771614D01*
X119982286Y-55771611D01*
X119982287Y-55771610D01*
X120029516Y-55678917D01*
X120077489Y-55628123D01*
X120145310Y-55611328D01*
X120211445Y-55633865D01*
X120250485Y-55678919D01*
X120297715Y-55771614D01*
X120418028Y-55937213D01*
X120562786Y-56081971D01*
X120717749Y-56194556D01*
X120728390Y-56202287D01*
X120817212Y-56247544D01*
X120910776Y-56295218D01*
X120910778Y-56295218D01*
X120910781Y-56295220D01*
X121015137Y-56329127D01*
X121105465Y-56358477D01*
X121206557Y-56374488D01*
X121307648Y-56390500D01*
X121307649Y-56390500D01*
X121512351Y-56390500D01*
X121512352Y-56390500D01*
X121714534Y-56358477D01*
X121909219Y-56295220D01*
X122091610Y-56202287D01*
X122187901Y-56132328D01*
X122257213Y-56081971D01*
X122257215Y-56081968D01*
X122257219Y-56081966D01*
X122401966Y-55937219D01*
X122401968Y-55937215D01*
X122401971Y-55937213D01*
X122522284Y-55771614D01*
X122522286Y-55771611D01*
X122522287Y-55771610D01*
X122569516Y-55678917D01*
X122617489Y-55628123D01*
X122685310Y-55611328D01*
X122751445Y-55633865D01*
X122790485Y-55678919D01*
X122837715Y-55771614D01*
X122958028Y-55937213D01*
X123102786Y-56081971D01*
X123257749Y-56194556D01*
X123268390Y-56202287D01*
X123357212Y-56247544D01*
X123450776Y-56295218D01*
X123450778Y-56295218D01*
X123450781Y-56295220D01*
X123555137Y-56329127D01*
X123645465Y-56358477D01*
X123746557Y-56374488D01*
X123847648Y-56390500D01*
X123847649Y-56390500D01*
X124052351Y-56390500D01*
X124052352Y-56390500D01*
X124254534Y-56358477D01*
X124449219Y-56295220D01*
X124631610Y-56202287D01*
X124727901Y-56132328D01*
X124797213Y-56081971D01*
X124797215Y-56081968D01*
X124797219Y-56081966D01*
X124941966Y-55937219D01*
X124941968Y-55937215D01*
X124941971Y-55937213D01*
X125062284Y-55771614D01*
X125062286Y-55771611D01*
X125062287Y-55771610D01*
X125109516Y-55678917D01*
X125157489Y-55628123D01*
X125225310Y-55611328D01*
X125291445Y-55633865D01*
X125330485Y-55678919D01*
X125377715Y-55771614D01*
X125498028Y-55937213D01*
X125642786Y-56081971D01*
X125797749Y-56194556D01*
X125808390Y-56202287D01*
X125897212Y-56247544D01*
X125990776Y-56295218D01*
X125990778Y-56295218D01*
X125990781Y-56295220D01*
X126095137Y-56329127D01*
X126185465Y-56358477D01*
X126286557Y-56374488D01*
X126387648Y-56390500D01*
X126387649Y-56390500D01*
X126592351Y-56390500D01*
X126592352Y-56390500D01*
X126794534Y-56358477D01*
X126989219Y-56295220D01*
X127171610Y-56202287D01*
X127267901Y-56132328D01*
X127337213Y-56081971D01*
X127337215Y-56081968D01*
X127337219Y-56081966D01*
X127481966Y-55937219D01*
X127481968Y-55937215D01*
X127481971Y-55937213D01*
X127602284Y-55771614D01*
X127602286Y-55771611D01*
X127602287Y-55771610D01*
X127649516Y-55678917D01*
X127697489Y-55628123D01*
X127765310Y-55611328D01*
X127831445Y-55633865D01*
X127870485Y-55678919D01*
X127917715Y-55771614D01*
X128038028Y-55937213D01*
X128182786Y-56081971D01*
X128337749Y-56194556D01*
X128348390Y-56202287D01*
X128437212Y-56247544D01*
X128530776Y-56295218D01*
X128530778Y-56295218D01*
X128530781Y-56295220D01*
X128635137Y-56329127D01*
X128725465Y-56358477D01*
X128826557Y-56374488D01*
X128927648Y-56390500D01*
X128927649Y-56390500D01*
X129132351Y-56390500D01*
X129132352Y-56390500D01*
X129334534Y-56358477D01*
X129529219Y-56295220D01*
X129711610Y-56202287D01*
X129807901Y-56132328D01*
X129877213Y-56081971D01*
X129877215Y-56081968D01*
X129877219Y-56081966D01*
X130021966Y-55937219D01*
X130021968Y-55937215D01*
X130021971Y-55937213D01*
X130142284Y-55771614D01*
X130142286Y-55771611D01*
X130142287Y-55771610D01*
X130189795Y-55678369D01*
X130237770Y-55627574D01*
X130305591Y-55610779D01*
X130371725Y-55633316D01*
X130410765Y-55678370D01*
X130458140Y-55771349D01*
X130578417Y-55936894D01*
X130578417Y-55936895D01*
X130723104Y-56081582D01*
X130888650Y-56201859D01*
X131070968Y-56294754D01*
X131265578Y-56357988D01*
X131320000Y-56366607D01*
X131320000Y-55523012D01*
X131377007Y-55555925D01*
X131504174Y-55590000D01*
X131635826Y-55590000D01*
X131762993Y-55555925D01*
X131820000Y-55523012D01*
X131820000Y-56366606D01*
X131874421Y-56357988D01*
X132069031Y-56294754D01*
X132251349Y-56201859D01*
X132416894Y-56081582D01*
X132416895Y-56081582D01*
X132561582Y-55936895D01*
X132561582Y-55936894D01*
X132681861Y-55771347D01*
X132729234Y-55678371D01*
X132777208Y-55627575D01*
X132845028Y-55610779D01*
X132911164Y-55633316D01*
X132950203Y-55678369D01*
X132997713Y-55771611D01*
X133118028Y-55937213D01*
X133262786Y-56081971D01*
X133417749Y-56194556D01*
X133428390Y-56202287D01*
X133517212Y-56247544D01*
X133610776Y-56295218D01*
X133610778Y-56295218D01*
X133610781Y-56295220D01*
X133715137Y-56329127D01*
X133805465Y-56358477D01*
X133906557Y-56374488D01*
X134007648Y-56390500D01*
X134007649Y-56390500D01*
X134212351Y-56390500D01*
X134212352Y-56390500D01*
X134414534Y-56358477D01*
X134609219Y-56295220D01*
X134791610Y-56202287D01*
X134887901Y-56132328D01*
X134957213Y-56081971D01*
X134957215Y-56081968D01*
X134957219Y-56081966D01*
X135101966Y-55937219D01*
X135101968Y-55937215D01*
X135101971Y-55937213D01*
X135222284Y-55771614D01*
X135222286Y-55771611D01*
X135222287Y-55771610D01*
X135269516Y-55678917D01*
X135317489Y-55628123D01*
X135385310Y-55611328D01*
X135451445Y-55633865D01*
X135490485Y-55678919D01*
X135537715Y-55771614D01*
X135658028Y-55937213D01*
X135802786Y-56081971D01*
X135957749Y-56194556D01*
X135968390Y-56202287D01*
X136057212Y-56247544D01*
X136150776Y-56295218D01*
X136150778Y-56295218D01*
X136150781Y-56295220D01*
X136255137Y-56329127D01*
X136345465Y-56358477D01*
X136446557Y-56374488D01*
X136547648Y-56390500D01*
X136547649Y-56390500D01*
X136752351Y-56390500D01*
X136752352Y-56390500D01*
X136954534Y-56358477D01*
X137149219Y-56295220D01*
X137331610Y-56202287D01*
X137427901Y-56132328D01*
X137497213Y-56081971D01*
X137497215Y-56081968D01*
X137497219Y-56081966D01*
X137641966Y-55937219D01*
X137668330Y-55900930D01*
X137723658Y-55858265D01*
X137793271Y-55852284D01*
X137855067Y-55884889D01*
X137889426Y-55945726D01*
X137891938Y-55960559D01*
X137895907Y-55997480D01*
X137946202Y-56132328D01*
X137946206Y-56132335D01*
X138032452Y-56247544D01*
X138032455Y-56247547D01*
X138147664Y-56333793D01*
X138147671Y-56333797D01*
X138282517Y-56384091D01*
X138282516Y-56384091D01*
X138289444Y-56384835D01*
X138342127Y-56390500D01*
X140037872Y-56390499D01*
X140097483Y-56384091D01*
X140232331Y-56333796D01*
X140347546Y-56247546D01*
X140433796Y-56132331D01*
X140484091Y-55997483D01*
X140490500Y-55937873D01*
X140490499Y-54242128D01*
X140484091Y-54182517D01*
X140433796Y-54047669D01*
X140433795Y-54047668D01*
X140433793Y-54047664D01*
X140347547Y-53932455D01*
X140347544Y-53932452D01*
X140232335Y-53846206D01*
X140232328Y-53846202D01*
X140097482Y-53795908D01*
X140097483Y-53795908D01*
X140037883Y-53789501D01*
X140037881Y-53789500D01*
X140037873Y-53789500D01*
X140037864Y-53789500D01*
X138342129Y-53789500D01*
X138342123Y-53789501D01*
X138282516Y-53795908D01*
X138147671Y-53846202D01*
X138147664Y-53846206D01*
X138032455Y-53932452D01*
X138032452Y-53932455D01*
X137946206Y-54047664D01*
X137946202Y-54047671D01*
X137895908Y-54182516D01*
X137891939Y-54219440D01*
X137865201Y-54283991D01*
X137807809Y-54323839D01*
X137737983Y-54326332D01*
X137677895Y-54290679D01*
X137668332Y-54279070D01*
X137641967Y-54242782D01*
X137497213Y-54098028D01*
X137331613Y-53977715D01*
X137331612Y-53977714D01*
X137331610Y-53977713D01*
X137251542Y-53936916D01*
X137149223Y-53884781D01*
X136954534Y-53821522D01*
X136779995Y-53793878D01*
X136752352Y-53789500D01*
X136547648Y-53789500D01*
X136523329Y-53793351D01*
X136345465Y-53821522D01*
X136150776Y-53884781D01*
X135968386Y-53977715D01*
X135802786Y-54098028D01*
X135658028Y-54242786D01*
X135537715Y-54408386D01*
X135490485Y-54501080D01*
X135442510Y-54551876D01*
X135374689Y-54568671D01*
X135308554Y-54546134D01*
X135269515Y-54501080D01*
X135222419Y-54408650D01*
X135222287Y-54408390D01*
X135160858Y-54323839D01*
X135101971Y-54242786D01*
X134957213Y-54098028D01*
X134791613Y-53977715D01*
X134791612Y-53977714D01*
X134791610Y-53977713D01*
X134711542Y-53936916D01*
X134609223Y-53884781D01*
X134414534Y-53821522D01*
X134239995Y-53793878D01*
X134212352Y-53789500D01*
X134007648Y-53789500D01*
X133983329Y-53793351D01*
X133805465Y-53821522D01*
X133610776Y-53884781D01*
X133428386Y-53977715D01*
X133262786Y-54098028D01*
X133118028Y-54242786D01*
X132997713Y-54408388D01*
X132950203Y-54501630D01*
X132902228Y-54552426D01*
X132834407Y-54569220D01*
X132768272Y-54546682D01*
X132729234Y-54501628D01*
X132681861Y-54408652D01*
X132561582Y-54243105D01*
X132561582Y-54243104D01*
X132416895Y-54098417D01*
X132251349Y-53978140D01*
X132069029Y-53885244D01*
X131874413Y-53822009D01*
X131820000Y-53813390D01*
X131820000Y-54656988D01*
X131762993Y-54624075D01*
X131635826Y-54590000D01*
X131504174Y-54590000D01*
X131377007Y-54624075D01*
X131320000Y-54656988D01*
X131320000Y-53813390D01*
X131265586Y-53822009D01*
X131070970Y-53885244D01*
X130888650Y-53978140D01*
X130723105Y-54098417D01*
X130723104Y-54098417D01*
X130578417Y-54243104D01*
X130578417Y-54243105D01*
X130458140Y-54408650D01*
X130410765Y-54501629D01*
X130362790Y-54552425D01*
X130294969Y-54569220D01*
X130228834Y-54546682D01*
X130189795Y-54501629D01*
X130142419Y-54408650D01*
X130142287Y-54408390D01*
X130080858Y-54323839D01*
X130021971Y-54242786D01*
X129877217Y-54098032D01*
X129877212Y-54098028D01*
X129731615Y-53992246D01*
X129688949Y-53936916D01*
X129680500Y-53891928D01*
X129680500Y-50790807D01*
X129700185Y-50723768D01*
X129716819Y-50703126D01*
X131233126Y-49186819D01*
X131294449Y-49153334D01*
X131320807Y-49150500D01*
X140829673Y-49150500D01*
X140896712Y-49170185D01*
X140942467Y-49222989D01*
X140952411Y-49292147D01*
X140940158Y-49330795D01*
X140910621Y-49388764D01*
X140910619Y-49388767D01*
X140853445Y-49564734D01*
X140824500Y-49747486D01*
X140824500Y-49932513D01*
X140853445Y-50115265D01*
X140910619Y-50291232D01*
X140910620Y-50291235D01*
X140967710Y-50403279D01*
X140984347Y-50435931D01*
X140994624Y-50456099D01*
X141078545Y-50571607D01*
X141102025Y-50637413D01*
X141086200Y-50705467D01*
X141052539Y-50743758D01*
X140967452Y-50807455D01*
X140881206Y-50922664D01*
X140881202Y-50922671D01*
X140830908Y-51057517D01*
X140826395Y-51099500D01*
X140824501Y-51117123D01*
X140824500Y-51117135D01*
X140824500Y-52562870D01*
X140824501Y-52562876D01*
X140830908Y-52622483D01*
X140881202Y-52757328D01*
X140881206Y-52757335D01*
X140967452Y-52872544D01*
X140967455Y-52872547D01*
X141082664Y-52958793D01*
X141082671Y-52958797D01*
X141217517Y-53009091D01*
X141217516Y-53009091D01*
X141224444Y-53009835D01*
X141277127Y-53015500D01*
X142722872Y-53015499D01*
X142782483Y-53009091D01*
X142917331Y-52958796D01*
X143032546Y-52872546D01*
X143118796Y-52757331D01*
X143169091Y-52622483D01*
X143175500Y-52562873D01*
X143175499Y-51117128D01*
X143169091Y-51057517D01*
X143134929Y-50965925D01*
X143118797Y-50922671D01*
X143118793Y-50922664D01*
X143032547Y-50807455D01*
X143015173Y-50794449D01*
X142981773Y-50769445D01*
X142947460Y-50743758D01*
X142905590Y-50687824D01*
X142900606Y-50618132D01*
X142921454Y-50571607D01*
X143005378Y-50456096D01*
X143089379Y-50291235D01*
X143146555Y-50115264D01*
X143175500Y-49932514D01*
X143175500Y-49747486D01*
X143146555Y-49564736D01*
X143095601Y-49407913D01*
X143089380Y-49388767D01*
X143089378Y-49388764D01*
X143059842Y-49330795D01*
X143046946Y-49262126D01*
X143073222Y-49197385D01*
X143130329Y-49157128D01*
X143170327Y-49150500D01*
X158679192Y-49150500D01*
X158746231Y-49170185D01*
X158766873Y-49186819D01*
X160313181Y-50733126D01*
X160346666Y-50794449D01*
X160349500Y-50820807D01*
X160349500Y-68564069D01*
X160365503Y-68644517D01*
X160374499Y-68689744D01*
X160420618Y-68801086D01*
X160423535Y-68808127D01*
X160494723Y-68914669D01*
X160494726Y-68914673D01*
X162835325Y-71255272D01*
X162835332Y-71255278D01*
X162934564Y-71321582D01*
X162941874Y-71326466D01*
X163011221Y-71355189D01*
X163060256Y-71375501D01*
X163060259Y-71375501D01*
X163060260Y-71375502D01*
X163185928Y-71400500D01*
X163185931Y-71400500D01*
X163185932Y-71400500D01*
X163314069Y-71400500D01*
X168821408Y-71400500D01*
X168888447Y-71420185D01*
X168931893Y-71468205D01*
X168966657Y-71536433D01*
X169105483Y-71727510D01*
X169272490Y-71894517D01*
X169463567Y-72033343D01*
X169562991Y-72084002D01*
X169674003Y-72140566D01*
X169674005Y-72140566D01*
X169674008Y-72140568D01*
X169794412Y-72179689D01*
X169898631Y-72213553D01*
X170131903Y-72250500D01*
X170131908Y-72250500D01*
X170368097Y-72250500D01*
X170601368Y-72213553D01*
X170602870Y-72213065D01*
X170825992Y-72140568D01*
X171036433Y-72033343D01*
X171227510Y-71894517D01*
X171394517Y-71727510D01*
X171533343Y-71536433D01*
X171636630Y-71333719D01*
X171640566Y-71325996D01*
X171640566Y-71325995D01*
X171640568Y-71325992D01*
X171713553Y-71101368D01*
X171727769Y-71011610D01*
X171750500Y-70868097D01*
X171750500Y-70631947D01*
X173250000Y-70631947D01*
X173250000Y-70868052D01*
X173286934Y-71101247D01*
X173359897Y-71325802D01*
X173467087Y-71536174D01*
X173527338Y-71619104D01*
X173527340Y-71619105D01*
X174226212Y-70920233D01*
X174237482Y-70962292D01*
X174309890Y-71087708D01*
X174412292Y-71190110D01*
X174537708Y-71262518D01*
X174579765Y-71273787D01*
X173880893Y-71972658D01*
X173963828Y-72032914D01*
X174174197Y-72140102D01*
X174398752Y-72213065D01*
X174398751Y-72213065D01*
X174631948Y-72250000D01*
X174868052Y-72250000D01*
X175101247Y-72213065D01*
X175325802Y-72140102D01*
X175536163Y-72032918D01*
X175536169Y-72032914D01*
X175619104Y-71972658D01*
X175619105Y-71972658D01*
X174920233Y-71273787D01*
X174962292Y-71262518D01*
X175087708Y-71190110D01*
X175190110Y-71087708D01*
X175262518Y-70962292D01*
X175273787Y-70920234D01*
X175972658Y-71619105D01*
X175972658Y-71619104D01*
X176032914Y-71536169D01*
X176032918Y-71536163D01*
X176140102Y-71325802D01*
X176213065Y-71101247D01*
X176250000Y-70868052D01*
X176250000Y-70631947D01*
X176213065Y-70398752D01*
X176140102Y-70174197D01*
X176032914Y-69963828D01*
X175972658Y-69880894D01*
X175972658Y-69880893D01*
X175273787Y-70579765D01*
X175262518Y-70537708D01*
X175190110Y-70412292D01*
X175087708Y-70309890D01*
X174962292Y-70237482D01*
X174920234Y-70226212D01*
X175619105Y-69527340D01*
X175619104Y-69527338D01*
X175536174Y-69467087D01*
X175325802Y-69359897D01*
X175101247Y-69286934D01*
X175101248Y-69286934D01*
X174868052Y-69250000D01*
X174631948Y-69250000D01*
X174398752Y-69286934D01*
X174174197Y-69359897D01*
X173963830Y-69467084D01*
X173880894Y-69527340D01*
X174579766Y-70226212D01*
X174537708Y-70237482D01*
X174412292Y-70309890D01*
X174309890Y-70412292D01*
X174237482Y-70537708D01*
X174226212Y-70579765D01*
X173527340Y-69880894D01*
X173467084Y-69963830D01*
X173359897Y-70174197D01*
X173286934Y-70398752D01*
X173250000Y-70631947D01*
X171750500Y-70631947D01*
X171750500Y-70631902D01*
X171713553Y-70398631D01*
X171640566Y-70174003D01*
X171564882Y-70025466D01*
X171533343Y-69963567D01*
X171394517Y-69772490D01*
X171227510Y-69605483D01*
X171036433Y-69466657D01*
X170825996Y-69359433D01*
X170601368Y-69286446D01*
X170368097Y-69249500D01*
X170368092Y-69249500D01*
X170131908Y-69249500D01*
X170131903Y-69249500D01*
X169898631Y-69286446D01*
X169674003Y-69359433D01*
X169463566Y-69466657D01*
X169440928Y-69483105D01*
X169272490Y-69605483D01*
X169272488Y-69605485D01*
X169272487Y-69605485D01*
X169105485Y-69772487D01*
X169105485Y-69772488D01*
X169105483Y-69772490D01*
X169063136Y-69830776D01*
X168966657Y-69963566D01*
X168931893Y-70031795D01*
X168883918Y-70082591D01*
X168821408Y-70099500D01*
X163570808Y-70099500D01*
X163503769Y-70079815D01*
X163483127Y-70063181D01*
X161686819Y-68266873D01*
X161653334Y-68205550D01*
X161650500Y-68179192D01*
X161650500Y-67381902D01*
X168749500Y-67381902D01*
X168749500Y-67618097D01*
X168786446Y-67851368D01*
X168859433Y-68075996D01*
X168925445Y-68205550D01*
X168966657Y-68286433D01*
X169105483Y-68477510D01*
X169272490Y-68644517D01*
X169463567Y-68783343D01*
X169562991Y-68834002D01*
X169674003Y-68890566D01*
X169674005Y-68890566D01*
X169674008Y-68890568D01*
X169794412Y-68929689D01*
X169898631Y-68963553D01*
X170131903Y-69000500D01*
X170131908Y-69000500D01*
X170368097Y-69000500D01*
X170601368Y-68963553D01*
X170655147Y-68946079D01*
X170825992Y-68890568D01*
X171036433Y-68783343D01*
X171227510Y-68644517D01*
X171394517Y-68477510D01*
X171533343Y-68286433D01*
X171640568Y-68075992D01*
X171713553Y-67851368D01*
X171722671Y-67793797D01*
X171750500Y-67618097D01*
X171750500Y-67381947D01*
X173250000Y-67381947D01*
X173250000Y-67618052D01*
X173286934Y-67851247D01*
X173359897Y-68075802D01*
X173467087Y-68286174D01*
X173527338Y-68369104D01*
X173527340Y-68369105D01*
X174226212Y-67670233D01*
X174237482Y-67712292D01*
X174309890Y-67837708D01*
X174412292Y-67940110D01*
X174537708Y-68012518D01*
X174579765Y-68023787D01*
X173880893Y-68722658D01*
X173963828Y-68782914D01*
X174174197Y-68890102D01*
X174398752Y-68963065D01*
X174398751Y-68963065D01*
X174631948Y-69000000D01*
X174868052Y-69000000D01*
X175101247Y-68963065D01*
X175325802Y-68890102D01*
X175536163Y-68782918D01*
X175536169Y-68782914D01*
X175619104Y-68722658D01*
X175619105Y-68722658D01*
X174920233Y-68023787D01*
X174962292Y-68012518D01*
X175087708Y-67940110D01*
X175190110Y-67837708D01*
X175262518Y-67712292D01*
X175273787Y-67670234D01*
X175972658Y-68369105D01*
X175972658Y-68369104D01*
X176032914Y-68286169D01*
X176032918Y-68286163D01*
X176140102Y-68075802D01*
X176213065Y-67851247D01*
X176250000Y-67618052D01*
X176250000Y-67381947D01*
X176213065Y-67148752D01*
X176140102Y-66924197D01*
X176032914Y-66713828D01*
X175972658Y-66630894D01*
X175972658Y-66630893D01*
X175273787Y-67329765D01*
X175262518Y-67287708D01*
X175190110Y-67162292D01*
X175087708Y-67059890D01*
X174962292Y-66987482D01*
X174920234Y-66976212D01*
X175619105Y-66277340D01*
X175619104Y-66277338D01*
X175536174Y-66217087D01*
X175325802Y-66109897D01*
X175101247Y-66036934D01*
X175101248Y-66036934D01*
X174868052Y-66000000D01*
X174631948Y-66000000D01*
X174398752Y-66036934D01*
X174174197Y-66109897D01*
X173963830Y-66217084D01*
X173880894Y-66277340D01*
X174579766Y-66976212D01*
X174537708Y-66987482D01*
X174412292Y-67059890D01*
X174309890Y-67162292D01*
X174237482Y-67287708D01*
X174226212Y-67329765D01*
X173527340Y-66630894D01*
X173467084Y-66713830D01*
X173359897Y-66924197D01*
X173286934Y-67148752D01*
X173250000Y-67381947D01*
X171750500Y-67381947D01*
X171750500Y-67381902D01*
X171713553Y-67148631D01*
X171640566Y-66924003D01*
X171533477Y-66713830D01*
X171533343Y-66713567D01*
X171394517Y-66522490D01*
X171227510Y-66355483D01*
X171036433Y-66216657D01*
X170825996Y-66109433D01*
X170601368Y-66036446D01*
X170368097Y-65999500D01*
X170368092Y-65999500D01*
X170131908Y-65999500D01*
X170131903Y-65999500D01*
X169898631Y-66036446D01*
X169674003Y-66109433D01*
X169463566Y-66216657D01*
X169380047Y-66277338D01*
X169272490Y-66355483D01*
X169272488Y-66355485D01*
X169272487Y-66355485D01*
X169105485Y-66522487D01*
X169105485Y-66522488D01*
X169105483Y-66522490D01*
X169045862Y-66604550D01*
X168966657Y-66713566D01*
X168859433Y-66924003D01*
X168786446Y-67148631D01*
X168749500Y-67381902D01*
X161650500Y-67381902D01*
X161650500Y-60369808D01*
X161670185Y-60302769D01*
X161722989Y-60257014D01*
X161792147Y-60247070D01*
X161855703Y-60276095D01*
X161862181Y-60282127D01*
X163085326Y-61505273D01*
X163085334Y-61505279D01*
X163161673Y-61556287D01*
X163181851Y-61569768D01*
X163191873Y-61576465D01*
X163310256Y-61625501D01*
X163310260Y-61625501D01*
X163310261Y-61625502D01*
X163435928Y-61650500D01*
X163435931Y-61650500D01*
X168821408Y-61650500D01*
X168888447Y-61670185D01*
X168931893Y-61718205D01*
X168966657Y-61786433D01*
X169105483Y-61977510D01*
X169272490Y-62144517D01*
X169463567Y-62283343D01*
X169554717Y-62329786D01*
X169674003Y-62390566D01*
X169674005Y-62390566D01*
X169674008Y-62390568D01*
X169768139Y-62421153D01*
X169898631Y-62463553D01*
X170131903Y-62500500D01*
X170131908Y-62500500D01*
X170368097Y-62500500D01*
X170601368Y-62463553D01*
X170642744Y-62450109D01*
X170825992Y-62390568D01*
X171036433Y-62283343D01*
X171227510Y-62144517D01*
X171394517Y-61977510D01*
X171533343Y-61786433D01*
X171640568Y-61575992D01*
X171713553Y-61351368D01*
X171719517Y-61313713D01*
X171750500Y-61118097D01*
X171750500Y-60881947D01*
X173250000Y-60881947D01*
X173250000Y-61118052D01*
X173286934Y-61351247D01*
X173359897Y-61575802D01*
X173467087Y-61786174D01*
X173527338Y-61869104D01*
X173527340Y-61869105D01*
X174226212Y-61170233D01*
X174237482Y-61212292D01*
X174309890Y-61337708D01*
X174412292Y-61440110D01*
X174537708Y-61512518D01*
X174579765Y-61523787D01*
X173880893Y-62222658D01*
X173963828Y-62282914D01*
X174174197Y-62390102D01*
X174398752Y-62463065D01*
X174398751Y-62463065D01*
X174631948Y-62500000D01*
X174868052Y-62500000D01*
X175101247Y-62463065D01*
X175325802Y-62390102D01*
X175536163Y-62282918D01*
X175536169Y-62282914D01*
X175619104Y-62222658D01*
X175619105Y-62222658D01*
X174920233Y-61523787D01*
X174962292Y-61512518D01*
X175087708Y-61440110D01*
X175190110Y-61337708D01*
X175262518Y-61212292D01*
X175273787Y-61170233D01*
X175972658Y-61869105D01*
X175972658Y-61869104D01*
X176032914Y-61786169D01*
X176032918Y-61786163D01*
X176140102Y-61575802D01*
X176213065Y-61351247D01*
X176250000Y-61118052D01*
X176250000Y-60881947D01*
X176213065Y-60648752D01*
X176140102Y-60424197D01*
X176032914Y-60213828D01*
X175972658Y-60130894D01*
X175972658Y-60130893D01*
X175273787Y-60829765D01*
X175262518Y-60787708D01*
X175190110Y-60662292D01*
X175087708Y-60559890D01*
X174962292Y-60487482D01*
X174920234Y-60476212D01*
X175619105Y-59777340D01*
X175619104Y-59777338D01*
X175536174Y-59717087D01*
X175325802Y-59609897D01*
X175101247Y-59536934D01*
X175101248Y-59536934D01*
X174868052Y-59500000D01*
X174631948Y-59500000D01*
X174398752Y-59536934D01*
X174174197Y-59609897D01*
X173963830Y-59717084D01*
X173880894Y-59777340D01*
X174579766Y-60476212D01*
X174537708Y-60487482D01*
X174412292Y-60559890D01*
X174309890Y-60662292D01*
X174237482Y-60787708D01*
X174226212Y-60829765D01*
X173527340Y-60130894D01*
X173467084Y-60213830D01*
X173359897Y-60424197D01*
X173286934Y-60648752D01*
X173250000Y-60881947D01*
X171750500Y-60881947D01*
X171750500Y-60881902D01*
X171713553Y-60648631D01*
X171640566Y-60424003D01*
X171567161Y-60279939D01*
X171533343Y-60213567D01*
X171394517Y-60022490D01*
X171227510Y-59855483D01*
X171036433Y-59716657D01*
X171009231Y-59702797D01*
X170825996Y-59609433D01*
X170601368Y-59536446D01*
X170368097Y-59499500D01*
X170368092Y-59499500D01*
X170131908Y-59499500D01*
X170131903Y-59499500D01*
X169898631Y-59536446D01*
X169674003Y-59609433D01*
X169463566Y-59716657D01*
X169403345Y-59760411D01*
X169272490Y-59855483D01*
X169272488Y-59855485D01*
X169272487Y-59855485D01*
X169105485Y-60022487D01*
X169105485Y-60022488D01*
X169105483Y-60022490D01*
X169093113Y-60039516D01*
X168966657Y-60213566D01*
X168931893Y-60281795D01*
X168883918Y-60332591D01*
X168821408Y-60349500D01*
X163820808Y-60349500D01*
X163753769Y-60329815D01*
X163733127Y-60313181D01*
X162686819Y-59266873D01*
X162653334Y-59205550D01*
X162650500Y-59179192D01*
X162650500Y-57631902D01*
X168749500Y-57631902D01*
X168749500Y-57868097D01*
X168786446Y-58101368D01*
X168859433Y-58325996D01*
X168919927Y-58444721D01*
X168966657Y-58536433D01*
X169105483Y-58727510D01*
X169272490Y-58894517D01*
X169463567Y-59033343D01*
X169562991Y-59084002D01*
X169674003Y-59140566D01*
X169674005Y-59140566D01*
X169674008Y-59140568D01*
X169792880Y-59179192D01*
X169898631Y-59213553D01*
X170131903Y-59250500D01*
X170131908Y-59250500D01*
X170368097Y-59250500D01*
X170601368Y-59213553D01*
X170602870Y-59213065D01*
X170825992Y-59140568D01*
X171036433Y-59033343D01*
X171227510Y-58894517D01*
X171394517Y-58727510D01*
X171533343Y-58536433D01*
X171640568Y-58325992D01*
X171713553Y-58101368D01*
X171724751Y-58030666D01*
X171750500Y-57868097D01*
X171750500Y-57631947D01*
X173250000Y-57631947D01*
X173250000Y-57868052D01*
X173286934Y-58101247D01*
X173359897Y-58325802D01*
X173467087Y-58536174D01*
X173527338Y-58619104D01*
X173527340Y-58619105D01*
X174226212Y-57920233D01*
X174237482Y-57962292D01*
X174309890Y-58087708D01*
X174412292Y-58190110D01*
X174537708Y-58262518D01*
X174579765Y-58273787D01*
X173880893Y-58972658D01*
X173963828Y-59032914D01*
X174174197Y-59140102D01*
X174398752Y-59213065D01*
X174398751Y-59213065D01*
X174631948Y-59250000D01*
X174868052Y-59250000D01*
X175101247Y-59213065D01*
X175325802Y-59140102D01*
X175536163Y-59032918D01*
X175536169Y-59032914D01*
X175619104Y-58972658D01*
X175619105Y-58972658D01*
X174920233Y-58273787D01*
X174962292Y-58262518D01*
X175087708Y-58190110D01*
X175190110Y-58087708D01*
X175262518Y-57962292D01*
X175273787Y-57920233D01*
X175972658Y-58619105D01*
X175972658Y-58619104D01*
X176032914Y-58536169D01*
X176032918Y-58536163D01*
X176140102Y-58325802D01*
X176213065Y-58101247D01*
X176250000Y-57868052D01*
X176250000Y-57631947D01*
X176213065Y-57398752D01*
X176140102Y-57174197D01*
X176032914Y-56963828D01*
X175972658Y-56880894D01*
X175972658Y-56880893D01*
X175273787Y-57579765D01*
X175262518Y-57537708D01*
X175190110Y-57412292D01*
X175087708Y-57309890D01*
X174962292Y-57237482D01*
X174920234Y-57226212D01*
X175619105Y-56527340D01*
X175619104Y-56527338D01*
X175536174Y-56467087D01*
X175325802Y-56359897D01*
X175101247Y-56286934D01*
X175101248Y-56286934D01*
X174868052Y-56250000D01*
X174631948Y-56250000D01*
X174398752Y-56286934D01*
X174174197Y-56359897D01*
X173963830Y-56467084D01*
X173880894Y-56527340D01*
X174579766Y-57226212D01*
X174537708Y-57237482D01*
X174412292Y-57309890D01*
X174309890Y-57412292D01*
X174237482Y-57537708D01*
X174226212Y-57579765D01*
X173527340Y-56880894D01*
X173467084Y-56963830D01*
X173359897Y-57174197D01*
X173286934Y-57398752D01*
X173250000Y-57631947D01*
X171750500Y-57631947D01*
X171750500Y-57631902D01*
X171713553Y-57398631D01*
X171640566Y-57174003D01*
X171533477Y-56963830D01*
X171533343Y-56963567D01*
X171394517Y-56772490D01*
X171227510Y-56605483D01*
X171036433Y-56466657D01*
X170825996Y-56359433D01*
X170601368Y-56286446D01*
X170368097Y-56249500D01*
X170368092Y-56249500D01*
X170131908Y-56249500D01*
X170131903Y-56249500D01*
X169898631Y-56286446D01*
X169674003Y-56359433D01*
X169463566Y-56466657D01*
X169380047Y-56527338D01*
X169272490Y-56605483D01*
X169272488Y-56605485D01*
X169272487Y-56605485D01*
X169105485Y-56772487D01*
X169105485Y-56772488D01*
X169105483Y-56772490D01*
X169045862Y-56854550D01*
X168966657Y-56963566D01*
X168859433Y-57174003D01*
X168786446Y-57398631D01*
X168749500Y-57631902D01*
X162650500Y-57631902D01*
X162650500Y-51863763D01*
X162653363Y-51854011D01*
X162652097Y-51843927D01*
X162663041Y-51821051D01*
X162670185Y-51796724D01*
X162677865Y-51790069D01*
X162682252Y-51780900D01*
X162703828Y-51767572D01*
X162722989Y-51750969D01*
X162733047Y-51749522D01*
X162741695Y-51744181D01*
X162767047Y-51744633D01*
X162792147Y-51741025D01*
X162803253Y-51745280D01*
X162811554Y-51745429D01*
X162843385Y-51760658D01*
X162897362Y-51796724D01*
X162927782Y-51817050D01*
X162927783Y-51817051D01*
X162941864Y-51826460D01*
X162941872Y-51826464D01*
X162941873Y-51826465D01*
X163060256Y-51875501D01*
X163060260Y-51875501D01*
X163060261Y-51875502D01*
X163185928Y-51900500D01*
X163185931Y-51900500D01*
X168821408Y-51900500D01*
X168888447Y-51920185D01*
X168931893Y-51968205D01*
X168966657Y-52036433D01*
X169105483Y-52227510D01*
X169272490Y-52394517D01*
X169463567Y-52533343D01*
X169521517Y-52562870D01*
X169674003Y-52640566D01*
X169674005Y-52640566D01*
X169674008Y-52640568D01*
X169794412Y-52679689D01*
X169898631Y-52713553D01*
X170131903Y-52750500D01*
X170131908Y-52750500D01*
X170368097Y-52750500D01*
X170601368Y-52713553D01*
X170602870Y-52713065D01*
X170825992Y-52640568D01*
X171036433Y-52533343D01*
X171227510Y-52394517D01*
X171394517Y-52227510D01*
X171533343Y-52036433D01*
X171636630Y-51833719D01*
X171640566Y-51825996D01*
X171640566Y-51825995D01*
X171640568Y-51825992D01*
X171713553Y-51601368D01*
X171721248Y-51552786D01*
X171750500Y-51368097D01*
X171750500Y-51131947D01*
X173250000Y-51131947D01*
X173250000Y-51368052D01*
X173286934Y-51601247D01*
X173359897Y-51825802D01*
X173467087Y-52036174D01*
X173527338Y-52119104D01*
X173527340Y-52119105D01*
X174226212Y-51420233D01*
X174237482Y-51462292D01*
X174309890Y-51587708D01*
X174412292Y-51690110D01*
X174537708Y-51762518D01*
X174579765Y-51773787D01*
X173880893Y-52472658D01*
X173963828Y-52532914D01*
X174174197Y-52640102D01*
X174398752Y-52713065D01*
X174398751Y-52713065D01*
X174631948Y-52750000D01*
X174868052Y-52750000D01*
X175101247Y-52713065D01*
X175325802Y-52640102D01*
X175536163Y-52532918D01*
X175536169Y-52532914D01*
X175619104Y-52472658D01*
X175619105Y-52472658D01*
X174920233Y-51773787D01*
X174962292Y-51762518D01*
X175087708Y-51690110D01*
X175190110Y-51587708D01*
X175262518Y-51462292D01*
X175273787Y-51420233D01*
X175972658Y-52119105D01*
X175972658Y-52119104D01*
X176032914Y-52036169D01*
X176032918Y-52036163D01*
X176140102Y-51825802D01*
X176213065Y-51601247D01*
X176250000Y-51368052D01*
X176250000Y-51131947D01*
X176213065Y-50898752D01*
X176140102Y-50674197D01*
X176032914Y-50463828D01*
X175972658Y-50380894D01*
X175972658Y-50380893D01*
X175273787Y-51079765D01*
X175262518Y-51037708D01*
X175190110Y-50912292D01*
X175087708Y-50809890D01*
X174962292Y-50737482D01*
X174920234Y-50726212D01*
X175619105Y-50027340D01*
X175619104Y-50027338D01*
X175536174Y-49967087D01*
X175325802Y-49859897D01*
X175101247Y-49786934D01*
X175101248Y-49786934D01*
X174868052Y-49750000D01*
X174631948Y-49750000D01*
X174398752Y-49786934D01*
X174174197Y-49859897D01*
X173963830Y-49967084D01*
X173880894Y-50027340D01*
X174579766Y-50726212D01*
X174537708Y-50737482D01*
X174412292Y-50809890D01*
X174309890Y-50912292D01*
X174237482Y-51037708D01*
X174226212Y-51079765D01*
X173527340Y-50380894D01*
X173467084Y-50463830D01*
X173359897Y-50674197D01*
X173286934Y-50898752D01*
X173250000Y-51131947D01*
X171750500Y-51131947D01*
X171750500Y-51131902D01*
X171713553Y-50898631D01*
X171661192Y-50737482D01*
X171640568Y-50674008D01*
X171640566Y-50674005D01*
X171640566Y-50674003D01*
X171565669Y-50527011D01*
X171533343Y-50463567D01*
X171394517Y-50272490D01*
X171227510Y-50105483D01*
X171036433Y-49966657D01*
X170969422Y-49932513D01*
X170825996Y-49859433D01*
X170601368Y-49786446D01*
X170368097Y-49749500D01*
X170368092Y-49749500D01*
X170131908Y-49749500D01*
X170131903Y-49749500D01*
X169898631Y-49786446D01*
X169674003Y-49859433D01*
X169463566Y-49966657D01*
X169417674Y-50000000D01*
X169272490Y-50105483D01*
X169272488Y-50105485D01*
X169272487Y-50105485D01*
X169105485Y-50272487D01*
X169105485Y-50272488D01*
X169105483Y-50272490D01*
X169050930Y-50347575D01*
X168966657Y-50463566D01*
X168931893Y-50531795D01*
X168883918Y-50582591D01*
X168821408Y-50599500D01*
X163774500Y-50599500D01*
X163707461Y-50579815D01*
X163661706Y-50527011D01*
X163650500Y-50475500D01*
X163650500Y-49435928D01*
X163625502Y-49310261D01*
X163625501Y-49310260D01*
X163625501Y-49310256D01*
X163576465Y-49191873D01*
X163505277Y-49085331D01*
X163505275Y-49085329D01*
X163505273Y-49085326D01*
X160414673Y-45994726D01*
X160414669Y-45994723D01*
X160308127Y-45923535D01*
X160189744Y-45874499D01*
X160189738Y-45874497D01*
X160064071Y-45849500D01*
X160064069Y-45849500D01*
X127935931Y-45849500D01*
X127935929Y-45849500D01*
X127810261Y-45874497D01*
X127810255Y-45874499D01*
X127691874Y-45923534D01*
X127585326Y-45994726D01*
X123444724Y-50135328D01*
X123374879Y-50239859D01*
X123374880Y-50239860D01*
X123373535Y-50241872D01*
X123324499Y-50360255D01*
X123324497Y-50360261D01*
X123299500Y-50485928D01*
X123299500Y-53891928D01*
X123279815Y-53958967D01*
X123248385Y-53992246D01*
X123102787Y-54098028D01*
X123102782Y-54098032D01*
X122958028Y-54242786D01*
X122837715Y-54408386D01*
X122790485Y-54501080D01*
X122742510Y-54551876D01*
X122674689Y-54568671D01*
X122608554Y-54546134D01*
X122569515Y-54501080D01*
X122522419Y-54408650D01*
X122522287Y-54408390D01*
X122460858Y-54323839D01*
X122401971Y-54242786D01*
X122257213Y-54098028D01*
X122091613Y-53977715D01*
X122091612Y-53977714D01*
X122091610Y-53977713D01*
X122011542Y-53936916D01*
X121909223Y-53884781D01*
X121714534Y-53821522D01*
X121539995Y-53793878D01*
X121512352Y-53789500D01*
X121307648Y-53789500D01*
X121283329Y-53793351D01*
X121105465Y-53821522D01*
X120910776Y-53884781D01*
X120728386Y-53977715D01*
X120562786Y-54098028D01*
X120418028Y-54242786D01*
X120297715Y-54408386D01*
X120250485Y-54501080D01*
X120202510Y-54551876D01*
X120134689Y-54568671D01*
X120068554Y-54546134D01*
X120029515Y-54501080D01*
X119982419Y-54408650D01*
X119982287Y-54408390D01*
X119920858Y-54323839D01*
X119861971Y-54242786D01*
X119717213Y-54098028D01*
X119551613Y-53977715D01*
X119551612Y-53977714D01*
X119551610Y-53977713D01*
X119471542Y-53936916D01*
X119369223Y-53884781D01*
X119174534Y-53821522D01*
X118999995Y-53793878D01*
X118972352Y-53789500D01*
X118767648Y-53789500D01*
X118743329Y-53793351D01*
X118565465Y-53821522D01*
X118370776Y-53884781D01*
X118188386Y-53977715D01*
X118022786Y-54098028D01*
X117878028Y-54242786D01*
X117757715Y-54408386D01*
X117710485Y-54501080D01*
X117662510Y-54551876D01*
X117594689Y-54568671D01*
X117528554Y-54546134D01*
X117489515Y-54501080D01*
X117442419Y-54408650D01*
X117442287Y-54408390D01*
X117380858Y-54323839D01*
X117321971Y-54242786D01*
X117177213Y-54098028D01*
X117011613Y-53977715D01*
X117011612Y-53977714D01*
X117011610Y-53977713D01*
X116931542Y-53936916D01*
X116829223Y-53884781D01*
X116634534Y-53821522D01*
X116459995Y-53793878D01*
X116432352Y-53789500D01*
X116227648Y-53789500D01*
X116203329Y-53793351D01*
X116025465Y-53821522D01*
X115830776Y-53884781D01*
X115648386Y-53977715D01*
X115482786Y-54098028D01*
X115338028Y-54242786D01*
X115217715Y-54408386D01*
X115170485Y-54501080D01*
X115122510Y-54551876D01*
X115054689Y-54568671D01*
X114988554Y-54546134D01*
X114949515Y-54501080D01*
X114902419Y-54408650D01*
X114902287Y-54408390D01*
X114840858Y-54323839D01*
X114781971Y-54242786D01*
X114637217Y-54098032D01*
X114637212Y-54098028D01*
X114491615Y-53992246D01*
X114448949Y-53936916D01*
X114440500Y-53891928D01*
X114440500Y-47530807D01*
X114460185Y-47463768D01*
X114476819Y-47443126D01*
X117255273Y-44664672D01*
X117255276Y-44664669D01*
X117326465Y-44558127D01*
X117375501Y-44439744D01*
X117381790Y-44408127D01*
X117383506Y-44399502D01*
X117383506Y-44399499D01*
X117400500Y-44314069D01*
X117400500Y-42508070D01*
X117420185Y-42441031D01*
X117451613Y-42407753D01*
X117597219Y-42301966D01*
X117741966Y-42157219D01*
X117847753Y-42011613D01*
X117903082Y-41968949D01*
X117948071Y-41960500D01*
X120754071Y-41960500D01*
X120838615Y-41943682D01*
X120879744Y-41935501D01*
X120998127Y-41886465D01*
X121008551Y-41879500D01*
X121104669Y-41815277D01*
X121533127Y-41386817D01*
X121594450Y-41353333D01*
X121620808Y-41350499D01*
X122775002Y-41350499D01*
X122775008Y-41350499D01*
X122877797Y-41339999D01*
X123044334Y-41284814D01*
X123193656Y-41192712D01*
X123317712Y-41068656D01*
X123409814Y-40919334D01*
X123464999Y-40752797D01*
X123465000Y-40752792D01*
X123465912Y-40748533D01*
X123499199Y-40687102D01*
X123560414Y-40653419D01*
X123587163Y-40650500D01*
X127662837Y-40650500D01*
X127729876Y-40670185D01*
X127775631Y-40722989D01*
X127784089Y-40748541D01*
X127784999Y-40752792D01*
X127785001Y-40752797D01*
X127840186Y-40919334D01*
X127932288Y-41068656D01*
X128056344Y-41192712D01*
X128205666Y-41284814D01*
X128372203Y-41339999D01*
X128474991Y-41350500D01*
X130025008Y-41350499D01*
X130127797Y-41339999D01*
X130294334Y-41284814D01*
X130443656Y-41192712D01*
X130567712Y-41068656D01*
X130659814Y-40919334D01*
X130714999Y-40752797D01*
X130715000Y-40752792D01*
X130715912Y-40748533D01*
X130749199Y-40687102D01*
X130810414Y-40653419D01*
X130837163Y-40650500D01*
X134712837Y-40650500D01*
X134779876Y-40670185D01*
X134825631Y-40722989D01*
X134834089Y-40748541D01*
X134834999Y-40752792D01*
X134835001Y-40752797D01*
X134890186Y-40919334D01*
X134982288Y-41068656D01*
X135106344Y-41192712D01*
X135255666Y-41284814D01*
X135422203Y-41339999D01*
X135524991Y-41350500D01*
X137075008Y-41350499D01*
X137177797Y-41339999D01*
X137344334Y-41284814D01*
X137493656Y-41192712D01*
X137617712Y-41068656D01*
X137709814Y-40919334D01*
X137764999Y-40752797D01*
X137765000Y-40752792D01*
X137765912Y-40748533D01*
X137799199Y-40687102D01*
X137860414Y-40653419D01*
X137887163Y-40650500D01*
X141912837Y-40650500D01*
X141979876Y-40670185D01*
X142025631Y-40722989D01*
X142034089Y-40748541D01*
X142034999Y-40752792D01*
X142035001Y-40752797D01*
X142090186Y-40919334D01*
X142182288Y-41068656D01*
X142306344Y-41192712D01*
X142455666Y-41284814D01*
X142622203Y-41339999D01*
X142724991Y-41350500D01*
X144275008Y-41350499D01*
X144377797Y-41339999D01*
X144544334Y-41284814D01*
X144693656Y-41192712D01*
X144817712Y-41068656D01*
X144909814Y-40919334D01*
X144964999Y-40752797D01*
X144965000Y-40752792D01*
X144965912Y-40748533D01*
X144999199Y-40687102D01*
X145060414Y-40653419D01*
X145087163Y-40650500D01*
X148887837Y-40650500D01*
X148954876Y-40670185D01*
X149000631Y-40722989D01*
X149009089Y-40748541D01*
X149009999Y-40752792D01*
X149010001Y-40752797D01*
X149065186Y-40919334D01*
X149157288Y-41068656D01*
X149281344Y-41192712D01*
X149430666Y-41284814D01*
X149597203Y-41339999D01*
X149699991Y-41350500D01*
X151250008Y-41350499D01*
X151352797Y-41339999D01*
X151519334Y-41284814D01*
X151668656Y-41192712D01*
X151792712Y-41068656D01*
X151884814Y-40919334D01*
X151939999Y-40752797D01*
X151940000Y-40752792D01*
X151940912Y-40748533D01*
X151974199Y-40687102D01*
X152035414Y-40653419D01*
X152062163Y-40650500D01*
X156162837Y-40650500D01*
X156229876Y-40670185D01*
X156275631Y-40722989D01*
X156284089Y-40748541D01*
X156284999Y-40752792D01*
X156285001Y-40752797D01*
X156340186Y-40919334D01*
X156432288Y-41068656D01*
X156556344Y-41192712D01*
X156705666Y-41284814D01*
X156872203Y-41339999D01*
X156974991Y-41350500D01*
X158525008Y-41350499D01*
X158627797Y-41339999D01*
X158794334Y-41284814D01*
X158943656Y-41192712D01*
X159067712Y-41068656D01*
X159159814Y-40919334D01*
X159214999Y-40752797D01*
X159215000Y-40752792D01*
X159215912Y-40748533D01*
X159249199Y-40687102D01*
X159310414Y-40653419D01*
X159337163Y-40650500D01*
X163412837Y-40650500D01*
X163479876Y-40670185D01*
X163525631Y-40722989D01*
X163534089Y-40748541D01*
X163534999Y-40752792D01*
X163535001Y-40752797D01*
X163590186Y-40919334D01*
X163682288Y-41068656D01*
X163806344Y-41192712D01*
X163955666Y-41284814D01*
X164122203Y-41339999D01*
X164224991Y-41350500D01*
X165775008Y-41350499D01*
X165877797Y-41339999D01*
X166044334Y-41284814D01*
X166193656Y-41192712D01*
X166317712Y-41068656D01*
X166409814Y-40919334D01*
X166464999Y-40752797D01*
X166465000Y-40752792D01*
X166465912Y-40748533D01*
X166499199Y-40687102D01*
X166560414Y-40653419D01*
X166587163Y-40650500D01*
X167179192Y-40650500D01*
X167246231Y-40670185D01*
X167266873Y-40686819D01*
X170988181Y-44408127D01*
X171021666Y-44469450D01*
X171024500Y-44495808D01*
X171024500Y-45650001D01*
X171024501Y-45650018D01*
X171035000Y-45752796D01*
X171035001Y-45752799D01*
X171090185Y-45919331D01*
X171090187Y-45919336D01*
X171125069Y-45975888D01*
X171182288Y-46068656D01*
X171306344Y-46192712D01*
X171455666Y-46284814D01*
X171622203Y-46339999D01*
X171724991Y-46350500D01*
X173275008Y-46350499D01*
X173377797Y-46339999D01*
X173544334Y-46284814D01*
X173693656Y-46192712D01*
X173817712Y-46068656D01*
X173909814Y-45919334D01*
X173964999Y-45752797D01*
X173975500Y-45650009D01*
X173975499Y-44349992D01*
X173971829Y-44314069D01*
X173964999Y-44247203D01*
X173964998Y-44247200D01*
X173932789Y-44150000D01*
X173909814Y-44080666D01*
X173817712Y-43931344D01*
X173693656Y-43807288D01*
X173544334Y-43715186D01*
X173544332Y-43715185D01*
X173538440Y-43711551D01*
X173491716Y-43659603D01*
X173480493Y-43590641D01*
X173508337Y-43526558D01*
X173515856Y-43518330D01*
X173654728Y-43379458D01*
X173779620Y-43207557D01*
X173876095Y-43018217D01*
X173941757Y-42816129D01*
X173941757Y-42816126D01*
X173952231Y-42750000D01*
X172904146Y-42750000D01*
X172942630Y-42683343D01*
X172975000Y-42562535D01*
X172975000Y-42437465D01*
X172942630Y-42316657D01*
X172904146Y-42250000D01*
X173952231Y-42250000D01*
X173941757Y-42183873D01*
X173941757Y-42183870D01*
X173876095Y-41981782D01*
X173779620Y-41792442D01*
X173654727Y-41620540D01*
X173654723Y-41620535D01*
X173504464Y-41470276D01*
X173504459Y-41470272D01*
X173339781Y-41350627D01*
X173297115Y-41295297D01*
X173291136Y-41225684D01*
X173323741Y-41163889D01*
X173339776Y-41149994D01*
X173504792Y-41030104D01*
X173655104Y-40879792D01*
X173655106Y-40879788D01*
X173655109Y-40879786D01*
X173780048Y-40707820D01*
X173780047Y-40707820D01*
X173780051Y-40707816D01*
X173876557Y-40518412D01*
X173942246Y-40316243D01*
X173975500Y-40106287D01*
X173975500Y-39893713D01*
X173942246Y-39683757D01*
X173876557Y-39481588D01*
X173780051Y-39292184D01*
X173780049Y-39292181D01*
X173780048Y-39292179D01*
X173655109Y-39120213D01*
X173504786Y-38969890D01*
X173332820Y-38844951D01*
X173143414Y-38748444D01*
X173143413Y-38748443D01*
X173143412Y-38748443D01*
X172941243Y-38682754D01*
X172941241Y-38682753D01*
X172941240Y-38682753D01*
X172766334Y-38655051D01*
X172731287Y-38649500D01*
X172268713Y-38649500D01*
X172263841Y-38649500D01*
X172263841Y-38647514D01*
X172203657Y-38634848D01*
X172174666Y-38613298D01*
X167998333Y-34436964D01*
X167978421Y-34417052D01*
X167978414Y-34417046D01*
X167904729Y-34367812D01*
X167904729Y-34367813D01*
X167882196Y-34352757D01*
X171256860Y-34352757D01*
X171256860Y-34647242D01*
X171289829Y-34939850D01*
X171289831Y-34939866D01*
X171355357Y-35226955D01*
X171355361Y-35226967D01*
X171452615Y-35504901D01*
X171452624Y-35504923D01*
X171580382Y-35770216D01*
X171621400Y-35835496D01*
X171737057Y-36019562D01*
X171920660Y-36249793D01*
X172128887Y-36458020D01*
X172359118Y-36641623D01*
X172598726Y-36792179D01*
X172608463Y-36798297D01*
X172873756Y-36926055D01*
X172873765Y-36926058D01*
X172873772Y-36926062D01*
X172873778Y-36926064D01*
X173151712Y-37023318D01*
X173151724Y-37023322D01*
X173438817Y-37088849D01*
X173731438Y-37121819D01*
X173731439Y-37121820D01*
X173731442Y-37121820D01*
X174025921Y-37121820D01*
X174025921Y-37121819D01*
X174318543Y-37088849D01*
X174605636Y-37023322D01*
X174883588Y-36926062D01*
X174893772Y-36921158D01*
X175148896Y-36798297D01*
X175148896Y-36798296D01*
X175148902Y-36798294D01*
X175398242Y-36641623D01*
X175628473Y-36458020D01*
X175836700Y-36249793D01*
X176020303Y-36019562D01*
X176176974Y-35770222D01*
X176182403Y-35758949D01*
X176304735Y-35504923D01*
X176304736Y-35504919D01*
X176304742Y-35504908D01*
X176402002Y-35226956D01*
X176467529Y-34939863D01*
X176500500Y-34647238D01*
X176500500Y-34352762D01*
X176467529Y-34060137D01*
X176402002Y-33773044D01*
X176304742Y-33495092D01*
X176304738Y-33495085D01*
X176304735Y-33495076D01*
X176176977Y-33229783D01*
X176176974Y-33229778D01*
X176020303Y-32980438D01*
X175836700Y-32750207D01*
X175628473Y-32541980D01*
X175398242Y-32358377D01*
X175148902Y-32201706D01*
X175148903Y-32201706D01*
X175148896Y-32201702D01*
X174883603Y-32073944D01*
X174883581Y-32073935D01*
X174605647Y-31976681D01*
X174605635Y-31976677D01*
X174318546Y-31911151D01*
X174318530Y-31911149D01*
X174025922Y-31878180D01*
X174025918Y-31878180D01*
X173731442Y-31878180D01*
X173731437Y-31878180D01*
X173438829Y-31911149D01*
X173438813Y-31911151D01*
X173151724Y-31976677D01*
X173151712Y-31976681D01*
X172873778Y-32073935D01*
X172873756Y-32073944D01*
X172608463Y-32201702D01*
X172359119Y-32358376D01*
X172128887Y-32541979D01*
X171920659Y-32750207D01*
X171737056Y-32980439D01*
X171580382Y-33229783D01*
X171452624Y-33495076D01*
X171452615Y-33495098D01*
X171355361Y-33773032D01*
X171355357Y-33773044D01*
X171289831Y-34060133D01*
X171289829Y-34060149D01*
X171256860Y-34352757D01*
X167882196Y-34352757D01*
X167855491Y-34334913D01*
X167718917Y-34278343D01*
X167718907Y-34278340D01*
X167573920Y-34249500D01*
X167573918Y-34249500D01*
X166312221Y-34249500D01*
X166245182Y-34229815D01*
X166211903Y-34198385D01*
X166155107Y-34120211D01*
X166004786Y-33969890D01*
X165832820Y-33844951D01*
X165643414Y-33748444D01*
X165643413Y-33748443D01*
X165643412Y-33748443D01*
X165441243Y-33682754D01*
X165441241Y-33682753D01*
X165441240Y-33682753D01*
X165279957Y-33657208D01*
X165231287Y-33649500D01*
X164768713Y-33649500D01*
X164720042Y-33657208D01*
X164558760Y-33682753D01*
X164356585Y-33748444D01*
X164167179Y-33844951D01*
X163995213Y-33969890D01*
X163844892Y-34120211D01*
X163788097Y-34198385D01*
X163732767Y-34241051D01*
X163687779Y-34249500D01*
X159062221Y-34249500D01*
X158995182Y-34229815D01*
X158961903Y-34198385D01*
X158905107Y-34120211D01*
X158754786Y-33969890D01*
X158582820Y-33844951D01*
X158393414Y-33748444D01*
X158393413Y-33748443D01*
X158393412Y-33748443D01*
X158191243Y-33682754D01*
X158191241Y-33682753D01*
X158191240Y-33682753D01*
X158029957Y-33657208D01*
X157981287Y-33649500D01*
X157518713Y-33649500D01*
X157470042Y-33657208D01*
X157308760Y-33682753D01*
X157106585Y-33748444D01*
X156917179Y-33844951D01*
X156745213Y-33969890D01*
X156594892Y-34120211D01*
X156538097Y-34198385D01*
X156482767Y-34241051D01*
X156437779Y-34249500D01*
X151787221Y-34249500D01*
X151720182Y-34229815D01*
X151686903Y-34198385D01*
X151630107Y-34120211D01*
X151479786Y-33969890D01*
X151307820Y-33844951D01*
X151118414Y-33748444D01*
X151118413Y-33748443D01*
X151118412Y-33748443D01*
X150916243Y-33682754D01*
X150916241Y-33682753D01*
X150916240Y-33682753D01*
X150754957Y-33657208D01*
X150706287Y-33649500D01*
X150243713Y-33649500D01*
X150195042Y-33657208D01*
X150033760Y-33682753D01*
X149831585Y-33748444D01*
X149642179Y-33844951D01*
X149470213Y-33969890D01*
X149319892Y-34120211D01*
X149263097Y-34198385D01*
X149207767Y-34241051D01*
X149162779Y-34249500D01*
X144812221Y-34249500D01*
X144745182Y-34229815D01*
X144711903Y-34198385D01*
X144655107Y-34120211D01*
X144504786Y-33969890D01*
X144332820Y-33844951D01*
X144143414Y-33748444D01*
X144143413Y-33748443D01*
X144143412Y-33748443D01*
X143941243Y-33682754D01*
X143941241Y-33682753D01*
X143941240Y-33682753D01*
X143779957Y-33657208D01*
X143731287Y-33649500D01*
X143268713Y-33649500D01*
X143220042Y-33657208D01*
X143058760Y-33682753D01*
X142856585Y-33748444D01*
X142667179Y-33844951D01*
X142495213Y-33969890D01*
X142344892Y-34120211D01*
X142288097Y-34198385D01*
X142232767Y-34241051D01*
X142187779Y-34249500D01*
X137612221Y-34249500D01*
X137545182Y-34229815D01*
X137511903Y-34198385D01*
X137455107Y-34120211D01*
X137304786Y-33969890D01*
X137132820Y-33844951D01*
X136943414Y-33748444D01*
X136943413Y-33748443D01*
X136943412Y-33748443D01*
X136741243Y-33682754D01*
X136741241Y-33682753D01*
X136741240Y-33682753D01*
X136579957Y-33657208D01*
X136531287Y-33649500D01*
X136068713Y-33649500D01*
X136020042Y-33657208D01*
X135858760Y-33682753D01*
X135656585Y-33748444D01*
X135467179Y-33844951D01*
X135295213Y-33969890D01*
X135144892Y-34120211D01*
X135088097Y-34198385D01*
X135032767Y-34241051D01*
X134987779Y-34249500D01*
X130562221Y-34249500D01*
X130495182Y-34229815D01*
X130461903Y-34198385D01*
X130405107Y-34120211D01*
X130254786Y-33969890D01*
X130082820Y-33844951D01*
X129893414Y-33748444D01*
X129893413Y-33748443D01*
X129893412Y-33748443D01*
X129691243Y-33682754D01*
X129691241Y-33682753D01*
X129691240Y-33682753D01*
X129529957Y-33657208D01*
X129481287Y-33649500D01*
X129018713Y-33649500D01*
X128970042Y-33657208D01*
X128808760Y-33682753D01*
X128606585Y-33748444D01*
X128417179Y-33844951D01*
X128245213Y-33969890D01*
X128094892Y-34120211D01*
X128038097Y-34198385D01*
X127982767Y-34241051D01*
X127937779Y-34249500D01*
X123312221Y-34249500D01*
X123245182Y-34229815D01*
X123211903Y-34198385D01*
X123155107Y-34120211D01*
X123004786Y-33969890D01*
X122832820Y-33844951D01*
X122643414Y-33748444D01*
X122643413Y-33748443D01*
X122643412Y-33748443D01*
X122441243Y-33682754D01*
X122441241Y-33682753D01*
X122441240Y-33682753D01*
X122279957Y-33657208D01*
X122231287Y-33649500D01*
X121768713Y-33649500D01*
X121763841Y-33649500D01*
X121763841Y-33647514D01*
X121703657Y-33634848D01*
X121674666Y-33613298D01*
X121168421Y-33107052D01*
X121168414Y-33107046D01*
X121094729Y-33057812D01*
X121094729Y-33057813D01*
X121045491Y-33024913D01*
X120908917Y-32968343D01*
X120908907Y-32968340D01*
X120763920Y-32939500D01*
X120763918Y-32939500D01*
X117875418Y-32939500D01*
X117808379Y-32919815D01*
X117775100Y-32888385D01*
X117741971Y-32842787D01*
X117741967Y-32842782D01*
X117597213Y-32698028D01*
X117431613Y-32577715D01*
X117431612Y-32577714D01*
X117431610Y-32577713D01*
X117361478Y-32541979D01*
X117249223Y-32484781D01*
X117054534Y-32421522D01*
X116879995Y-32393878D01*
X116852352Y-32389500D01*
X116647648Y-32389500D01*
X116623329Y-32393351D01*
X116445465Y-32421522D01*
X116250776Y-32484781D01*
X116068386Y-32577715D01*
X115902786Y-32698028D01*
X115758028Y-32842786D01*
X115637715Y-33008386D01*
X115544781Y-33190776D01*
X115481522Y-33385465D01*
X115449500Y-33587648D01*
X115449500Y-33792351D01*
X115481522Y-33994534D01*
X115544781Y-34189223D01*
X115590191Y-34278343D01*
X115635778Y-34367813D01*
X115637715Y-34371613D01*
X115758028Y-34537213D01*
X115902786Y-34681971D01*
X116057749Y-34794556D01*
X116068390Y-34802287D01*
X116155901Y-34846876D01*
X116250776Y-34895218D01*
X116250778Y-34895218D01*
X116250781Y-34895220D01*
X116355137Y-34929127D01*
X116445465Y-34958477D01*
X116546557Y-34974488D01*
X116647648Y-34990500D01*
X116647649Y-34990500D01*
X116852351Y-34990500D01*
X116852352Y-34990500D01*
X117054534Y-34958477D01*
X117249219Y-34895220D01*
X117431610Y-34802287D01*
X117535295Y-34726956D01*
X117597213Y-34681971D01*
X117597215Y-34681968D01*
X117597219Y-34681966D01*
X117741966Y-34537219D01*
X117744650Y-34533524D01*
X117775100Y-34491615D01*
X117830429Y-34448949D01*
X117875418Y-34440500D01*
X120327770Y-34440500D01*
X120357210Y-34449144D01*
X120387197Y-34455668D01*
X120392212Y-34459422D01*
X120394809Y-34460185D01*
X120415451Y-34476819D01*
X120521915Y-34583283D01*
X120555400Y-34644606D01*
X120556707Y-34690361D01*
X120524500Y-34893712D01*
X120524500Y-34893713D01*
X120524500Y-35106287D01*
X120557754Y-35316243D01*
X120619055Y-35504908D01*
X120623444Y-35518414D01*
X120719951Y-35707820D01*
X120844890Y-35879786D01*
X120995209Y-36030105D01*
X120995214Y-36030109D01*
X121160218Y-36149991D01*
X121202884Y-36205320D01*
X121208863Y-36274934D01*
X121176258Y-36336729D01*
X121160218Y-36350627D01*
X120995540Y-36470272D01*
X120995535Y-36470276D01*
X120845276Y-36620535D01*
X120845272Y-36620540D01*
X120720379Y-36792442D01*
X120623904Y-36981782D01*
X120558242Y-37183870D01*
X120558242Y-37183873D01*
X120547769Y-37250000D01*
X121595854Y-37250000D01*
X121557370Y-37316657D01*
X121525000Y-37437465D01*
X121525000Y-37562535D01*
X121557370Y-37683343D01*
X121595854Y-37750000D01*
X120547769Y-37750000D01*
X120558242Y-37816126D01*
X120558242Y-37816129D01*
X120623904Y-38018217D01*
X120720379Y-38207557D01*
X120845272Y-38379459D01*
X120845276Y-38379464D01*
X120984143Y-38518331D01*
X121017628Y-38579654D01*
X121012644Y-38649346D01*
X120970772Y-38705279D01*
X120961559Y-38711551D01*
X120806342Y-38807289D01*
X120682289Y-38931342D01*
X120590187Y-39080663D01*
X120590186Y-39080666D01*
X120535001Y-39247203D01*
X120535001Y-39247204D01*
X120535000Y-39247204D01*
X120524500Y-39349983D01*
X120524500Y-40504190D01*
X120515855Y-40533629D01*
X120509333Y-40563615D01*
X120505577Y-40568632D01*
X120504815Y-40571229D01*
X120488183Y-40591870D01*
X120456874Y-40623180D01*
X120395551Y-40656666D01*
X120369191Y-40659500D01*
X117948071Y-40659500D01*
X117881032Y-40639815D01*
X117847754Y-40608386D01*
X117741966Y-40462781D01*
X117597219Y-40318034D01*
X117597213Y-40318028D01*
X117431613Y-40197715D01*
X117431612Y-40197714D01*
X117431610Y-40197713D01*
X117374653Y-40168691D01*
X117249223Y-40104781D01*
X117054534Y-40041522D01*
X116879995Y-40013878D01*
X116852352Y-40009500D01*
X116647648Y-40009500D01*
X116623329Y-40013351D01*
X116445465Y-40041522D01*
X116250776Y-40104781D01*
X116068386Y-40197715D01*
X115902786Y-40318028D01*
X115758028Y-40462786D01*
X115637715Y-40628386D01*
X115544781Y-40810776D01*
X115481522Y-41005465D01*
X115449500Y-41207648D01*
X115449500Y-41412351D01*
X115481522Y-41614534D01*
X115544781Y-41809223D01*
X115594881Y-41907548D01*
X115632705Y-41981782D01*
X115637715Y-41991613D01*
X115758028Y-42157213D01*
X115902784Y-42301969D01*
X115949344Y-42335796D01*
X116048385Y-42407753D01*
X116091051Y-42463081D01*
X116099500Y-42508070D01*
X116099500Y-43929191D01*
X116079815Y-43996230D01*
X116063181Y-44016872D01*
X113284727Y-46795325D01*
X113284726Y-46795326D01*
X113213534Y-46901874D01*
X113164499Y-47020255D01*
X113164497Y-47020261D01*
X113139500Y-47145928D01*
X113139500Y-53891928D01*
X113119815Y-53958967D01*
X113088385Y-53992246D01*
X112942787Y-54098028D01*
X112942782Y-54098032D01*
X112798028Y-54242786D01*
X112677715Y-54408386D01*
X112630485Y-54501080D01*
X112582510Y-54551876D01*
X112514689Y-54568671D01*
X112448554Y-54546134D01*
X112409515Y-54501080D01*
X112362419Y-54408650D01*
X112362287Y-54408390D01*
X112300858Y-54323839D01*
X112241971Y-54242786D01*
X112097217Y-54098032D01*
X112097212Y-54098028D01*
X112051615Y-54064900D01*
X112008949Y-54009571D01*
X112000500Y-53964582D01*
X112000500Y-53525416D01*
X112020185Y-53458377D01*
X112051613Y-53425099D01*
X112097219Y-53391966D01*
X112241966Y-53247219D01*
X112241968Y-53247215D01*
X112241971Y-53247213D01*
X112294732Y-53174590D01*
X112362287Y-53081610D01*
X112455220Y-52899219D01*
X112518477Y-52704534D01*
X112550500Y-52502352D01*
X112550500Y-52297648D01*
X112518477Y-52095466D01*
X112455220Y-51900781D01*
X112455218Y-51900778D01*
X112455218Y-51900776D01*
X112421503Y-51834607D01*
X112362287Y-51718390D01*
X112341741Y-51690110D01*
X112241971Y-51552786D01*
X112097213Y-51408028D01*
X111931613Y-51287715D01*
X111931612Y-51287714D01*
X111931610Y-51287713D01*
X111857592Y-51249999D01*
X111749223Y-51194781D01*
X111554534Y-51131522D01*
X111379995Y-51103878D01*
X111352352Y-51099500D01*
X111147648Y-51099500D01*
X111123329Y-51103351D01*
X110945465Y-51131522D01*
X110750776Y-51194781D01*
X110568386Y-51287715D01*
X110402786Y-51408028D01*
X110258028Y-51552786D01*
X110137715Y-51718386D01*
X110044781Y-51900776D01*
X109981522Y-52095465D01*
X109949500Y-52297648D01*
X109949500Y-52502351D01*
X109981522Y-52704534D01*
X110044781Y-52899223D01*
X110137715Y-53081613D01*
X110258028Y-53247213D01*
X110258034Y-53247219D01*
X110402781Y-53391966D01*
X110448384Y-53425098D01*
X110491050Y-53480425D01*
X110499500Y-53525416D01*
X110499500Y-53964582D01*
X110479815Y-54031621D01*
X110448385Y-54064900D01*
X110402787Y-54098028D01*
X110402782Y-54098032D01*
X110258028Y-54242786D01*
X110137715Y-54408386D01*
X110090485Y-54501080D01*
X110042510Y-54551876D01*
X109974689Y-54568671D01*
X109908554Y-54546134D01*
X109869515Y-54501080D01*
X109822419Y-54408650D01*
X109822287Y-54408390D01*
X109760858Y-54323839D01*
X109701971Y-54242786D01*
X109557217Y-54098032D01*
X109557212Y-54098028D01*
X109411615Y-53992246D01*
X109368949Y-53936916D01*
X109360500Y-53891928D01*
X109360500Y-47945931D01*
X109353545Y-47910967D01*
X109359771Y-47841378D01*
X109402633Y-47786200D01*
X109468522Y-47762954D01*
X109511158Y-47768116D01*
X109516503Y-47769737D01*
X109671153Y-47800499D01*
X109671156Y-47800500D01*
X109671158Y-47800500D01*
X109828844Y-47800500D01*
X109828845Y-47800499D01*
X109983497Y-47769737D01*
X110129179Y-47709394D01*
X110260289Y-47621789D01*
X110371789Y-47510289D01*
X110459394Y-47379179D01*
X110519737Y-47233497D01*
X110550500Y-47078842D01*
X110550500Y-46921158D01*
X110550500Y-46921155D01*
X110550499Y-46921153D01*
X110519738Y-46766510D01*
X110519737Y-46766503D01*
X110488049Y-46690000D01*
X110459397Y-46620827D01*
X110459390Y-46620814D01*
X110371789Y-46489711D01*
X110371786Y-46489707D01*
X110260292Y-46378213D01*
X110260288Y-46378210D01*
X110129185Y-46290609D01*
X110129172Y-46290602D01*
X109983501Y-46230264D01*
X109983491Y-46230261D01*
X109828149Y-46199361D01*
X109766238Y-46166976D01*
X109764660Y-46165425D01*
X108386819Y-44787584D01*
X108353334Y-44726261D01*
X108350500Y-44699903D01*
X108350500Y-41639059D01*
X108350501Y-41639046D01*
X108350501Y-41470945D01*
X108350501Y-41470943D01*
X108309577Y-41318215D01*
X108271092Y-41251557D01*
X108271092Y-41251556D01*
X108230524Y-41181290D01*
X108230521Y-41181286D01*
X108230520Y-41181284D01*
X108118716Y-41069480D01*
X108118715Y-41069479D01*
X108114385Y-41065149D01*
X108114374Y-41065139D01*
X107628102Y-40578867D01*
X107594617Y-40517544D01*
X107597851Y-40452874D01*
X107642246Y-40316243D01*
X107675500Y-40106287D01*
X107675500Y-39893713D01*
X107642246Y-39683757D01*
X107576557Y-39481588D01*
X107480051Y-39292184D01*
X107480049Y-39292181D01*
X107480048Y-39292179D01*
X107355109Y-39120213D01*
X107204792Y-38969896D01*
X107151729Y-38931344D01*
X107040204Y-38850316D01*
X106997540Y-38794989D01*
X106991561Y-38725376D01*
X107024166Y-38663580D01*
X107040199Y-38649686D01*
X107204792Y-38530104D01*
X107355104Y-38379792D01*
X107355347Y-38379458D01*
X107411903Y-38301615D01*
X107467233Y-38258949D01*
X107512221Y-38250500D01*
X108887770Y-38250500D01*
X108954809Y-38270185D01*
X108975451Y-38286819D01*
X110122904Y-39434271D01*
X110156389Y-39495594D01*
X110151405Y-39565286D01*
X110134490Y-39596263D01*
X110051092Y-39707668D01*
X110051090Y-39707671D01*
X110000796Y-39842517D01*
X109994389Y-39902116D01*
X109994388Y-39902135D01*
X109994388Y-41597870D01*
X109994389Y-41597876D01*
X110000796Y-41657483D01*
X110051090Y-41792328D01*
X110051094Y-41792335D01*
X110137340Y-41907544D01*
X110137343Y-41907547D01*
X110252552Y-41993793D01*
X110252559Y-41993797D01*
X110336219Y-42025000D01*
X110387405Y-42044091D01*
X110388751Y-42044235D01*
X110389728Y-42044640D01*
X110394950Y-42045874D01*
X110394750Y-42046720D01*
X110453302Y-42070970D01*
X110493153Y-42128361D01*
X110499500Y-42167525D01*
X110499500Y-43654582D01*
X110479815Y-43721621D01*
X110448385Y-43754900D01*
X110402787Y-43788028D01*
X110402782Y-43788032D01*
X110258028Y-43932786D01*
X110137715Y-44098386D01*
X110044781Y-44280776D01*
X109981522Y-44475465D01*
X109949500Y-44677648D01*
X109949500Y-44882351D01*
X109981522Y-45084534D01*
X110044781Y-45279223D01*
X110137715Y-45461613D01*
X110258028Y-45627213D01*
X110402786Y-45771971D01*
X110509498Y-45849500D01*
X110568390Y-45892287D01*
X110684607Y-45951503D01*
X110750776Y-45985218D01*
X110750778Y-45985218D01*
X110750781Y-45985220D01*
X110855137Y-46019127D01*
X110945465Y-46048477D01*
X111046557Y-46064488D01*
X111147648Y-46080500D01*
X111147649Y-46080500D01*
X111352351Y-46080500D01*
X111352352Y-46080500D01*
X111554534Y-46048477D01*
X111749219Y-45985220D01*
X111931610Y-45892287D01*
X112062183Y-45797421D01*
X112097213Y-45771971D01*
X112097215Y-45771968D01*
X112097219Y-45771966D01*
X112241966Y-45627219D01*
X112241968Y-45627215D01*
X112241971Y-45627213D01*
X112315297Y-45526287D01*
X112362287Y-45461610D01*
X112455220Y-45279219D01*
X112518477Y-45084534D01*
X112550500Y-44882352D01*
X112550500Y-44677648D01*
X112531570Y-44558133D01*
X112518477Y-44475465D01*
X112466036Y-44314069D01*
X112455220Y-44280781D01*
X112455218Y-44280778D01*
X112455218Y-44280776D01*
X112421503Y-44214607D01*
X112362287Y-44098390D01*
X112316269Y-44035051D01*
X112241971Y-43932786D01*
X112097217Y-43788032D01*
X112097212Y-43788028D01*
X112051615Y-43754900D01*
X112008949Y-43699571D01*
X112000500Y-43654582D01*
X112000500Y-42174499D01*
X112020185Y-42107460D01*
X112072989Y-42061705D01*
X112124500Y-42050499D01*
X112142759Y-42050499D01*
X112142760Y-42050499D01*
X112202371Y-42044091D01*
X112337219Y-41993796D01*
X112452434Y-41907546D01*
X112459118Y-41898616D01*
X112515047Y-41856746D01*
X112584739Y-41851759D01*
X112614680Y-41862441D01*
X112795856Y-41954755D01*
X112990470Y-42017990D01*
X113192571Y-42050000D01*
X113397205Y-42050000D01*
X113599305Y-42017990D01*
X113793919Y-41954755D01*
X113976237Y-41861859D01*
X114020809Y-41829474D01*
X113341335Y-41150000D01*
X113347549Y-41150000D01*
X113449282Y-41122741D01*
X113540494Y-41070080D01*
X113614968Y-40995606D01*
X113667629Y-40904394D01*
X113694888Y-40802661D01*
X113694888Y-40796448D01*
X114374362Y-41475922D01*
X114374362Y-41475921D01*
X114406747Y-41431349D01*
X114499643Y-41249031D01*
X114562878Y-41054417D01*
X114594888Y-40852317D01*
X114594888Y-40647682D01*
X114562878Y-40445582D01*
X114499643Y-40250968D01*
X114406747Y-40068650D01*
X114374362Y-40024077D01*
X114374362Y-40024076D01*
X113694888Y-40703551D01*
X113694888Y-40697339D01*
X113667629Y-40595606D01*
X113614968Y-40504394D01*
X113540494Y-40429920D01*
X113449282Y-40377259D01*
X113347549Y-40350000D01*
X113341334Y-40350000D01*
X114020810Y-39670524D01*
X114020809Y-39670523D01*
X113976247Y-39638147D01*
X113976238Y-39638141D01*
X113793919Y-39545244D01*
X113599305Y-39482009D01*
X113397205Y-39450000D01*
X113192571Y-39450000D01*
X112990470Y-39482009D01*
X112795853Y-39545245D01*
X112614679Y-39637558D01*
X112546010Y-39650454D01*
X112481270Y-39624177D01*
X112459122Y-39601388D01*
X112452434Y-39592454D01*
X112440183Y-39583283D01*
X112337223Y-39506206D01*
X112337216Y-39506202D01*
X112202370Y-39455908D01*
X112202371Y-39455908D01*
X112142771Y-39449501D01*
X112142769Y-39449500D01*
X112142761Y-39449500D01*
X112142752Y-39449500D01*
X112139436Y-39449322D01*
X112139480Y-39448501D01*
X112075842Y-39429815D01*
X112030087Y-39377011D01*
X112021264Y-39349692D01*
X112016547Y-39325980D01*
X112016546Y-39325979D01*
X112016546Y-39325975D01*
X112009886Y-39309896D01*
X111959975Y-39189399D01*
X111959968Y-39189386D01*
X111877840Y-39066473D01*
X111862924Y-39051557D01*
X111773304Y-38961937D01*
X111319183Y-38507816D01*
X109728421Y-36917052D01*
X109728414Y-36917046D01*
X109654729Y-36867812D01*
X109654729Y-36867813D01*
X109605491Y-36834913D01*
X109468917Y-36778343D01*
X109468907Y-36778340D01*
X109323920Y-36749500D01*
X109323918Y-36749500D01*
X107512221Y-36749500D01*
X107445182Y-36729815D01*
X107411903Y-36698385D01*
X107355107Y-36620211D01*
X107216294Y-36481398D01*
X107182809Y-36420075D01*
X107187793Y-36350383D01*
X107229665Y-36294450D01*
X107238879Y-36288178D01*
X107244331Y-36284814D01*
X107244334Y-36284814D01*
X107393656Y-36192712D01*
X107517712Y-36068656D01*
X107609814Y-35919334D01*
X107637595Y-35835495D01*
X107677368Y-35778051D01*
X107741884Y-35751228D01*
X107755301Y-35750500D01*
X114387770Y-35750500D01*
X114454809Y-35770185D01*
X114475451Y-35786819D01*
X116003926Y-37315293D01*
X116030805Y-37355519D01*
X116040603Y-37379172D01*
X116040606Y-37379178D01*
X116040609Y-37379185D01*
X116128210Y-37510288D01*
X116128213Y-37510292D01*
X116239707Y-37621786D01*
X116239711Y-37621789D01*
X116370814Y-37709390D01*
X116370827Y-37709397D01*
X116468853Y-37750000D01*
X116516503Y-37769737D01*
X116626702Y-37791657D01*
X116671153Y-37800499D01*
X116671156Y-37800500D01*
X116671158Y-37800500D01*
X116828844Y-37800500D01*
X116828845Y-37800499D01*
X116983497Y-37769737D01*
X117129179Y-37709394D01*
X117260289Y-37621789D01*
X117371789Y-37510289D01*
X117459394Y-37379179D01*
X117519737Y-37233497D01*
X117550500Y-37078842D01*
X117550500Y-36921158D01*
X117550500Y-36921155D01*
X117550499Y-36921153D01*
X117533345Y-36834916D01*
X117519737Y-36766503D01*
X117512694Y-36749500D01*
X117459397Y-36620827D01*
X117459390Y-36620814D01*
X117371789Y-36489711D01*
X117371786Y-36489707D01*
X117260292Y-36378213D01*
X117260288Y-36378210D01*
X117129185Y-36290609D01*
X117129180Y-36290607D01*
X117129179Y-36290606D01*
X117105519Y-36280805D01*
X117065293Y-36253926D01*
X115228421Y-34417052D01*
X115228414Y-34417046D01*
X115154729Y-34367812D01*
X115154729Y-34367813D01*
X115105491Y-34334913D01*
X114968917Y-34278343D01*
X114968907Y-34278340D01*
X114823920Y-34249500D01*
X114823918Y-34249500D01*
X107755301Y-34249500D01*
X107688262Y-34229815D01*
X107642507Y-34177011D01*
X107637595Y-34164504D01*
X107623387Y-34121627D01*
X107609814Y-34080666D01*
X107517712Y-33931344D01*
X107393656Y-33807288D01*
X107244334Y-33715186D01*
X107077797Y-33660001D01*
X107077795Y-33660000D01*
X106975010Y-33649500D01*
X105424998Y-33649500D01*
X105424981Y-33649501D01*
X105322203Y-33660000D01*
X105322200Y-33660001D01*
X105155668Y-33715185D01*
X105155663Y-33715187D01*
X105006342Y-33807289D01*
X104882289Y-33931342D01*
X104790187Y-34080663D01*
X104790185Y-34080668D01*
X104768125Y-34147242D01*
X104735001Y-34247203D01*
X104735001Y-34247204D01*
X104735000Y-34247204D01*
X104724500Y-34349983D01*
X104724500Y-35650001D01*
X104724501Y-35650018D01*
X104735000Y-35752796D01*
X104735001Y-35752799D01*
X104777081Y-35879786D01*
X104790186Y-35919334D01*
X104882288Y-36068656D01*
X105006344Y-36192712D01*
X105101747Y-36251557D01*
X105161120Y-36288178D01*
X105207845Y-36340126D01*
X105219068Y-36409088D01*
X105191224Y-36473171D01*
X105183706Y-36481398D01*
X105044889Y-36620215D01*
X104919951Y-36792179D01*
X104823444Y-36981585D01*
X104757753Y-37183760D01*
X104724500Y-37393713D01*
X104724500Y-37606286D01*
X104755260Y-37800500D01*
X104757754Y-37816243D01*
X104787011Y-37906287D01*
X104823444Y-38018414D01*
X104919951Y-38207820D01*
X105044890Y-38379786D01*
X105195209Y-38530105D01*
X105195214Y-38530109D01*
X105359793Y-38649682D01*
X105402459Y-38705011D01*
X105408438Y-38774625D01*
X105375833Y-38836420D01*
X105359793Y-38850318D01*
X105195214Y-38969890D01*
X105195209Y-38969894D01*
X105044890Y-39120213D01*
X104919951Y-39292179D01*
X104823444Y-39481585D01*
X104757753Y-39683760D01*
X104724500Y-39893713D01*
X104724500Y-40106286D01*
X104752350Y-40282127D01*
X104757754Y-40316243D01*
X104818888Y-40504394D01*
X104823444Y-40518414D01*
X104919951Y-40707820D01*
X105044890Y-40879786D01*
X105195209Y-41030105D01*
X105195214Y-41030109D01*
X105360218Y-41149991D01*
X105402884Y-41205320D01*
X105408863Y-41274934D01*
X105376258Y-41336729D01*
X105360218Y-41350627D01*
X105195540Y-41470272D01*
X105195535Y-41470276D01*
X105045276Y-41620535D01*
X105045272Y-41620540D01*
X104920379Y-41792442D01*
X104823904Y-41981782D01*
X104758242Y-42183870D01*
X104758242Y-42183873D01*
X104747769Y-42250000D01*
X105795854Y-42250000D01*
X105757370Y-42316657D01*
X105725000Y-42437465D01*
X105725000Y-42562535D01*
X105757370Y-42683343D01*
X105795854Y-42750000D01*
X104747769Y-42750000D01*
X104759004Y-42820937D01*
X104756958Y-42821260D01*
X104753881Y-42882377D01*
X104713198Y-42939181D01*
X104648263Y-42964973D01*
X104579692Y-42951564D01*
X104549130Y-42929184D01*
X99850657Y-38230711D01*
X99817172Y-38169388D01*
X99817689Y-38121245D01*
X99816484Y-38121055D01*
X99850500Y-37906286D01*
X99850500Y-37693713D01*
X99829723Y-37562535D01*
X99817246Y-37483757D01*
X99751557Y-37281588D01*
X99655051Y-37092184D01*
X99655049Y-37092181D01*
X99655048Y-37092179D01*
X99530109Y-36920213D01*
X99443307Y-36833411D01*
X99409822Y-36772088D01*
X99414806Y-36702396D01*
X99456678Y-36646463D01*
X99522142Y-36622046D01*
X99524053Y-36621924D01*
X99525897Y-36621820D01*
X99525918Y-36621820D01*
X99818543Y-36588849D01*
X100105636Y-36523322D01*
X100383588Y-36426062D01*
X100396021Y-36420075D01*
X100648896Y-36298297D01*
X100648896Y-36298296D01*
X100648902Y-36298294D01*
X100898242Y-36141623D01*
X101128473Y-35958020D01*
X101336700Y-35749793D01*
X101520303Y-35519562D01*
X101676974Y-35270222D01*
X101695149Y-35232481D01*
X101804735Y-35004923D01*
X101804736Y-35004919D01*
X101804742Y-35004908D01*
X101902002Y-34726956D01*
X101967529Y-34439863D01*
X102000500Y-34147238D01*
X102000500Y-33852762D01*
X101967529Y-33560137D01*
X101902002Y-33273044D01*
X101804742Y-32995092D01*
X101804738Y-32995085D01*
X101804735Y-32995076D01*
X101676977Y-32729783D01*
X101558972Y-32541980D01*
X101520303Y-32480438D01*
X101336700Y-32250207D01*
X101128473Y-32041980D01*
X100898242Y-31858377D01*
X100693125Y-31729493D01*
X100646835Y-31677159D01*
X100636187Y-31608106D01*
X100664562Y-31544257D01*
X100722951Y-31505885D01*
X100759098Y-31500500D01*
X176875500Y-31500500D01*
X176942539Y-31520185D01*
G37*
%TD.AperFunction*%
%TA.AperFunction,Conductor*%
G36*
X146254818Y-67220185D02*
G01*
X146288097Y-67251615D01*
X146344892Y-67329788D01*
X146495213Y-67480109D01*
X146649672Y-67592328D01*
X146667184Y-67605051D01*
X146781794Y-67663447D01*
X146832591Y-67711421D01*
X146849500Y-67773932D01*
X146849500Y-81179192D01*
X146829815Y-81246231D01*
X146813181Y-81266873D01*
X145266873Y-82813181D01*
X145205550Y-82846666D01*
X145179192Y-82849500D01*
X135030808Y-82849500D01*
X134963769Y-82829815D01*
X134943127Y-82813181D01*
X133745443Y-81615497D01*
X133740954Y-81607276D01*
X133733484Y-81601625D01*
X133724477Y-81577102D01*
X133711958Y-81554174D01*
X133711985Y-81543088D01*
X133709397Y-81536039D01*
X133712057Y-81514680D01*
X133712092Y-81500848D01*
X133713370Y-81495109D01*
X133742246Y-81406243D01*
X133775500Y-81196287D01*
X133775500Y-80983713D01*
X133742246Y-80773757D01*
X133676557Y-80571588D01*
X133580051Y-80382184D01*
X133580049Y-80382181D01*
X133580048Y-80382179D01*
X133455109Y-80210213D01*
X133304790Y-80059894D01*
X133304785Y-80059890D01*
X133139781Y-79940008D01*
X133097115Y-79884678D01*
X133091136Y-79815065D01*
X133123741Y-79753270D01*
X133139781Y-79739371D01*
X133304466Y-79619721D01*
X133454723Y-79469464D01*
X133454727Y-79469459D01*
X133579620Y-79297557D01*
X133676095Y-79108217D01*
X133741757Y-78906129D01*
X133741757Y-78906126D01*
X133752231Y-78840000D01*
X132704146Y-78840000D01*
X132742630Y-78773343D01*
X132775000Y-78652535D01*
X132775000Y-78527465D01*
X132742630Y-78406657D01*
X132704146Y-78340000D01*
X133752231Y-78340000D01*
X133741757Y-78273873D01*
X133741757Y-78273870D01*
X133676095Y-78071782D01*
X133579620Y-77882442D01*
X133454727Y-77710540D01*
X133454723Y-77710535D01*
X133315856Y-77571668D01*
X133282371Y-77510345D01*
X133287355Y-77440653D01*
X133329227Y-77384720D01*
X133338441Y-77378448D01*
X133344331Y-77374814D01*
X133344334Y-77374814D01*
X133493656Y-77282712D01*
X133617712Y-77158656D01*
X133709814Y-77009334D01*
X133764999Y-76842797D01*
X133775500Y-76740009D01*
X133775499Y-75439992D01*
X133764999Y-75337203D01*
X133709814Y-75170666D01*
X133617712Y-75021344D01*
X133493656Y-74897288D01*
X133400888Y-74840069D01*
X133344336Y-74805187D01*
X133344331Y-74805185D01*
X133342862Y-74804698D01*
X133177797Y-74750001D01*
X133177795Y-74750000D01*
X133075010Y-74739500D01*
X131524998Y-74739500D01*
X131524981Y-74739501D01*
X131422203Y-74750000D01*
X131422200Y-74750001D01*
X131255668Y-74805185D01*
X131255659Y-74805190D01*
X131109936Y-74895071D01*
X131042543Y-74913511D01*
X130975880Y-74892588D01*
X130957159Y-74877213D01*
X129716819Y-73636873D01*
X129683334Y-73575550D01*
X129680500Y-73549192D01*
X129680500Y-71528070D01*
X129700185Y-71461031D01*
X129731613Y-71427753D01*
X129877219Y-71321966D01*
X130021966Y-71177219D01*
X130021968Y-71177215D01*
X130021971Y-71177213D01*
X130142284Y-71011614D01*
X130142286Y-71011611D01*
X130142287Y-71011610D01*
X130189516Y-70918917D01*
X130237489Y-70868123D01*
X130305310Y-70851328D01*
X130371445Y-70873865D01*
X130410485Y-70918919D01*
X130457715Y-71011614D01*
X130578028Y-71177213D01*
X130722786Y-71321971D01*
X130857969Y-71420185D01*
X130888390Y-71442287D01*
X130968453Y-71483081D01*
X131070776Y-71535218D01*
X131070778Y-71535218D01*
X131070781Y-71535220D01*
X131175137Y-71569127D01*
X131265465Y-71598477D01*
X131366557Y-71614488D01*
X131467648Y-71630500D01*
X131467649Y-71630500D01*
X131672351Y-71630500D01*
X131672352Y-71630500D01*
X131874534Y-71598477D01*
X132069219Y-71535220D01*
X132251610Y-71442287D01*
X132371494Y-71355187D01*
X132417213Y-71321971D01*
X132417215Y-71321968D01*
X132417219Y-71321966D01*
X132561966Y-71177219D01*
X132561968Y-71177215D01*
X132561971Y-71177213D01*
X132682284Y-71011614D01*
X132682286Y-71011611D01*
X132682287Y-71011610D01*
X132729516Y-70918917D01*
X132777489Y-70868123D01*
X132845310Y-70851328D01*
X132911445Y-70873865D01*
X132950485Y-70918919D01*
X132997715Y-71011614D01*
X133118028Y-71177213D01*
X133262786Y-71321971D01*
X133397969Y-71420185D01*
X133428390Y-71442287D01*
X133508453Y-71483081D01*
X133610776Y-71535218D01*
X133610778Y-71535218D01*
X133610781Y-71535220D01*
X133715137Y-71569127D01*
X133805465Y-71598477D01*
X133906557Y-71614488D01*
X134007648Y-71630500D01*
X134007649Y-71630500D01*
X134212351Y-71630500D01*
X134212352Y-71630500D01*
X134414534Y-71598477D01*
X134609219Y-71535220D01*
X134791610Y-71442287D01*
X134911494Y-71355187D01*
X134957213Y-71321971D01*
X134957215Y-71321968D01*
X134957219Y-71321966D01*
X135101966Y-71177219D01*
X135101968Y-71177215D01*
X135101971Y-71177213D01*
X135222284Y-71011614D01*
X135222286Y-71011611D01*
X135222287Y-71011610D01*
X135269795Y-70918369D01*
X135317770Y-70867574D01*
X135385591Y-70850779D01*
X135451725Y-70873316D01*
X135490765Y-70918370D01*
X135538140Y-71011349D01*
X135658417Y-71176894D01*
X135658417Y-71176895D01*
X135803104Y-71321582D01*
X135968650Y-71441859D01*
X136150968Y-71534754D01*
X136345578Y-71597988D01*
X136400000Y-71606607D01*
X136400000Y-70763012D01*
X136457007Y-70795925D01*
X136584174Y-70830000D01*
X136715826Y-70830000D01*
X136842993Y-70795925D01*
X136900000Y-70763012D01*
X136900000Y-71606606D01*
X136954421Y-71597988D01*
X137149031Y-71534754D01*
X137331349Y-71441859D01*
X137496894Y-71321582D01*
X137496895Y-71321582D01*
X137641582Y-71176895D01*
X137641582Y-71176894D01*
X137761861Y-71011347D01*
X137809234Y-70918371D01*
X137857208Y-70867575D01*
X137925028Y-70850779D01*
X137991164Y-70873316D01*
X138030203Y-70918369D01*
X138077713Y-71011611D01*
X138198028Y-71177213D01*
X138198034Y-71177219D01*
X138342781Y-71321966D01*
X138498386Y-71435019D01*
X138541051Y-71490347D01*
X138549500Y-71535336D01*
X138549500Y-77304281D01*
X138529815Y-77371320D01*
X138481795Y-77414765D01*
X138442185Y-77434947D01*
X138442184Y-77434948D01*
X138270213Y-77559890D01*
X138119890Y-77710213D01*
X137994951Y-77882179D01*
X137898444Y-78071585D01*
X137832753Y-78273760D01*
X137801251Y-78472658D01*
X137799500Y-78483713D01*
X137799500Y-78696287D01*
X137832754Y-78906243D01*
X137887235Y-79073918D01*
X137898444Y-79108414D01*
X137994951Y-79297820D01*
X138119890Y-79469786D01*
X138259068Y-79608964D01*
X138292553Y-79670287D01*
X138287569Y-79739979D01*
X138245697Y-79795912D01*
X138236484Y-79802183D01*
X138081659Y-79897680D01*
X138081655Y-79897683D01*
X137957684Y-80021654D01*
X137865643Y-80170875D01*
X137865641Y-80170880D01*
X137810494Y-80337302D01*
X137810493Y-80337309D01*
X137800000Y-80440013D01*
X137800000Y-80840000D01*
X138866988Y-80840000D01*
X138834075Y-80897007D01*
X138800000Y-81024174D01*
X138800000Y-81155826D01*
X138834075Y-81282993D01*
X138866988Y-81340000D01*
X137800001Y-81340000D01*
X137800001Y-81739986D01*
X137810494Y-81842697D01*
X137865641Y-82009119D01*
X137865643Y-82009124D01*
X137957684Y-82158345D01*
X138081654Y-82282315D01*
X138230875Y-82374356D01*
X138230880Y-82374358D01*
X138397302Y-82429505D01*
X138397309Y-82429506D01*
X138500019Y-82439999D01*
X139049999Y-82439999D01*
X139050000Y-82439998D01*
X139050000Y-81523012D01*
X139107007Y-81555925D01*
X139234174Y-81590000D01*
X139365826Y-81590000D01*
X139492993Y-81555925D01*
X139550000Y-81523012D01*
X139550000Y-82439999D01*
X140099972Y-82439999D01*
X140099986Y-82439998D01*
X140202697Y-82429505D01*
X140369119Y-82374358D01*
X140369124Y-82374356D01*
X140518345Y-82282315D01*
X140642315Y-82158345D01*
X140734356Y-82009124D01*
X140734358Y-82009119D01*
X140789505Y-81842697D01*
X140789506Y-81842690D01*
X140799999Y-81739986D01*
X140800000Y-81739973D01*
X140800000Y-81340000D01*
X139733012Y-81340000D01*
X139765925Y-81282993D01*
X139800000Y-81155826D01*
X139800000Y-81024174D01*
X139765925Y-80897007D01*
X139733012Y-80840000D01*
X140799999Y-80840000D01*
X140799999Y-80440028D01*
X140799998Y-80440013D01*
X140789505Y-80337302D01*
X140734358Y-80170880D01*
X140734356Y-80170875D01*
X140642315Y-80021654D01*
X140518345Y-79897684D01*
X140363515Y-79802184D01*
X140316791Y-79750236D01*
X140305568Y-79681273D01*
X140333412Y-79617191D01*
X140340909Y-79608986D01*
X140480104Y-79469792D01*
X140605051Y-79297816D01*
X140701557Y-79108412D01*
X140767246Y-78906243D01*
X140800500Y-78696287D01*
X140800500Y-78483713D01*
X140767246Y-78273757D01*
X140701557Y-78071588D01*
X140605051Y-77882184D01*
X140605049Y-77882181D01*
X140605048Y-77882179D01*
X140480109Y-77710213D01*
X140329786Y-77559890D01*
X140157815Y-77434948D01*
X140157814Y-77434947D01*
X140118205Y-77414765D01*
X140067409Y-77366791D01*
X140050500Y-77304281D01*
X140050500Y-71360047D01*
X140070185Y-71293008D01*
X140086819Y-71272366D01*
X140103913Y-71255272D01*
X140181966Y-71177219D01*
X140181968Y-71177215D01*
X140181971Y-71177213D01*
X140235486Y-71103554D01*
X140302287Y-71011610D01*
X140395220Y-70829219D01*
X140458477Y-70634534D01*
X140490500Y-70432352D01*
X140490500Y-70227648D01*
X140460000Y-70035081D01*
X140458477Y-70025465D01*
X140395218Y-69830776D01*
X140302419Y-69648650D01*
X140302287Y-69648390D01*
X140271115Y-69605485D01*
X140181971Y-69482786D01*
X140037213Y-69338028D01*
X139871613Y-69217715D01*
X139871612Y-69217714D01*
X139871610Y-69217713D01*
X139791542Y-69176916D01*
X139689223Y-69124781D01*
X139494534Y-69061522D01*
X139319995Y-69033878D01*
X139292352Y-69029500D01*
X139087648Y-69029500D01*
X139063329Y-69033351D01*
X138885465Y-69061522D01*
X138690776Y-69124781D01*
X138508386Y-69217715D01*
X138342786Y-69338028D01*
X138198028Y-69482786D01*
X138077713Y-69648388D01*
X138030203Y-69741630D01*
X137982228Y-69792426D01*
X137914407Y-69809220D01*
X137848272Y-69786682D01*
X137809234Y-69741628D01*
X137761861Y-69648652D01*
X137641582Y-69483105D01*
X137641582Y-69483104D01*
X137496895Y-69338417D01*
X137331349Y-69218140D01*
X137149029Y-69125244D01*
X136954413Y-69062009D01*
X136900000Y-69053390D01*
X136900000Y-69896988D01*
X136842993Y-69864075D01*
X136715826Y-69830000D01*
X136584174Y-69830000D01*
X136457007Y-69864075D01*
X136400000Y-69896988D01*
X136400000Y-69053390D01*
X136345586Y-69062009D01*
X136150970Y-69125244D01*
X135968650Y-69218140D01*
X135803105Y-69338417D01*
X135803104Y-69338417D01*
X135658417Y-69483104D01*
X135658417Y-69483105D01*
X135538140Y-69648650D01*
X135490765Y-69741629D01*
X135442790Y-69792425D01*
X135374969Y-69809220D01*
X135308834Y-69786682D01*
X135269795Y-69741629D01*
X135222419Y-69648650D01*
X135222287Y-69648390D01*
X135191115Y-69605485D01*
X135101971Y-69482786D01*
X134957213Y-69338028D01*
X134791613Y-69217715D01*
X134791612Y-69217714D01*
X134791610Y-69217713D01*
X134711542Y-69176916D01*
X134609223Y-69124781D01*
X134414534Y-69061522D01*
X134239995Y-69033878D01*
X134212352Y-69029500D01*
X134007648Y-69029500D01*
X133983329Y-69033351D01*
X133805465Y-69061522D01*
X133610776Y-69124781D01*
X133428386Y-69217715D01*
X133262786Y-69338028D01*
X133118028Y-69482786D01*
X132997715Y-69648386D01*
X132950485Y-69741080D01*
X132902510Y-69791876D01*
X132834689Y-69808671D01*
X132768554Y-69786134D01*
X132729515Y-69741080D01*
X132682419Y-69648650D01*
X132682287Y-69648390D01*
X132651115Y-69605485D01*
X132561971Y-69482786D01*
X132452957Y-69373772D01*
X132419472Y-69312449D01*
X132424456Y-69242757D01*
X132452957Y-69198410D01*
X133420814Y-68230554D01*
X134414549Y-67236819D01*
X134475872Y-67203334D01*
X134502230Y-67200500D01*
X146187779Y-67200500D01*
X146254818Y-67220185D01*
G37*
%TD.AperFunction*%
%TA.AperFunction,Conductor*%
G36*
X98065301Y-31520185D02*
G01*
X98111056Y-31572989D01*
X98121000Y-31642147D01*
X98091975Y-31705703D01*
X98064234Y-31729494D01*
X97859119Y-31858376D01*
X97628887Y-32041979D01*
X97420659Y-32250207D01*
X97237056Y-32480439D01*
X97080382Y-32729783D01*
X96952624Y-32995076D01*
X96952615Y-32995098D01*
X96855361Y-33273032D01*
X96855357Y-33273044D01*
X96789831Y-33560133D01*
X96789829Y-33560149D01*
X96756860Y-33852757D01*
X96756860Y-34147242D01*
X96789829Y-34439850D01*
X96789831Y-34439866D01*
X96855357Y-34726955D01*
X96855361Y-34726967D01*
X96952615Y-35004901D01*
X96952624Y-35004923D01*
X97080382Y-35270216D01*
X97080386Y-35270222D01*
X97237057Y-35519562D01*
X97420660Y-35749793D01*
X97628887Y-35958020D01*
X97859118Y-36141623D01*
X98103200Y-36294990D01*
X98149490Y-36347324D01*
X98160138Y-36416377D01*
X98131763Y-36480226D01*
X98075546Y-36517914D01*
X97981583Y-36548444D01*
X97792179Y-36644951D01*
X97620213Y-36769890D01*
X97469890Y-36920213D01*
X97344951Y-37092179D01*
X97248444Y-37281585D01*
X97182753Y-37483760D01*
X97163347Y-37606286D01*
X97149500Y-37693713D01*
X97149500Y-37906287D01*
X97182754Y-38116243D01*
X97242985Y-38301615D01*
X97248444Y-38318414D01*
X97344951Y-38507820D01*
X97469890Y-38679786D01*
X97620213Y-38830109D01*
X97792182Y-38955050D01*
X97800946Y-38959516D01*
X97851742Y-39007491D01*
X97868536Y-39075312D01*
X97845998Y-39141447D01*
X97800946Y-39180484D01*
X97792182Y-39184949D01*
X97620213Y-39309890D01*
X97469890Y-39460213D01*
X97344951Y-39632179D01*
X97248444Y-39821585D01*
X97182753Y-40023760D01*
X97149500Y-40233713D01*
X97149500Y-40446287D01*
X97152113Y-40462786D01*
X97182306Y-40653419D01*
X97182754Y-40656243D01*
X97242166Y-40839094D01*
X97248444Y-40858414D01*
X97344951Y-41047820D01*
X97469890Y-41219786D01*
X97620213Y-41370109D01*
X97792182Y-41495050D01*
X97800946Y-41499516D01*
X97851742Y-41547491D01*
X97868536Y-41615312D01*
X97845998Y-41681447D01*
X97800946Y-41720484D01*
X97792182Y-41724949D01*
X97620213Y-41849890D01*
X97469890Y-42000213D01*
X97344951Y-42172179D01*
X97248444Y-42361585D01*
X97182753Y-42563760D01*
X97164737Y-42677511D01*
X97149500Y-42773713D01*
X97149500Y-42986287D01*
X97182754Y-43196243D01*
X97242284Y-43379458D01*
X97248444Y-43398414D01*
X97344951Y-43587820D01*
X97469890Y-43759786D01*
X97620213Y-43910109D01*
X97792182Y-44035050D01*
X97800946Y-44039516D01*
X97851742Y-44087491D01*
X97868536Y-44155312D01*
X97845998Y-44221447D01*
X97800946Y-44260484D01*
X97792182Y-44264949D01*
X97620213Y-44389890D01*
X97469890Y-44540213D01*
X97344951Y-44712179D01*
X97248444Y-44901585D01*
X97182753Y-45103760D01*
X97149500Y-45313713D01*
X97149500Y-45526286D01*
X97169095Y-45650008D01*
X97182754Y-45736243D01*
X97242243Y-45919331D01*
X97248444Y-45938414D01*
X97344951Y-46127820D01*
X97469890Y-46299786D01*
X97620213Y-46450109D01*
X97792182Y-46575050D01*
X97800946Y-46579516D01*
X97851742Y-46627491D01*
X97868536Y-46695312D01*
X97845998Y-46761447D01*
X97800946Y-46800484D01*
X97792182Y-46804949D01*
X97620213Y-46929890D01*
X97469890Y-47080213D01*
X97344951Y-47252179D01*
X97248444Y-47441585D01*
X97182753Y-47643760D01*
X97149500Y-47853713D01*
X97149500Y-48066286D01*
X97171863Y-48207484D01*
X97182754Y-48276243D01*
X97200483Y-48330808D01*
X97248444Y-48478414D01*
X97344951Y-48667820D01*
X97469890Y-48839786D01*
X97583818Y-48953714D01*
X97617303Y-49015037D01*
X97612319Y-49084729D01*
X97570447Y-49140662D01*
X97539471Y-49157577D01*
X97407912Y-49206646D01*
X97407906Y-49206649D01*
X97292812Y-49292809D01*
X97292809Y-49292812D01*
X97206649Y-49407906D01*
X97206645Y-49407913D01*
X97156403Y-49542620D01*
X97156401Y-49542627D01*
X97150000Y-49602155D01*
X97150000Y-50250000D01*
X98066988Y-50250000D01*
X98034075Y-50307007D01*
X98000000Y-50434174D01*
X98000000Y-50565826D01*
X98034075Y-50692993D01*
X98066988Y-50750000D01*
X97150000Y-50750000D01*
X97150000Y-51397844D01*
X97156401Y-51457372D01*
X97156403Y-51457379D01*
X97206645Y-51592086D01*
X97206649Y-51592093D01*
X97292809Y-51707187D01*
X97292812Y-51707190D01*
X97407906Y-51793350D01*
X97407913Y-51793354D01*
X97542620Y-51843596D01*
X97542627Y-51843598D01*
X97602155Y-51849999D01*
X97602172Y-51850000D01*
X98250000Y-51850000D01*
X98250000Y-50933012D01*
X98307007Y-50965925D01*
X98434174Y-51000000D01*
X98565826Y-51000000D01*
X98692993Y-50965925D01*
X98750000Y-50933012D01*
X98750000Y-51850000D01*
X99397828Y-51850000D01*
X99397844Y-51849999D01*
X99457372Y-51843598D01*
X99457379Y-51843596D01*
X99582167Y-51797054D01*
X99651858Y-51792070D01*
X99713182Y-51825555D01*
X99746666Y-51886878D01*
X99749500Y-51913236D01*
X99749500Y-79073918D01*
X99749500Y-79073920D01*
X99749499Y-79073920D01*
X99778340Y-79218907D01*
X99778343Y-79218917D01*
X99826438Y-79335029D01*
X99833907Y-79404498D01*
X99802632Y-79466977D01*
X99742542Y-79502629D01*
X99672717Y-79500135D01*
X99670922Y-79499522D01*
X99605647Y-79476681D01*
X99605635Y-79476677D01*
X99318546Y-79411151D01*
X99318530Y-79411149D01*
X99025922Y-79378180D01*
X99025918Y-79378180D01*
X98731442Y-79378180D01*
X98731437Y-79378180D01*
X98438829Y-79411149D01*
X98438813Y-79411151D01*
X98151724Y-79476677D01*
X98151712Y-79476681D01*
X97873778Y-79573935D01*
X97873756Y-79573944D01*
X97608463Y-79701702D01*
X97359119Y-79858376D01*
X97128887Y-80041979D01*
X96920659Y-80250207D01*
X96737054Y-80480441D01*
X96729493Y-80492475D01*
X96677158Y-80538766D01*
X96608105Y-80549413D01*
X96544257Y-80521038D01*
X96505885Y-80462648D01*
X96500500Y-80426502D01*
X96500500Y-31624500D01*
X96520185Y-31557461D01*
X96572989Y-31511706D01*
X96624500Y-31500500D01*
X97998262Y-31500500D01*
X98065301Y-31520185D01*
G37*
%TD.AperFunction*%
%TA.AperFunction,Conductor*%
G36*
X112591445Y-70873865D02*
G01*
X112630485Y-70918919D01*
X112677715Y-71011614D01*
X112798028Y-71177213D01*
X112942784Y-71321969D01*
X112988506Y-71355187D01*
X113088385Y-71427753D01*
X113131051Y-71483081D01*
X113139500Y-71528070D01*
X113139500Y-73944070D01*
X113155784Y-74025930D01*
X113155784Y-74025932D01*
X113164497Y-74069737D01*
X113164499Y-74069744D01*
X113213535Y-74188127D01*
X113284723Y-74294669D01*
X113284726Y-74294673D01*
X113284727Y-74294674D01*
X114488181Y-75498127D01*
X114521666Y-75559450D01*
X114524500Y-75585808D01*
X114524500Y-76740001D01*
X114524501Y-76740018D01*
X114535000Y-76842796D01*
X114535001Y-76842799D01*
X114558029Y-76912292D01*
X114590186Y-77009334D01*
X114682288Y-77158656D01*
X114806344Y-77282712D01*
X114950001Y-77371320D01*
X114961558Y-77378448D01*
X115008283Y-77430396D01*
X115019506Y-77499358D01*
X114991663Y-77563441D01*
X114984144Y-77571668D01*
X114845271Y-77710541D01*
X114720379Y-77882442D01*
X114623904Y-78071782D01*
X114558242Y-78273870D01*
X114558242Y-78273873D01*
X114547769Y-78340000D01*
X115595854Y-78340000D01*
X115557370Y-78406657D01*
X115525000Y-78527465D01*
X115525000Y-78652535D01*
X115557370Y-78773343D01*
X115595854Y-78840000D01*
X114547769Y-78840000D01*
X114558242Y-78906126D01*
X114558242Y-78906129D01*
X114623904Y-79108217D01*
X114720379Y-79297557D01*
X114845272Y-79469459D01*
X114845276Y-79469464D01*
X114995535Y-79619723D01*
X114995540Y-79619727D01*
X115160218Y-79739372D01*
X115202884Y-79794701D01*
X115208863Y-79864315D01*
X115176258Y-79926110D01*
X115160218Y-79940008D01*
X114995214Y-80059890D01*
X114995209Y-80059894D01*
X114844890Y-80210213D01*
X114717085Y-80386125D01*
X114715740Y-80385148D01*
X114669295Y-80427166D01*
X114615382Y-80439500D01*
X109584618Y-80439500D01*
X109517579Y-80419815D01*
X109483900Y-80385408D01*
X109482915Y-80386125D01*
X109355109Y-80210213D01*
X109204790Y-80059894D01*
X109204785Y-80059890D01*
X109039781Y-79940008D01*
X108997115Y-79884678D01*
X108991136Y-79815065D01*
X109023741Y-79753270D01*
X109039781Y-79739371D01*
X109204466Y-79619721D01*
X109354723Y-79469464D01*
X109354727Y-79469459D01*
X109479620Y-79297557D01*
X109576095Y-79108217D01*
X109641757Y-78906129D01*
X109641757Y-78906126D01*
X109652231Y-78840000D01*
X108604146Y-78840000D01*
X108642630Y-78773343D01*
X108675000Y-78652535D01*
X108675000Y-78527465D01*
X108642630Y-78406657D01*
X108604146Y-78340000D01*
X109652231Y-78340000D01*
X109641757Y-78273873D01*
X109641757Y-78273870D01*
X109576095Y-78071782D01*
X109479620Y-77882442D01*
X109354727Y-77710540D01*
X109354723Y-77710535D01*
X109215856Y-77571668D01*
X109182371Y-77510345D01*
X109187355Y-77440653D01*
X109229227Y-77384720D01*
X109238441Y-77378448D01*
X109244331Y-77374814D01*
X109244334Y-77374814D01*
X109393656Y-77282712D01*
X109517712Y-77158656D01*
X109609814Y-77009334D01*
X109664999Y-76842797D01*
X109675500Y-76740009D01*
X109675499Y-76635806D01*
X109695183Y-76568769D01*
X109711813Y-76548131D01*
X111755276Y-74504669D01*
X111826465Y-74398127D01*
X111875501Y-74279744D01*
X111895714Y-74178127D01*
X111900500Y-74154069D01*
X111900500Y-71528070D01*
X111920185Y-71461031D01*
X111951613Y-71427753D01*
X112097219Y-71321966D01*
X112241966Y-71177219D01*
X112241968Y-71177215D01*
X112241971Y-71177213D01*
X112362284Y-71011614D01*
X112362286Y-71011611D01*
X112362287Y-71011610D01*
X112409516Y-70918917D01*
X112457489Y-70868123D01*
X112525310Y-70851328D01*
X112591445Y-70873865D01*
G37*
%TD.AperFunction*%
%TA.AperFunction,Conductor*%
G36*
X125291445Y-70873865D02*
G01*
X125330485Y-70918919D01*
X125377715Y-71011614D01*
X125498028Y-71177213D01*
X125642784Y-71321969D01*
X125688506Y-71355187D01*
X125788385Y-71427753D01*
X125831051Y-71483081D01*
X125839500Y-71528070D01*
X125839500Y-73779191D01*
X125819815Y-73846230D01*
X125803181Y-73866872D01*
X124966871Y-74703181D01*
X124905548Y-74736666D01*
X124879190Y-74739500D01*
X123724998Y-74739500D01*
X123724981Y-74739501D01*
X123622203Y-74750000D01*
X123622200Y-74750001D01*
X123455668Y-74805185D01*
X123455663Y-74805187D01*
X123306342Y-74897289D01*
X123182289Y-75021342D01*
X123090187Y-75170663D01*
X123090186Y-75170666D01*
X123035001Y-75337203D01*
X123035001Y-75337204D01*
X123035000Y-75337204D01*
X123024500Y-75439983D01*
X123024500Y-76740001D01*
X123024501Y-76740018D01*
X123035000Y-76842796D01*
X123035001Y-76842799D01*
X123058029Y-76912292D01*
X123090186Y-77009334D01*
X123182288Y-77158656D01*
X123306344Y-77282712D01*
X123450001Y-77371320D01*
X123461558Y-77378448D01*
X123508283Y-77430396D01*
X123519506Y-77499358D01*
X123491663Y-77563441D01*
X123484144Y-77571668D01*
X123345271Y-77710541D01*
X123220379Y-77882442D01*
X123123904Y-78071782D01*
X123058242Y-78273870D01*
X123058242Y-78273873D01*
X123047769Y-78340000D01*
X124095854Y-78340000D01*
X124057370Y-78406657D01*
X124025000Y-78527465D01*
X124025000Y-78652535D01*
X124057370Y-78773343D01*
X124095854Y-78840000D01*
X123047769Y-78840000D01*
X123058242Y-78906126D01*
X123058242Y-78906129D01*
X123123904Y-79108217D01*
X123220379Y-79297557D01*
X123345272Y-79469459D01*
X123345276Y-79469464D01*
X123495535Y-79619723D01*
X123495540Y-79619727D01*
X123660218Y-79739372D01*
X123702884Y-79794701D01*
X123708863Y-79864315D01*
X123676258Y-79926110D01*
X123660218Y-79940008D01*
X123495214Y-80059890D01*
X123495209Y-80059894D01*
X123344890Y-80210213D01*
X123217085Y-80386125D01*
X123215740Y-80385148D01*
X123169295Y-80427166D01*
X123115382Y-80439500D01*
X117384618Y-80439500D01*
X117317579Y-80419815D01*
X117283900Y-80385408D01*
X117282915Y-80386125D01*
X117155109Y-80210213D01*
X117004790Y-80059894D01*
X117004785Y-80059890D01*
X116839781Y-79940008D01*
X116797115Y-79884678D01*
X116791136Y-79815065D01*
X116823741Y-79753270D01*
X116839781Y-79739371D01*
X117004466Y-79619721D01*
X117154723Y-79469464D01*
X117154727Y-79469459D01*
X117279620Y-79297557D01*
X117376095Y-79108217D01*
X117441757Y-78906129D01*
X117441757Y-78906126D01*
X117452231Y-78840000D01*
X116404146Y-78840000D01*
X116442630Y-78773343D01*
X116475000Y-78652535D01*
X116475000Y-78527465D01*
X116442630Y-78406657D01*
X116404146Y-78340000D01*
X117452231Y-78340000D01*
X117441757Y-78273873D01*
X117441757Y-78273870D01*
X117376095Y-78071782D01*
X117279620Y-77882442D01*
X117154727Y-77710540D01*
X117154723Y-77710535D01*
X117015856Y-77571668D01*
X116982371Y-77510345D01*
X116987355Y-77440653D01*
X117029227Y-77384720D01*
X117038441Y-77378448D01*
X117044331Y-77374814D01*
X117044334Y-77374814D01*
X117193656Y-77282712D01*
X117317712Y-77158656D01*
X117409814Y-77009334D01*
X117464999Y-76842797D01*
X117475500Y-76740009D01*
X117475499Y-75439992D01*
X117464999Y-75337203D01*
X117409814Y-75170666D01*
X117317712Y-75021344D01*
X117193656Y-74897288D01*
X117100888Y-74840069D01*
X117044336Y-74805187D01*
X117044331Y-74805185D01*
X117042862Y-74804698D01*
X116877797Y-74750001D01*
X116877795Y-74750000D01*
X116775016Y-74739500D01*
X116775009Y-74739500D01*
X115620808Y-74739500D01*
X115553769Y-74719815D01*
X115533127Y-74703181D01*
X114476819Y-73646873D01*
X114443334Y-73585550D01*
X114440500Y-73559192D01*
X114440500Y-71528070D01*
X114460185Y-71461031D01*
X114491613Y-71427753D01*
X114637219Y-71321966D01*
X114781966Y-71177219D01*
X114781968Y-71177215D01*
X114781971Y-71177213D01*
X114902284Y-71011614D01*
X114902286Y-71011611D01*
X114902287Y-71011610D01*
X114949516Y-70918917D01*
X114997489Y-70868123D01*
X115065310Y-70851328D01*
X115131445Y-70873865D01*
X115170485Y-70918919D01*
X115217715Y-71011614D01*
X115338028Y-71177213D01*
X115482786Y-71321971D01*
X115617969Y-71420185D01*
X115648390Y-71442287D01*
X115728453Y-71483081D01*
X115830776Y-71535218D01*
X115830778Y-71535218D01*
X115830781Y-71535220D01*
X115935137Y-71569127D01*
X116025465Y-71598477D01*
X116126557Y-71614488D01*
X116227648Y-71630500D01*
X116227649Y-71630500D01*
X116432351Y-71630500D01*
X116432352Y-71630500D01*
X116634534Y-71598477D01*
X116829219Y-71535220D01*
X117011610Y-71442287D01*
X117131494Y-71355187D01*
X117177213Y-71321971D01*
X117177215Y-71321968D01*
X117177219Y-71321966D01*
X117321966Y-71177219D01*
X117321968Y-71177215D01*
X117321971Y-71177213D01*
X117442284Y-71011614D01*
X117442286Y-71011611D01*
X117442287Y-71011610D01*
X117489516Y-70918917D01*
X117537489Y-70868123D01*
X117605310Y-70851328D01*
X117671445Y-70873865D01*
X117710485Y-70918919D01*
X117757715Y-71011614D01*
X117878028Y-71177213D01*
X118022786Y-71321971D01*
X118157969Y-71420185D01*
X118188390Y-71442287D01*
X118268453Y-71483081D01*
X118370776Y-71535218D01*
X118370778Y-71535218D01*
X118370781Y-71535220D01*
X118475137Y-71569127D01*
X118565465Y-71598477D01*
X118666557Y-71614488D01*
X118767648Y-71630500D01*
X118767649Y-71630500D01*
X118972351Y-71630500D01*
X118972352Y-71630500D01*
X119174534Y-71598477D01*
X119369219Y-71535220D01*
X119551610Y-71442287D01*
X119671494Y-71355187D01*
X119717213Y-71321971D01*
X119717215Y-71321968D01*
X119717219Y-71321966D01*
X119861966Y-71177219D01*
X119861968Y-71177215D01*
X119861971Y-71177213D01*
X119982284Y-71011614D01*
X119982286Y-71011611D01*
X119982287Y-71011610D01*
X120029516Y-70918917D01*
X120077489Y-70868123D01*
X120145310Y-70851328D01*
X120211445Y-70873865D01*
X120250485Y-70918919D01*
X120297715Y-71011614D01*
X120418028Y-71177213D01*
X120562786Y-71321971D01*
X120697969Y-71420185D01*
X120728390Y-71442287D01*
X120808453Y-71483081D01*
X120910776Y-71535218D01*
X120910778Y-71535218D01*
X120910781Y-71535220D01*
X121015137Y-71569127D01*
X121105465Y-71598477D01*
X121206557Y-71614488D01*
X121307648Y-71630500D01*
X121307649Y-71630500D01*
X121512351Y-71630500D01*
X121512352Y-71630500D01*
X121714534Y-71598477D01*
X121909219Y-71535220D01*
X122091610Y-71442287D01*
X122211494Y-71355187D01*
X122257213Y-71321971D01*
X122257215Y-71321968D01*
X122257219Y-71321966D01*
X122401966Y-71177219D01*
X122401968Y-71177215D01*
X122401971Y-71177213D01*
X122522284Y-71011614D01*
X122522286Y-71011611D01*
X122522287Y-71011610D01*
X122569516Y-70918917D01*
X122617489Y-70868123D01*
X122685310Y-70851328D01*
X122751445Y-70873865D01*
X122790485Y-70918919D01*
X122837715Y-71011614D01*
X122958028Y-71177213D01*
X123102786Y-71321971D01*
X123237969Y-71420185D01*
X123268390Y-71442287D01*
X123348453Y-71483081D01*
X123450776Y-71535218D01*
X123450778Y-71535218D01*
X123450781Y-71535220D01*
X123555137Y-71569127D01*
X123645465Y-71598477D01*
X123746557Y-71614488D01*
X123847648Y-71630500D01*
X123847649Y-71630500D01*
X124052351Y-71630500D01*
X124052352Y-71630500D01*
X124254534Y-71598477D01*
X124449219Y-71535220D01*
X124631610Y-71442287D01*
X124751494Y-71355187D01*
X124797213Y-71321971D01*
X124797215Y-71321968D01*
X124797219Y-71321966D01*
X124941966Y-71177219D01*
X124941968Y-71177215D01*
X124941971Y-71177213D01*
X125062284Y-71011614D01*
X125062286Y-71011611D01*
X125062287Y-71011610D01*
X125109516Y-70918917D01*
X125157489Y-70868123D01*
X125225310Y-70851328D01*
X125291445Y-70873865D01*
G37*
%TD.AperFunction*%
%TA.AperFunction,Conductor*%
G36*
X127831445Y-70873865D02*
G01*
X127870485Y-70918919D01*
X127917715Y-71011614D01*
X128038028Y-71177213D01*
X128182784Y-71321969D01*
X128228506Y-71355187D01*
X128328385Y-71427753D01*
X128371051Y-71483081D01*
X128379500Y-71528070D01*
X128379500Y-73934069D01*
X128397773Y-74025931D01*
X128404499Y-74059744D01*
X128453535Y-74178127D01*
X128524723Y-74284669D01*
X128524726Y-74284673D01*
X128524727Y-74284674D01*
X130788181Y-76548127D01*
X130821666Y-76609450D01*
X130824500Y-76635807D01*
X130824500Y-76740000D01*
X130824501Y-76740019D01*
X130835000Y-76842796D01*
X130835001Y-76842799D01*
X130858029Y-76912292D01*
X130890186Y-77009334D01*
X130982288Y-77158656D01*
X131106344Y-77282712D01*
X131250001Y-77371320D01*
X131261558Y-77378448D01*
X131308283Y-77430396D01*
X131319506Y-77499358D01*
X131291663Y-77563441D01*
X131284144Y-77571668D01*
X131145271Y-77710541D01*
X131020379Y-77882442D01*
X130923904Y-78071782D01*
X130858242Y-78273870D01*
X130858242Y-78273873D01*
X130847769Y-78340000D01*
X131895854Y-78340000D01*
X131857370Y-78406657D01*
X131825000Y-78527465D01*
X131825000Y-78652535D01*
X131857370Y-78773343D01*
X131895854Y-78840000D01*
X130847769Y-78840000D01*
X130858242Y-78906126D01*
X130858242Y-78906129D01*
X130923904Y-79108217D01*
X131020379Y-79297557D01*
X131145272Y-79469459D01*
X131145276Y-79469464D01*
X131295535Y-79619723D01*
X131295540Y-79619727D01*
X131460218Y-79739372D01*
X131502884Y-79794701D01*
X131508863Y-79864315D01*
X131476258Y-79926110D01*
X131460218Y-79940008D01*
X131295214Y-80059890D01*
X131295209Y-80059894D01*
X131144890Y-80210213D01*
X131017085Y-80386125D01*
X131015740Y-80385148D01*
X130969295Y-80427166D01*
X130915382Y-80439500D01*
X125884618Y-80439500D01*
X125817579Y-80419815D01*
X125783900Y-80385408D01*
X125782915Y-80386125D01*
X125655109Y-80210213D01*
X125504790Y-80059894D01*
X125504785Y-80059890D01*
X125339781Y-79940008D01*
X125297115Y-79884678D01*
X125291136Y-79815065D01*
X125323741Y-79753270D01*
X125339781Y-79739371D01*
X125504466Y-79619721D01*
X125654723Y-79469464D01*
X125654727Y-79469459D01*
X125779620Y-79297557D01*
X125876095Y-79108217D01*
X125941757Y-78906129D01*
X125941757Y-78906126D01*
X125952231Y-78840000D01*
X124904146Y-78840000D01*
X124942630Y-78773343D01*
X124975000Y-78652535D01*
X124975000Y-78527465D01*
X124942630Y-78406657D01*
X124904146Y-78340000D01*
X125952231Y-78340000D01*
X125941757Y-78273873D01*
X125941757Y-78273870D01*
X125876095Y-78071782D01*
X125779620Y-77882442D01*
X125654727Y-77710540D01*
X125654723Y-77710535D01*
X125515856Y-77571668D01*
X125482371Y-77510345D01*
X125487355Y-77440653D01*
X125529227Y-77384720D01*
X125538441Y-77378448D01*
X125544331Y-77374814D01*
X125544334Y-77374814D01*
X125693656Y-77282712D01*
X125817712Y-77158656D01*
X125909814Y-77009334D01*
X125964999Y-76842797D01*
X125975500Y-76740009D01*
X125975499Y-75585807D01*
X125995184Y-75518769D01*
X126011818Y-75498127D01*
X126488602Y-75021344D01*
X126995277Y-74514669D01*
X127066465Y-74408127D01*
X127115501Y-74289744D01*
X127123682Y-74248615D01*
X127140500Y-74164071D01*
X127140500Y-71528070D01*
X127160185Y-71461031D01*
X127191613Y-71427753D01*
X127337219Y-71321966D01*
X127481966Y-71177219D01*
X127481968Y-71177215D01*
X127481971Y-71177213D01*
X127602284Y-71011614D01*
X127602286Y-71011611D01*
X127602287Y-71011610D01*
X127649516Y-70918917D01*
X127697489Y-70868123D01*
X127765310Y-70851328D01*
X127831445Y-70873865D01*
G37*
%TD.AperFunction*%
%TA.AperFunction,Conductor*%
G36*
X141180484Y-59620185D02*
G01*
X141226239Y-59672989D01*
X141236183Y-59742147D01*
X141231159Y-59760411D01*
X141232031Y-59760676D01*
X141230261Y-59766510D01*
X141199500Y-59921153D01*
X141199500Y-60078846D01*
X141230261Y-60233489D01*
X141230263Y-60233497D01*
X141240061Y-60257151D01*
X141249500Y-60304604D01*
X141249500Y-62195396D01*
X141240062Y-62242844D01*
X141230263Y-62266503D01*
X141230262Y-62266506D01*
X141230260Y-62266511D01*
X141199500Y-62421153D01*
X141199500Y-62578846D01*
X141230261Y-62733489D01*
X141230264Y-62733501D01*
X141290602Y-62879172D01*
X141290609Y-62879185D01*
X141378210Y-63010288D01*
X141378213Y-63010292D01*
X141489707Y-63121786D01*
X141489711Y-63121789D01*
X141620814Y-63209390D01*
X141620827Y-63209397D01*
X141766498Y-63269735D01*
X141766503Y-63269737D01*
X141921153Y-63300499D01*
X141921156Y-63300500D01*
X141921158Y-63300500D01*
X142078844Y-63300500D01*
X142078845Y-63300499D01*
X142233497Y-63269737D01*
X142379179Y-63209394D01*
X142510289Y-63121789D01*
X142621789Y-63010289D01*
X142709394Y-62879179D01*
X142769737Y-62733497D01*
X142800500Y-62578842D01*
X142800500Y-62421158D01*
X142800500Y-62421155D01*
X142800499Y-62421153D01*
X142769739Y-62266511D01*
X142769738Y-62266508D01*
X142769737Y-62266503D01*
X142759937Y-62242844D01*
X142750500Y-62195396D01*
X142750500Y-60304604D01*
X142759939Y-60257151D01*
X142759996Y-60257014D01*
X142769737Y-60233497D01*
X142800500Y-60078842D01*
X142800500Y-59921158D01*
X142800500Y-59921155D01*
X142800499Y-59921153D01*
X142787436Y-59855483D01*
X142769737Y-59766503D01*
X142769732Y-59766492D01*
X142767969Y-59760676D01*
X142770720Y-59759841D01*
X142764497Y-59702641D01*
X142795691Y-59640122D01*
X142855734Y-59604392D01*
X142886555Y-59600500D01*
X145912837Y-59600500D01*
X145979876Y-59620185D01*
X146025631Y-59672989D01*
X146034089Y-59698541D01*
X146034999Y-59702792D01*
X146054092Y-59760411D01*
X146090186Y-59869334D01*
X146182288Y-60018656D01*
X146306344Y-60142712D01*
X146419508Y-60212512D01*
X146461120Y-60238178D01*
X146507845Y-60290126D01*
X146519068Y-60359088D01*
X146491224Y-60423171D01*
X146483706Y-60431398D01*
X146344889Y-60570215D01*
X146219951Y-60742179D01*
X146123444Y-60931585D01*
X146057753Y-61133760D01*
X146025451Y-61337708D01*
X146024500Y-61343713D01*
X146024500Y-61556287D01*
X146057754Y-61766243D01*
X146113695Y-61938412D01*
X146123444Y-61968414D01*
X146219951Y-62157820D01*
X146344890Y-62329786D01*
X146495209Y-62480105D01*
X146495214Y-62480109D01*
X146660218Y-62599991D01*
X146702884Y-62655320D01*
X146708863Y-62724934D01*
X146676258Y-62786729D01*
X146660218Y-62800627D01*
X146495540Y-62920272D01*
X146495535Y-62920276D01*
X146345276Y-63070535D01*
X146345272Y-63070540D01*
X146220379Y-63242442D01*
X146123904Y-63431782D01*
X146058242Y-63633870D01*
X146058242Y-63633873D01*
X146047769Y-63700000D01*
X147095854Y-63700000D01*
X147057370Y-63766657D01*
X147025000Y-63887465D01*
X147025000Y-64012535D01*
X147057370Y-64133343D01*
X147095854Y-64200000D01*
X146047769Y-64200000D01*
X146058242Y-64266126D01*
X146058242Y-64266129D01*
X146123904Y-64468217D01*
X146220379Y-64657557D01*
X146345272Y-64829459D01*
X146345276Y-64829464D01*
X146495535Y-64979723D01*
X146495540Y-64979727D01*
X146660218Y-65099372D01*
X146702884Y-65154701D01*
X146708863Y-65224315D01*
X146676258Y-65286110D01*
X146660218Y-65300008D01*
X146495214Y-65419890D01*
X146495209Y-65419894D01*
X146344892Y-65570211D01*
X146288097Y-65648385D01*
X146232767Y-65691051D01*
X146187779Y-65699500D01*
X134066080Y-65699500D01*
X133921092Y-65728340D01*
X133921086Y-65728342D01*
X133784508Y-65784914D01*
X133784496Y-65784921D01*
X133735269Y-65817813D01*
X133661588Y-65867044D01*
X133661580Y-65867050D01*
X130987050Y-68541580D01*
X130987044Y-68541588D01*
X130937812Y-68615268D01*
X130937813Y-68615269D01*
X130904921Y-68664496D01*
X130904914Y-68664508D01*
X130848342Y-68801086D01*
X130848340Y-68801092D01*
X130819500Y-68946079D01*
X130819500Y-69204582D01*
X130799815Y-69271621D01*
X130768385Y-69304900D01*
X130722787Y-69338028D01*
X130722782Y-69338032D01*
X130578028Y-69482786D01*
X130457715Y-69648386D01*
X130410485Y-69741080D01*
X130362510Y-69791876D01*
X130294689Y-69808671D01*
X130228554Y-69786134D01*
X130189515Y-69741080D01*
X130142419Y-69648650D01*
X130142287Y-69648390D01*
X130111115Y-69605485D01*
X130021971Y-69482786D01*
X129877213Y-69338028D01*
X129711613Y-69217715D01*
X129711612Y-69217714D01*
X129711610Y-69217713D01*
X129631542Y-69176916D01*
X129529223Y-69124781D01*
X129334534Y-69061522D01*
X129159995Y-69033878D01*
X129132352Y-69029500D01*
X128927648Y-69029500D01*
X128903329Y-69033351D01*
X128725465Y-69061522D01*
X128530776Y-69124781D01*
X128348386Y-69217715D01*
X128182786Y-69338028D01*
X128038028Y-69482786D01*
X127917715Y-69648386D01*
X127870485Y-69741080D01*
X127822510Y-69791876D01*
X127754689Y-69808671D01*
X127688554Y-69786134D01*
X127649515Y-69741080D01*
X127602419Y-69648650D01*
X127602287Y-69648390D01*
X127571115Y-69605485D01*
X127481971Y-69482786D01*
X127337213Y-69338028D01*
X127171613Y-69217715D01*
X127171612Y-69217714D01*
X127171610Y-69217713D01*
X127091542Y-69176916D01*
X126989223Y-69124781D01*
X126794534Y-69061522D01*
X126619995Y-69033878D01*
X126592352Y-69029500D01*
X126387648Y-69029500D01*
X126363329Y-69033351D01*
X126185465Y-69061522D01*
X125990776Y-69124781D01*
X125808386Y-69217715D01*
X125642786Y-69338028D01*
X125498028Y-69482786D01*
X125377715Y-69648386D01*
X125330485Y-69741080D01*
X125282510Y-69791876D01*
X125214689Y-69808671D01*
X125148554Y-69786134D01*
X125109515Y-69741080D01*
X125062419Y-69648650D01*
X125062287Y-69648390D01*
X125031115Y-69605485D01*
X124941971Y-69482786D01*
X124797213Y-69338028D01*
X124631613Y-69217715D01*
X124631612Y-69217714D01*
X124631610Y-69217713D01*
X124551542Y-69176916D01*
X124449223Y-69124781D01*
X124254534Y-69061522D01*
X124079995Y-69033878D01*
X124052352Y-69029500D01*
X123847648Y-69029500D01*
X123823329Y-69033351D01*
X123645465Y-69061522D01*
X123450776Y-69124781D01*
X123268386Y-69217715D01*
X123102786Y-69338028D01*
X122958028Y-69482786D01*
X122837715Y-69648386D01*
X122790485Y-69741080D01*
X122742510Y-69791876D01*
X122674689Y-69808671D01*
X122608554Y-69786134D01*
X122569515Y-69741080D01*
X122522419Y-69648650D01*
X122522287Y-69648390D01*
X122491115Y-69605485D01*
X122401971Y-69482786D01*
X122257217Y-69338032D01*
X122257212Y-69338028D01*
X122111615Y-69232246D01*
X122068949Y-69176916D01*
X122060500Y-69131928D01*
X122060500Y-61750808D01*
X122080185Y-61683769D01*
X122096819Y-61663127D01*
X124123127Y-59636819D01*
X124184450Y-59603334D01*
X124210808Y-59600500D01*
X141113445Y-59600500D01*
X141180484Y-59620185D01*
G37*
%TD.AperFunction*%
%TA.AperFunction,Conductor*%
G36*
X152307421Y-62090185D02*
G01*
X152341099Y-62124591D01*
X152342085Y-62123875D01*
X152469890Y-62299786D01*
X152620213Y-62450109D01*
X152792179Y-62575048D01*
X152792181Y-62575049D01*
X152792184Y-62575051D01*
X152801493Y-62579794D01*
X152852290Y-62627766D01*
X152869087Y-62695587D01*
X152846552Y-62761722D01*
X152801502Y-62800762D01*
X152792443Y-62805378D01*
X152620540Y-62930272D01*
X152620535Y-62930276D01*
X152470276Y-63080535D01*
X152470272Y-63080540D01*
X152345379Y-63252442D01*
X152248904Y-63441782D01*
X152183242Y-63643870D01*
X152183242Y-63643873D01*
X152172769Y-63710000D01*
X153066988Y-63710000D01*
X153034075Y-63767007D01*
X153000000Y-63894174D01*
X153000000Y-64025826D01*
X153034075Y-64152993D01*
X153066988Y-64210000D01*
X152172769Y-64210000D01*
X152183242Y-64276126D01*
X152183242Y-64276129D01*
X152248904Y-64478217D01*
X152345379Y-64667557D01*
X152470272Y-64839459D01*
X152470276Y-64839464D01*
X152583946Y-64953134D01*
X152617431Y-65014457D01*
X152612447Y-65084149D01*
X152570575Y-65140082D01*
X152539598Y-65156997D01*
X152407671Y-65206202D01*
X152407664Y-65206206D01*
X152292455Y-65292452D01*
X152292452Y-65292455D01*
X152206206Y-65407664D01*
X152206202Y-65407671D01*
X152155908Y-65542517D01*
X152152931Y-65570211D01*
X152149501Y-65602123D01*
X152149500Y-65602135D01*
X152149500Y-65625500D01*
X152129815Y-65692539D01*
X152077011Y-65738294D01*
X152025500Y-65749500D01*
X148848547Y-65749500D01*
X148781508Y-65729815D01*
X148748230Y-65698385D01*
X148695276Y-65625500D01*
X148655107Y-65570211D01*
X148504790Y-65419894D01*
X148504785Y-65419890D01*
X148339781Y-65300008D01*
X148297115Y-65244678D01*
X148291136Y-65175065D01*
X148323741Y-65113270D01*
X148339781Y-65099371D01*
X148504466Y-64979721D01*
X148654723Y-64829464D01*
X148654727Y-64829459D01*
X148779620Y-64657557D01*
X148876095Y-64468217D01*
X148941757Y-64266129D01*
X148941757Y-64266126D01*
X148952231Y-64200000D01*
X147904146Y-64200000D01*
X147942630Y-64133343D01*
X147975000Y-64012535D01*
X147975000Y-63887465D01*
X147942630Y-63766657D01*
X147904146Y-63700000D01*
X148952231Y-63700000D01*
X148941757Y-63633873D01*
X148941757Y-63633870D01*
X148876095Y-63431782D01*
X148779620Y-63242442D01*
X148654727Y-63070540D01*
X148654723Y-63070535D01*
X148504464Y-62920276D01*
X148504459Y-62920272D01*
X148339781Y-62800627D01*
X148297115Y-62745297D01*
X148291136Y-62675684D01*
X148323741Y-62613889D01*
X148339776Y-62599994D01*
X148504792Y-62480104D01*
X148655104Y-62329792D01*
X148655106Y-62329788D01*
X148655109Y-62329786D01*
X148780050Y-62157817D01*
X148790043Y-62138206D01*
X148838017Y-62087410D01*
X148900528Y-62070500D01*
X152240382Y-62070500D01*
X152307421Y-62090185D01*
G37*
%TD.AperFunction*%
%TA.AperFunction,Conductor*%
G36*
X106450000Y-43847028D02*
G01*
X106641127Y-43816757D01*
X106843217Y-43751095D01*
X106969205Y-43686901D01*
X107037874Y-43674005D01*
X107102614Y-43700281D01*
X107142872Y-43757387D01*
X107149500Y-43797386D01*
X107149500Y-44913330D01*
X107149499Y-44913348D01*
X107149499Y-45079054D01*
X107149498Y-45079054D01*
X107190424Y-45231790D01*
X107191354Y-45234034D01*
X107191573Y-45236078D01*
X107192527Y-45239636D01*
X107191972Y-45239784D01*
X107198821Y-45303503D01*
X107167545Y-45365982D01*
X107107455Y-45401633D01*
X107037630Y-45399138D01*
X106989111Y-45369165D01*
X105645815Y-44025869D01*
X105612330Y-43964546D01*
X105617314Y-43894854D01*
X105659186Y-43838921D01*
X105724650Y-43814504D01*
X105753915Y-43816919D01*
X105754062Y-43815996D01*
X105950000Y-43847029D01*
X105950000Y-42904145D01*
X106016657Y-42942630D01*
X106137465Y-42975000D01*
X106262535Y-42975000D01*
X106383343Y-42942630D01*
X106450000Y-42904145D01*
X106450000Y-43847028D01*
G37*
%TD.AperFunction*%
%TA.AperFunction,Conductor*%
G36*
X167204809Y-35770185D02*
G01*
X167225451Y-35786819D01*
X171021915Y-39583283D01*
X171055400Y-39644606D01*
X171056707Y-39690361D01*
X171024500Y-39893712D01*
X171024500Y-40106286D01*
X171052350Y-40282127D01*
X171057754Y-40316243D01*
X171118888Y-40504394D01*
X171123444Y-40518414D01*
X171219951Y-40707820D01*
X171344890Y-40879786D01*
X171495209Y-41030105D01*
X171495214Y-41030109D01*
X171660218Y-41149991D01*
X171702884Y-41205320D01*
X171708863Y-41274934D01*
X171676258Y-41336729D01*
X171660218Y-41350627D01*
X171495540Y-41470272D01*
X171495535Y-41470276D01*
X171345276Y-41620535D01*
X171345272Y-41620540D01*
X171220379Y-41792442D01*
X171123904Y-41981782D01*
X171058242Y-42183869D01*
X171058242Y-42183872D01*
X171034179Y-42335796D01*
X171004249Y-42398931D01*
X170944938Y-42435862D01*
X170875075Y-42434864D01*
X170824025Y-42404079D01*
X167914674Y-39494727D01*
X167914673Y-39494726D01*
X167914669Y-39494723D01*
X167808127Y-39423535D01*
X167695808Y-39377011D01*
X167689744Y-39374499D01*
X167689738Y-39374497D01*
X167564071Y-39349500D01*
X167564069Y-39349500D01*
X166587163Y-39349500D01*
X166520124Y-39329815D01*
X166474369Y-39277011D01*
X166465911Y-39251459D01*
X166465000Y-39247207D01*
X166464999Y-39247203D01*
X166409814Y-39080666D01*
X166317712Y-38931344D01*
X166193656Y-38807288D01*
X166044334Y-38715186D01*
X166044332Y-38715185D01*
X166038440Y-38711551D01*
X165991716Y-38659603D01*
X165980493Y-38590641D01*
X166008337Y-38526558D01*
X166015856Y-38518330D01*
X166154728Y-38379458D01*
X166279620Y-38207557D01*
X166376095Y-38018217D01*
X166441757Y-37816129D01*
X166441757Y-37816126D01*
X166452231Y-37750000D01*
X165404146Y-37750000D01*
X165442630Y-37683343D01*
X165475000Y-37562535D01*
X165475000Y-37437465D01*
X165442630Y-37316657D01*
X165404146Y-37250000D01*
X166452231Y-37250000D01*
X166441757Y-37183873D01*
X166441757Y-37183870D01*
X166376095Y-36981782D01*
X166279620Y-36792442D01*
X166154727Y-36620540D01*
X166154723Y-36620535D01*
X166004464Y-36470276D01*
X166004459Y-36470272D01*
X165839781Y-36350627D01*
X165797115Y-36295297D01*
X165791136Y-36225684D01*
X165823741Y-36163889D01*
X165839776Y-36149994D01*
X166004792Y-36030104D01*
X166155104Y-35879792D01*
X166187287Y-35835496D01*
X166211903Y-35801615D01*
X166267233Y-35758949D01*
X166312221Y-35750500D01*
X167137770Y-35750500D01*
X167204809Y-35770185D01*
G37*
%TD.AperFunction*%
%TA.AperFunction,Conductor*%
G36*
X128004818Y-35770185D02*
G01*
X128038097Y-35801615D01*
X128094892Y-35879788D01*
X128245209Y-36030105D01*
X128245214Y-36030109D01*
X128410218Y-36149991D01*
X128452884Y-36205320D01*
X128458863Y-36274934D01*
X128426258Y-36336729D01*
X128410218Y-36350627D01*
X128245540Y-36470272D01*
X128245535Y-36470276D01*
X128095276Y-36620535D01*
X128095272Y-36620540D01*
X127970379Y-36792442D01*
X127873904Y-36981782D01*
X127808242Y-37183870D01*
X127808242Y-37183873D01*
X127797769Y-37250000D01*
X128845854Y-37250000D01*
X128807370Y-37316657D01*
X128775000Y-37437465D01*
X128775000Y-37562535D01*
X128807370Y-37683343D01*
X128845854Y-37750000D01*
X127797769Y-37750000D01*
X127808242Y-37816126D01*
X127808242Y-37816129D01*
X127873904Y-38018217D01*
X127970379Y-38207557D01*
X128095272Y-38379459D01*
X128095276Y-38379464D01*
X128234143Y-38518331D01*
X128267628Y-38579654D01*
X128262644Y-38649346D01*
X128220772Y-38705279D01*
X128211559Y-38711551D01*
X128056342Y-38807289D01*
X127932289Y-38931342D01*
X127840187Y-39080663D01*
X127840185Y-39080668D01*
X127785000Y-39247204D01*
X127784088Y-39251467D01*
X127750801Y-39312898D01*
X127689586Y-39346581D01*
X127662837Y-39349500D01*
X123587163Y-39349500D01*
X123520124Y-39329815D01*
X123474369Y-39277011D01*
X123465911Y-39251459D01*
X123465000Y-39247207D01*
X123464999Y-39247203D01*
X123409814Y-39080666D01*
X123317712Y-38931344D01*
X123193656Y-38807288D01*
X123044334Y-38715186D01*
X123044332Y-38715185D01*
X123038440Y-38711551D01*
X122991716Y-38659603D01*
X122980493Y-38590641D01*
X123008337Y-38526558D01*
X123015856Y-38518330D01*
X123154728Y-38379458D01*
X123279620Y-38207557D01*
X123376095Y-38018217D01*
X123441757Y-37816129D01*
X123441757Y-37816126D01*
X123452231Y-37750000D01*
X122404146Y-37750000D01*
X122442630Y-37683343D01*
X122475000Y-37562535D01*
X122475000Y-37437465D01*
X122442630Y-37316657D01*
X122404146Y-37250000D01*
X123452231Y-37250000D01*
X123441757Y-37183873D01*
X123441757Y-37183870D01*
X123376095Y-36981782D01*
X123279620Y-36792442D01*
X123154727Y-36620540D01*
X123154723Y-36620535D01*
X123004464Y-36470276D01*
X123004459Y-36470272D01*
X122839781Y-36350627D01*
X122797115Y-36295297D01*
X122791136Y-36225684D01*
X122823741Y-36163889D01*
X122839776Y-36149994D01*
X123004792Y-36030104D01*
X123155104Y-35879792D01*
X123187287Y-35835496D01*
X123211903Y-35801615D01*
X123267233Y-35758949D01*
X123312221Y-35750500D01*
X127937779Y-35750500D01*
X128004818Y-35770185D01*
G37*
%TD.AperFunction*%
%TA.AperFunction,Conductor*%
G36*
X135054818Y-35770185D02*
G01*
X135088097Y-35801615D01*
X135144892Y-35879788D01*
X135295209Y-36030105D01*
X135295214Y-36030109D01*
X135460218Y-36149991D01*
X135502884Y-36205320D01*
X135508863Y-36274934D01*
X135476258Y-36336729D01*
X135460218Y-36350627D01*
X135295540Y-36470272D01*
X135295535Y-36470276D01*
X135145276Y-36620535D01*
X135145272Y-36620540D01*
X135020379Y-36792442D01*
X134923904Y-36981782D01*
X134858242Y-37183870D01*
X134858242Y-37183873D01*
X134847769Y-37250000D01*
X135895854Y-37250000D01*
X135857370Y-37316657D01*
X135825000Y-37437465D01*
X135825000Y-37562535D01*
X135857370Y-37683343D01*
X135895854Y-37750000D01*
X134847769Y-37750000D01*
X134858242Y-37816126D01*
X134858242Y-37816129D01*
X134923904Y-38018217D01*
X135020379Y-38207557D01*
X135145272Y-38379459D01*
X135145276Y-38379464D01*
X135284143Y-38518331D01*
X135317628Y-38579654D01*
X135312644Y-38649346D01*
X135270772Y-38705279D01*
X135261559Y-38711551D01*
X135106342Y-38807289D01*
X134982289Y-38931342D01*
X134890187Y-39080663D01*
X134890185Y-39080668D01*
X134835000Y-39247204D01*
X134834088Y-39251467D01*
X134800801Y-39312898D01*
X134739586Y-39346581D01*
X134712837Y-39349500D01*
X130837163Y-39349500D01*
X130770124Y-39329815D01*
X130724369Y-39277011D01*
X130715911Y-39251459D01*
X130715000Y-39247207D01*
X130714999Y-39247203D01*
X130659814Y-39080666D01*
X130567712Y-38931344D01*
X130443656Y-38807288D01*
X130294334Y-38715186D01*
X130294332Y-38715185D01*
X130288440Y-38711551D01*
X130241716Y-38659603D01*
X130230493Y-38590641D01*
X130258337Y-38526558D01*
X130265856Y-38518330D01*
X130404728Y-38379458D01*
X130529620Y-38207557D01*
X130626095Y-38018217D01*
X130691757Y-37816129D01*
X130691757Y-37816126D01*
X130702231Y-37750000D01*
X129654146Y-37750000D01*
X129692630Y-37683343D01*
X129725000Y-37562535D01*
X129725000Y-37437465D01*
X129692630Y-37316657D01*
X129654146Y-37250000D01*
X130702231Y-37250000D01*
X130691757Y-37183873D01*
X130691757Y-37183870D01*
X130626095Y-36981782D01*
X130529620Y-36792442D01*
X130404727Y-36620540D01*
X130404723Y-36620535D01*
X130254464Y-36470276D01*
X130254459Y-36470272D01*
X130089781Y-36350627D01*
X130047115Y-36295297D01*
X130041136Y-36225684D01*
X130073741Y-36163889D01*
X130089776Y-36149994D01*
X130254792Y-36030104D01*
X130405104Y-35879792D01*
X130437287Y-35835496D01*
X130461903Y-35801615D01*
X130517233Y-35758949D01*
X130562221Y-35750500D01*
X134987779Y-35750500D01*
X135054818Y-35770185D01*
G37*
%TD.AperFunction*%
%TA.AperFunction,Conductor*%
G36*
X142254818Y-35770185D02*
G01*
X142288097Y-35801615D01*
X142344892Y-35879788D01*
X142495209Y-36030105D01*
X142495214Y-36030109D01*
X142660218Y-36149991D01*
X142702884Y-36205320D01*
X142708863Y-36274934D01*
X142676258Y-36336729D01*
X142660218Y-36350627D01*
X142495540Y-36470272D01*
X142495535Y-36470276D01*
X142345276Y-36620535D01*
X142345272Y-36620540D01*
X142220379Y-36792442D01*
X142123904Y-36981782D01*
X142058242Y-37183870D01*
X142058242Y-37183873D01*
X142047769Y-37250000D01*
X143095854Y-37250000D01*
X143057370Y-37316657D01*
X143025000Y-37437465D01*
X143025000Y-37562535D01*
X143057370Y-37683343D01*
X143095854Y-37750000D01*
X142047769Y-37750000D01*
X142058242Y-37816126D01*
X142058242Y-37816129D01*
X142123904Y-38018217D01*
X142220379Y-38207557D01*
X142345272Y-38379459D01*
X142345276Y-38379464D01*
X142484143Y-38518331D01*
X142517628Y-38579654D01*
X142512644Y-38649346D01*
X142470772Y-38705279D01*
X142461559Y-38711551D01*
X142306342Y-38807289D01*
X142182289Y-38931342D01*
X142090187Y-39080663D01*
X142090185Y-39080668D01*
X142035000Y-39247204D01*
X142034088Y-39251467D01*
X142000801Y-39312898D01*
X141939586Y-39346581D01*
X141912837Y-39349500D01*
X137887163Y-39349500D01*
X137820124Y-39329815D01*
X137774369Y-39277011D01*
X137765911Y-39251459D01*
X137765000Y-39247207D01*
X137764999Y-39247203D01*
X137709814Y-39080666D01*
X137617712Y-38931344D01*
X137493656Y-38807288D01*
X137344334Y-38715186D01*
X137344332Y-38715185D01*
X137338440Y-38711551D01*
X137291716Y-38659603D01*
X137280493Y-38590641D01*
X137308337Y-38526558D01*
X137315856Y-38518330D01*
X137454728Y-38379458D01*
X137579620Y-38207557D01*
X137676095Y-38018217D01*
X137741757Y-37816129D01*
X137741757Y-37816126D01*
X137752231Y-37750000D01*
X136704146Y-37750000D01*
X136742630Y-37683343D01*
X136775000Y-37562535D01*
X136775000Y-37437465D01*
X136742630Y-37316657D01*
X136704146Y-37250000D01*
X137752231Y-37250000D01*
X137741757Y-37183873D01*
X137741757Y-37183870D01*
X137676095Y-36981782D01*
X137579620Y-36792442D01*
X137454727Y-36620540D01*
X137454723Y-36620535D01*
X137304464Y-36470276D01*
X137304459Y-36470272D01*
X137139781Y-36350627D01*
X137097115Y-36295297D01*
X137091136Y-36225684D01*
X137123741Y-36163889D01*
X137139776Y-36149994D01*
X137304792Y-36030104D01*
X137455104Y-35879792D01*
X137487287Y-35835496D01*
X137511903Y-35801615D01*
X137567233Y-35758949D01*
X137612221Y-35750500D01*
X142187779Y-35750500D01*
X142254818Y-35770185D01*
G37*
%TD.AperFunction*%
%TA.AperFunction,Conductor*%
G36*
X149229818Y-35770185D02*
G01*
X149263097Y-35801615D01*
X149319892Y-35879788D01*
X149470209Y-36030105D01*
X149470214Y-36030109D01*
X149635218Y-36149991D01*
X149677884Y-36205320D01*
X149683863Y-36274934D01*
X149651258Y-36336729D01*
X149635218Y-36350627D01*
X149470540Y-36470272D01*
X149470535Y-36470276D01*
X149320276Y-36620535D01*
X149320272Y-36620540D01*
X149195379Y-36792442D01*
X149098904Y-36981782D01*
X149033242Y-37183870D01*
X149033242Y-37183873D01*
X149022769Y-37250000D01*
X150070854Y-37250000D01*
X150032370Y-37316657D01*
X150000000Y-37437465D01*
X150000000Y-37562535D01*
X150032370Y-37683343D01*
X150070854Y-37750000D01*
X149022769Y-37750000D01*
X149033242Y-37816126D01*
X149033242Y-37816129D01*
X149098904Y-38018217D01*
X149195379Y-38207557D01*
X149320272Y-38379459D01*
X149320276Y-38379464D01*
X149459143Y-38518331D01*
X149492628Y-38579654D01*
X149487644Y-38649346D01*
X149445772Y-38705279D01*
X149436559Y-38711551D01*
X149281342Y-38807289D01*
X149157289Y-38931342D01*
X149065187Y-39080663D01*
X149065185Y-39080668D01*
X149010000Y-39247204D01*
X149009088Y-39251467D01*
X148975801Y-39312898D01*
X148914586Y-39346581D01*
X148887837Y-39349500D01*
X145087163Y-39349500D01*
X145020124Y-39329815D01*
X144974369Y-39277011D01*
X144965911Y-39251459D01*
X144965000Y-39247207D01*
X144964999Y-39247203D01*
X144909814Y-39080666D01*
X144817712Y-38931344D01*
X144693656Y-38807288D01*
X144544334Y-38715186D01*
X144544332Y-38715185D01*
X144538440Y-38711551D01*
X144491716Y-38659603D01*
X144480493Y-38590641D01*
X144508337Y-38526558D01*
X144515856Y-38518330D01*
X144654728Y-38379458D01*
X144779620Y-38207557D01*
X144876095Y-38018217D01*
X144941757Y-37816129D01*
X144941757Y-37816126D01*
X144952231Y-37750000D01*
X143904146Y-37750000D01*
X143942630Y-37683343D01*
X143975000Y-37562535D01*
X143975000Y-37437465D01*
X143942630Y-37316657D01*
X143904146Y-37250000D01*
X144952231Y-37250000D01*
X144941757Y-37183873D01*
X144941757Y-37183870D01*
X144876095Y-36981782D01*
X144779620Y-36792442D01*
X144654727Y-36620540D01*
X144654723Y-36620535D01*
X144504464Y-36470276D01*
X144504459Y-36470272D01*
X144339781Y-36350627D01*
X144297115Y-36295297D01*
X144291136Y-36225684D01*
X144323741Y-36163889D01*
X144339776Y-36149994D01*
X144504792Y-36030104D01*
X144655104Y-35879792D01*
X144687287Y-35835496D01*
X144711903Y-35801615D01*
X144767233Y-35758949D01*
X144812221Y-35750500D01*
X149162779Y-35750500D01*
X149229818Y-35770185D01*
G37*
%TD.AperFunction*%
%TA.AperFunction,Conductor*%
G36*
X156504818Y-35770185D02*
G01*
X156538097Y-35801615D01*
X156594892Y-35879788D01*
X156745209Y-36030105D01*
X156745214Y-36030109D01*
X156910218Y-36149991D01*
X156952884Y-36205320D01*
X156958863Y-36274934D01*
X156926258Y-36336729D01*
X156910218Y-36350627D01*
X156745540Y-36470272D01*
X156745535Y-36470276D01*
X156595276Y-36620535D01*
X156595272Y-36620540D01*
X156470379Y-36792442D01*
X156373904Y-36981782D01*
X156308242Y-37183870D01*
X156308242Y-37183873D01*
X156297769Y-37250000D01*
X157345854Y-37250000D01*
X157307370Y-37316657D01*
X157275000Y-37437465D01*
X157275000Y-37562535D01*
X157307370Y-37683343D01*
X157345854Y-37750000D01*
X156297769Y-37750000D01*
X156308242Y-37816126D01*
X156308242Y-37816129D01*
X156373904Y-38018217D01*
X156470379Y-38207557D01*
X156595272Y-38379459D01*
X156595276Y-38379464D01*
X156734143Y-38518331D01*
X156767628Y-38579654D01*
X156762644Y-38649346D01*
X156720772Y-38705279D01*
X156711559Y-38711551D01*
X156556342Y-38807289D01*
X156432289Y-38931342D01*
X156340187Y-39080663D01*
X156340185Y-39080668D01*
X156285000Y-39247204D01*
X156284088Y-39251467D01*
X156250801Y-39312898D01*
X156189586Y-39346581D01*
X156162837Y-39349500D01*
X152062163Y-39349500D01*
X151995124Y-39329815D01*
X151949369Y-39277011D01*
X151940911Y-39251459D01*
X151940000Y-39247207D01*
X151939999Y-39247203D01*
X151884814Y-39080666D01*
X151792712Y-38931344D01*
X151668656Y-38807288D01*
X151519334Y-38715186D01*
X151519332Y-38715185D01*
X151513440Y-38711551D01*
X151466716Y-38659603D01*
X151455493Y-38590641D01*
X151483337Y-38526558D01*
X151490856Y-38518330D01*
X151629728Y-38379458D01*
X151754620Y-38207557D01*
X151851095Y-38018217D01*
X151916757Y-37816129D01*
X151916757Y-37816126D01*
X151927231Y-37750000D01*
X150879146Y-37750000D01*
X150917630Y-37683343D01*
X150950000Y-37562535D01*
X150950000Y-37437465D01*
X150917630Y-37316657D01*
X150879146Y-37250000D01*
X151927231Y-37250000D01*
X151916757Y-37183873D01*
X151916757Y-37183870D01*
X151851095Y-36981782D01*
X151754620Y-36792442D01*
X151629727Y-36620540D01*
X151629723Y-36620535D01*
X151479464Y-36470276D01*
X151479459Y-36470272D01*
X151314781Y-36350627D01*
X151272115Y-36295297D01*
X151266136Y-36225684D01*
X151298741Y-36163889D01*
X151314776Y-36149994D01*
X151479792Y-36030104D01*
X151630104Y-35879792D01*
X151662287Y-35835496D01*
X151686903Y-35801615D01*
X151742233Y-35758949D01*
X151787221Y-35750500D01*
X156437779Y-35750500D01*
X156504818Y-35770185D01*
G37*
%TD.AperFunction*%
%TA.AperFunction,Conductor*%
G36*
X163754818Y-35770185D02*
G01*
X163788097Y-35801615D01*
X163844892Y-35879788D01*
X163995209Y-36030105D01*
X163995214Y-36030109D01*
X164160218Y-36149991D01*
X164202884Y-36205320D01*
X164208863Y-36274934D01*
X164176258Y-36336729D01*
X164160218Y-36350627D01*
X163995540Y-36470272D01*
X163995535Y-36470276D01*
X163845276Y-36620535D01*
X163845272Y-36620540D01*
X163720379Y-36792442D01*
X163623904Y-36981782D01*
X163558242Y-37183870D01*
X163558242Y-37183873D01*
X163547769Y-37250000D01*
X164595854Y-37250000D01*
X164557370Y-37316657D01*
X164525000Y-37437465D01*
X164525000Y-37562535D01*
X164557370Y-37683343D01*
X164595854Y-37750000D01*
X163547769Y-37750000D01*
X163558242Y-37816126D01*
X163558242Y-37816129D01*
X163623904Y-38018217D01*
X163720379Y-38207557D01*
X163845272Y-38379459D01*
X163845276Y-38379464D01*
X163984143Y-38518331D01*
X164017628Y-38579654D01*
X164012644Y-38649346D01*
X163970772Y-38705279D01*
X163961559Y-38711551D01*
X163806342Y-38807289D01*
X163682289Y-38931342D01*
X163590187Y-39080663D01*
X163590185Y-39080668D01*
X163535000Y-39247204D01*
X163534088Y-39251467D01*
X163500801Y-39312898D01*
X163439586Y-39346581D01*
X163412837Y-39349500D01*
X159337163Y-39349500D01*
X159270124Y-39329815D01*
X159224369Y-39277011D01*
X159215911Y-39251459D01*
X159215000Y-39247207D01*
X159214999Y-39247203D01*
X159159814Y-39080666D01*
X159067712Y-38931344D01*
X158943656Y-38807288D01*
X158794334Y-38715186D01*
X158794332Y-38715185D01*
X158788440Y-38711551D01*
X158741716Y-38659603D01*
X158730493Y-38590641D01*
X158758337Y-38526558D01*
X158765856Y-38518330D01*
X158904728Y-38379458D01*
X159029620Y-38207557D01*
X159126095Y-38018217D01*
X159191757Y-37816129D01*
X159191757Y-37816126D01*
X159202231Y-37750000D01*
X158154146Y-37750000D01*
X158192630Y-37683343D01*
X158225000Y-37562535D01*
X158225000Y-37437465D01*
X158192630Y-37316657D01*
X158154146Y-37250000D01*
X159202231Y-37250000D01*
X159191757Y-37183873D01*
X159191757Y-37183870D01*
X159126095Y-36981782D01*
X159029620Y-36792442D01*
X158904727Y-36620540D01*
X158904723Y-36620535D01*
X158754464Y-36470276D01*
X158754459Y-36470272D01*
X158589781Y-36350627D01*
X158547115Y-36295297D01*
X158541136Y-36225684D01*
X158573741Y-36163889D01*
X158589776Y-36149994D01*
X158754792Y-36030104D01*
X158905104Y-35879792D01*
X158937287Y-35835496D01*
X158961903Y-35801615D01*
X159017233Y-35758949D01*
X159062221Y-35750500D01*
X163687779Y-35750500D01*
X163754818Y-35770185D01*
G37*
%TD.AperFunction*%
%TD*%
M02*
