%TF.GenerationSoftware,KiCad,Pcbnew,9.0.0*%
%TF.CreationDate,2025-06-03T14:13:47+05:30*%
%TF.ProjectId,mini_hvac_0,6d696e69-5f68-4766-9163-5f302e6b6963,rev?*%
%TF.SameCoordinates,Original*%
%TF.FileFunction,Legend,Top*%
%TF.FilePolarity,Positive*%
%FSLAX46Y46*%
G04 Gerber Fmt 4.6, Leading zero omitted, Abs format (unit mm)*
G04 Created by KiCad (PCBNEW 9.0.0) date 2025-06-03 14:13:47*
%MOMM*%
%LPD*%
G01*
G04 APERTURE LIST*
%ADD10C,0.150000*%
%ADD11C,0.120000*%
G04 APERTURE END LIST*
D10*
X168657200Y-65583332D02*
X168704819Y-65440475D01*
X168704819Y-65440475D02*
X168704819Y-65202380D01*
X168704819Y-65202380D02*
X168657200Y-65107142D01*
X168657200Y-65107142D02*
X168609580Y-65059523D01*
X168609580Y-65059523D02*
X168514342Y-65011904D01*
X168514342Y-65011904D02*
X168419104Y-65011904D01*
X168419104Y-65011904D02*
X168323866Y-65059523D01*
X168323866Y-65059523D02*
X168276247Y-65107142D01*
X168276247Y-65107142D02*
X168228628Y-65202380D01*
X168228628Y-65202380D02*
X168181009Y-65392856D01*
X168181009Y-65392856D02*
X168133390Y-65488094D01*
X168133390Y-65488094D02*
X168085771Y-65535713D01*
X168085771Y-65535713D02*
X167990533Y-65583332D01*
X167990533Y-65583332D02*
X167895295Y-65583332D01*
X167895295Y-65583332D02*
X167800057Y-65535713D01*
X167800057Y-65535713D02*
X167752438Y-65488094D01*
X167752438Y-65488094D02*
X167704819Y-65392856D01*
X167704819Y-65392856D02*
X167704819Y-65154761D01*
X167704819Y-65154761D02*
X167752438Y-65011904D01*
X167704819Y-64678570D02*
X168704819Y-64440475D01*
X168704819Y-64440475D02*
X167990533Y-64249999D01*
X167990533Y-64249999D02*
X168704819Y-64059523D01*
X168704819Y-64059523D02*
X167704819Y-63821428D01*
X167800057Y-63488094D02*
X167752438Y-63440475D01*
X167752438Y-63440475D02*
X167704819Y-63345237D01*
X167704819Y-63345237D02*
X167704819Y-63107142D01*
X167704819Y-63107142D02*
X167752438Y-63011904D01*
X167752438Y-63011904D02*
X167800057Y-62964285D01*
X167800057Y-62964285D02*
X167895295Y-62916666D01*
X167895295Y-62916666D02*
X167990533Y-62916666D01*
X167990533Y-62916666D02*
X168133390Y-62964285D01*
X168133390Y-62964285D02*
X168704819Y-63535713D01*
X168704819Y-63535713D02*
X168704819Y-62916666D01*
X144439104Y-63424285D02*
X144439104Y-62948095D01*
X144724819Y-63519523D02*
X143724819Y-63186190D01*
X143724819Y-63186190D02*
X144724819Y-62852857D01*
X144724819Y-61995714D02*
X144724819Y-62567142D01*
X144724819Y-62281428D02*
X143724819Y-62281428D01*
X143724819Y-62281428D02*
X143867676Y-62376666D01*
X143867676Y-62376666D02*
X143962914Y-62471904D01*
X143962914Y-62471904D02*
X144010533Y-62567142D01*
X104175180Y-61448095D02*
X103365657Y-61448095D01*
X103365657Y-61448095D02*
X103270419Y-61495714D01*
X103270419Y-61495714D02*
X103222800Y-61543333D01*
X103222800Y-61543333D02*
X103175180Y-61638571D01*
X103175180Y-61638571D02*
X103175180Y-61829047D01*
X103175180Y-61829047D02*
X103222800Y-61924285D01*
X103222800Y-61924285D02*
X103270419Y-61971904D01*
X103270419Y-61971904D02*
X103365657Y-62019523D01*
X103365657Y-62019523D02*
X104175180Y-62019523D01*
X103222800Y-62448095D02*
X103175180Y-62590952D01*
X103175180Y-62590952D02*
X103175180Y-62829047D01*
X103175180Y-62829047D02*
X103222800Y-62924285D01*
X103222800Y-62924285D02*
X103270419Y-62971904D01*
X103270419Y-62971904D02*
X103365657Y-63019523D01*
X103365657Y-63019523D02*
X103460895Y-63019523D01*
X103460895Y-63019523D02*
X103556133Y-62971904D01*
X103556133Y-62971904D02*
X103603752Y-62924285D01*
X103603752Y-62924285D02*
X103651371Y-62829047D01*
X103651371Y-62829047D02*
X103698990Y-62638571D01*
X103698990Y-62638571D02*
X103746609Y-62543333D01*
X103746609Y-62543333D02*
X103794228Y-62495714D01*
X103794228Y-62495714D02*
X103889466Y-62448095D01*
X103889466Y-62448095D02*
X103984704Y-62448095D01*
X103984704Y-62448095D02*
X104079942Y-62495714D01*
X104079942Y-62495714D02*
X104127561Y-62543333D01*
X104127561Y-62543333D02*
X104175180Y-62638571D01*
X104175180Y-62638571D02*
X104175180Y-62876666D01*
X104175180Y-62876666D02*
X104127561Y-63019523D01*
X103698990Y-63781428D02*
X103651371Y-63924285D01*
X103651371Y-63924285D02*
X103603752Y-63971904D01*
X103603752Y-63971904D02*
X103508514Y-64019523D01*
X103508514Y-64019523D02*
X103365657Y-64019523D01*
X103365657Y-64019523D02*
X103270419Y-63971904D01*
X103270419Y-63971904D02*
X103222800Y-63924285D01*
X103222800Y-63924285D02*
X103175180Y-63829047D01*
X103175180Y-63829047D02*
X103175180Y-63448095D01*
X103175180Y-63448095D02*
X104175180Y-63448095D01*
X104175180Y-63448095D02*
X104175180Y-63781428D01*
X104175180Y-63781428D02*
X104127561Y-63876666D01*
X104127561Y-63876666D02*
X104079942Y-63924285D01*
X104079942Y-63924285D02*
X103984704Y-63971904D01*
X103984704Y-63971904D02*
X103889466Y-63971904D01*
X103889466Y-63971904D02*
X103794228Y-63924285D01*
X103794228Y-63924285D02*
X103746609Y-63876666D01*
X103746609Y-63876666D02*
X103698990Y-63781428D01*
X103698990Y-63781428D02*
X103698990Y-63448095D01*
X119004819Y-79399523D02*
X119719104Y-79399523D01*
X119719104Y-79399523D02*
X119861961Y-79447142D01*
X119861961Y-79447142D02*
X119957200Y-79542380D01*
X119957200Y-79542380D02*
X120004819Y-79685237D01*
X120004819Y-79685237D02*
X120004819Y-79780475D01*
X120004819Y-78399523D02*
X120004819Y-78970951D01*
X120004819Y-78685237D02*
X119004819Y-78685237D01*
X119004819Y-78685237D02*
X119147676Y-78780475D01*
X119147676Y-78780475D02*
X119242914Y-78875713D01*
X119242914Y-78875713D02*
X119290533Y-78970951D01*
X120004819Y-77447142D02*
X120004819Y-78018570D01*
X120004819Y-77732856D02*
X119004819Y-77732856D01*
X119004819Y-77732856D02*
X119147676Y-77828094D01*
X119147676Y-77828094D02*
X119242914Y-77923332D01*
X119242914Y-77923332D02*
X119290533Y-78018570D01*
X146379819Y-37833333D02*
X147094104Y-37833333D01*
X147094104Y-37833333D02*
X147236961Y-37880952D01*
X147236961Y-37880952D02*
X147332200Y-37976190D01*
X147332200Y-37976190D02*
X147379819Y-38119047D01*
X147379819Y-38119047D02*
X147379819Y-38214285D01*
X146379819Y-36880952D02*
X146379819Y-37357142D01*
X146379819Y-37357142D02*
X146856009Y-37404761D01*
X146856009Y-37404761D02*
X146808390Y-37357142D01*
X146808390Y-37357142D02*
X146760771Y-37261904D01*
X146760771Y-37261904D02*
X146760771Y-37023809D01*
X146760771Y-37023809D02*
X146808390Y-36928571D01*
X146808390Y-36928571D02*
X146856009Y-36880952D01*
X146856009Y-36880952D02*
X146951247Y-36833333D01*
X146951247Y-36833333D02*
X147189342Y-36833333D01*
X147189342Y-36833333D02*
X147284580Y-36880952D01*
X147284580Y-36880952D02*
X147332200Y-36928571D01*
X147332200Y-36928571D02*
X147379819Y-37023809D01*
X147379819Y-37023809D02*
X147379819Y-37261904D01*
X147379819Y-37261904D02*
X147332200Y-37357142D01*
X147332200Y-37357142D02*
X147284580Y-37404761D01*
X168657200Y-55833332D02*
X168704819Y-55690475D01*
X168704819Y-55690475D02*
X168704819Y-55452380D01*
X168704819Y-55452380D02*
X168657200Y-55357142D01*
X168657200Y-55357142D02*
X168609580Y-55309523D01*
X168609580Y-55309523D02*
X168514342Y-55261904D01*
X168514342Y-55261904D02*
X168419104Y-55261904D01*
X168419104Y-55261904D02*
X168323866Y-55309523D01*
X168323866Y-55309523D02*
X168276247Y-55357142D01*
X168276247Y-55357142D02*
X168228628Y-55452380D01*
X168228628Y-55452380D02*
X168181009Y-55642856D01*
X168181009Y-55642856D02*
X168133390Y-55738094D01*
X168133390Y-55738094D02*
X168085771Y-55785713D01*
X168085771Y-55785713D02*
X167990533Y-55833332D01*
X167990533Y-55833332D02*
X167895295Y-55833332D01*
X167895295Y-55833332D02*
X167800057Y-55785713D01*
X167800057Y-55785713D02*
X167752438Y-55738094D01*
X167752438Y-55738094D02*
X167704819Y-55642856D01*
X167704819Y-55642856D02*
X167704819Y-55404761D01*
X167704819Y-55404761D02*
X167752438Y-55261904D01*
X167704819Y-54928570D02*
X168704819Y-54690475D01*
X168704819Y-54690475D02*
X167990533Y-54499999D01*
X167990533Y-54499999D02*
X168704819Y-54309523D01*
X168704819Y-54309523D02*
X167704819Y-54071428D01*
X167704819Y-53785713D02*
X167704819Y-53166666D01*
X167704819Y-53166666D02*
X168085771Y-53499999D01*
X168085771Y-53499999D02*
X168085771Y-53357142D01*
X168085771Y-53357142D02*
X168133390Y-53261904D01*
X168133390Y-53261904D02*
X168181009Y-53214285D01*
X168181009Y-53214285D02*
X168276247Y-53166666D01*
X168276247Y-53166666D02*
X168514342Y-53166666D01*
X168514342Y-53166666D02*
X168609580Y-53214285D01*
X168609580Y-53214285D02*
X168657200Y-53261904D01*
X168657200Y-53261904D02*
X168704819Y-53357142D01*
X168704819Y-53357142D02*
X168704819Y-53642856D01*
X168704819Y-53642856D02*
X168657200Y-53738094D01*
X168657200Y-53738094D02*
X168609580Y-53785713D01*
X111204819Y-79399523D02*
X111919104Y-79399523D01*
X111919104Y-79399523D02*
X112061961Y-79447142D01*
X112061961Y-79447142D02*
X112157200Y-79542380D01*
X112157200Y-79542380D02*
X112204819Y-79685237D01*
X112204819Y-79685237D02*
X112204819Y-79780475D01*
X112204819Y-78399523D02*
X112204819Y-78970951D01*
X112204819Y-78685237D02*
X111204819Y-78685237D01*
X111204819Y-78685237D02*
X111347676Y-78780475D01*
X111347676Y-78780475D02*
X111442914Y-78875713D01*
X111442914Y-78875713D02*
X111490533Y-78970951D01*
X111204819Y-77780475D02*
X111204819Y-77685237D01*
X111204819Y-77685237D02*
X111252438Y-77589999D01*
X111252438Y-77589999D02*
X111300057Y-77542380D01*
X111300057Y-77542380D02*
X111395295Y-77494761D01*
X111395295Y-77494761D02*
X111585771Y-77447142D01*
X111585771Y-77447142D02*
X111823866Y-77447142D01*
X111823866Y-77447142D02*
X112014342Y-77494761D01*
X112014342Y-77494761D02*
X112109580Y-77542380D01*
X112109580Y-77542380D02*
X112157200Y-77589999D01*
X112157200Y-77589999D02*
X112204819Y-77685237D01*
X112204819Y-77685237D02*
X112204819Y-77780475D01*
X112204819Y-77780475D02*
X112157200Y-77875713D01*
X112157200Y-77875713D02*
X112109580Y-77923332D01*
X112109580Y-77923332D02*
X112014342Y-77970951D01*
X112014342Y-77970951D02*
X111823866Y-78018570D01*
X111823866Y-78018570D02*
X111585771Y-78018570D01*
X111585771Y-78018570D02*
X111395295Y-77970951D01*
X111395295Y-77970951D02*
X111300057Y-77923332D01*
X111300057Y-77923332D02*
X111252438Y-77875713D01*
X111252438Y-77875713D02*
X111204819Y-77780475D01*
X168657200Y-75333332D02*
X168704819Y-75190475D01*
X168704819Y-75190475D02*
X168704819Y-74952380D01*
X168704819Y-74952380D02*
X168657200Y-74857142D01*
X168657200Y-74857142D02*
X168609580Y-74809523D01*
X168609580Y-74809523D02*
X168514342Y-74761904D01*
X168514342Y-74761904D02*
X168419104Y-74761904D01*
X168419104Y-74761904D02*
X168323866Y-74809523D01*
X168323866Y-74809523D02*
X168276247Y-74857142D01*
X168276247Y-74857142D02*
X168228628Y-74952380D01*
X168228628Y-74952380D02*
X168181009Y-75142856D01*
X168181009Y-75142856D02*
X168133390Y-75238094D01*
X168133390Y-75238094D02*
X168085771Y-75285713D01*
X168085771Y-75285713D02*
X167990533Y-75333332D01*
X167990533Y-75333332D02*
X167895295Y-75333332D01*
X167895295Y-75333332D02*
X167800057Y-75285713D01*
X167800057Y-75285713D02*
X167752438Y-75238094D01*
X167752438Y-75238094D02*
X167704819Y-75142856D01*
X167704819Y-75142856D02*
X167704819Y-74904761D01*
X167704819Y-74904761D02*
X167752438Y-74761904D01*
X167704819Y-74428570D02*
X168704819Y-74190475D01*
X168704819Y-74190475D02*
X167990533Y-73999999D01*
X167990533Y-73999999D02*
X168704819Y-73809523D01*
X168704819Y-73809523D02*
X167704819Y-73571428D01*
X168704819Y-72666666D02*
X168704819Y-73238094D01*
X168704819Y-72952380D02*
X167704819Y-72952380D01*
X167704819Y-72952380D02*
X167847676Y-73047618D01*
X167847676Y-73047618D02*
X167942914Y-73142856D01*
X167942914Y-73142856D02*
X167990533Y-73238094D01*
X141190476Y-53354819D02*
X141190476Y-54069104D01*
X141190476Y-54069104D02*
X141142857Y-54211961D01*
X141142857Y-54211961D02*
X141047619Y-54307200D01*
X141047619Y-54307200D02*
X140904762Y-54354819D01*
X140904762Y-54354819D02*
X140809524Y-54354819D01*
X142190476Y-54354819D02*
X141619048Y-54354819D01*
X141904762Y-54354819D02*
X141904762Y-53354819D01*
X141904762Y-53354819D02*
X141809524Y-53497676D01*
X141809524Y-53497676D02*
X141714286Y-53592914D01*
X141714286Y-53592914D02*
X141619048Y-53640533D01*
X143047619Y-53354819D02*
X142857143Y-53354819D01*
X142857143Y-53354819D02*
X142761905Y-53402438D01*
X142761905Y-53402438D02*
X142714286Y-53450057D01*
X142714286Y-53450057D02*
X142619048Y-53592914D01*
X142619048Y-53592914D02*
X142571429Y-53783390D01*
X142571429Y-53783390D02*
X142571429Y-54164342D01*
X142571429Y-54164342D02*
X142619048Y-54259580D01*
X142619048Y-54259580D02*
X142666667Y-54307200D01*
X142666667Y-54307200D02*
X142761905Y-54354819D01*
X142761905Y-54354819D02*
X142952381Y-54354819D01*
X142952381Y-54354819D02*
X143047619Y-54307200D01*
X143047619Y-54307200D02*
X143095238Y-54259580D01*
X143095238Y-54259580D02*
X143142857Y-54164342D01*
X143142857Y-54164342D02*
X143142857Y-53926247D01*
X143142857Y-53926247D02*
X143095238Y-53831009D01*
X143095238Y-53831009D02*
X143047619Y-53783390D01*
X143047619Y-53783390D02*
X142952381Y-53735771D01*
X142952381Y-53735771D02*
X142761905Y-53735771D01*
X142761905Y-53735771D02*
X142666667Y-53783390D01*
X142666667Y-53783390D02*
X142619048Y-53831009D01*
X142619048Y-53831009D02*
X142571429Y-53926247D01*
X153654819Y-37833333D02*
X154369104Y-37833333D01*
X154369104Y-37833333D02*
X154511961Y-37880952D01*
X154511961Y-37880952D02*
X154607200Y-37976190D01*
X154607200Y-37976190D02*
X154654819Y-38119047D01*
X154654819Y-38119047D02*
X154654819Y-38214285D01*
X153654819Y-36928571D02*
X153654819Y-37119047D01*
X153654819Y-37119047D02*
X153702438Y-37214285D01*
X153702438Y-37214285D02*
X153750057Y-37261904D01*
X153750057Y-37261904D02*
X153892914Y-37357142D01*
X153892914Y-37357142D02*
X154083390Y-37404761D01*
X154083390Y-37404761D02*
X154464342Y-37404761D01*
X154464342Y-37404761D02*
X154559580Y-37357142D01*
X154559580Y-37357142D02*
X154607200Y-37309523D01*
X154607200Y-37309523D02*
X154654819Y-37214285D01*
X154654819Y-37214285D02*
X154654819Y-37023809D01*
X154654819Y-37023809D02*
X154607200Y-36928571D01*
X154607200Y-36928571D02*
X154559580Y-36880952D01*
X154559580Y-36880952D02*
X154464342Y-36833333D01*
X154464342Y-36833333D02*
X154226247Y-36833333D01*
X154226247Y-36833333D02*
X154131009Y-36880952D01*
X154131009Y-36880952D02*
X154083390Y-36928571D01*
X154083390Y-36928571D02*
X154035771Y-37023809D01*
X154035771Y-37023809D02*
X154035771Y-37214285D01*
X154035771Y-37214285D02*
X154083390Y-37309523D01*
X154083390Y-37309523D02*
X154131009Y-37357142D01*
X154131009Y-37357142D02*
X154226247Y-37404761D01*
X97690476Y-52454819D02*
X97690476Y-53169104D01*
X97690476Y-53169104D02*
X97642857Y-53311961D01*
X97642857Y-53311961D02*
X97547619Y-53407200D01*
X97547619Y-53407200D02*
X97404762Y-53454819D01*
X97404762Y-53454819D02*
X97309524Y-53454819D01*
X98119048Y-52550057D02*
X98166667Y-52502438D01*
X98166667Y-52502438D02*
X98261905Y-52454819D01*
X98261905Y-52454819D02*
X98500000Y-52454819D01*
X98500000Y-52454819D02*
X98595238Y-52502438D01*
X98595238Y-52502438D02*
X98642857Y-52550057D01*
X98642857Y-52550057D02*
X98690476Y-52645295D01*
X98690476Y-52645295D02*
X98690476Y-52740533D01*
X98690476Y-52740533D02*
X98642857Y-52883390D01*
X98642857Y-52883390D02*
X98071429Y-53454819D01*
X98071429Y-53454819D02*
X98690476Y-53454819D01*
X99309524Y-52454819D02*
X99404762Y-52454819D01*
X99404762Y-52454819D02*
X99500000Y-52502438D01*
X99500000Y-52502438D02*
X99547619Y-52550057D01*
X99547619Y-52550057D02*
X99595238Y-52645295D01*
X99595238Y-52645295D02*
X99642857Y-52835771D01*
X99642857Y-52835771D02*
X99642857Y-53073866D01*
X99642857Y-53073866D02*
X99595238Y-53264342D01*
X99595238Y-53264342D02*
X99547619Y-53359580D01*
X99547619Y-53359580D02*
X99500000Y-53407200D01*
X99500000Y-53407200D02*
X99404762Y-53454819D01*
X99404762Y-53454819D02*
X99309524Y-53454819D01*
X99309524Y-53454819D02*
X99214286Y-53407200D01*
X99214286Y-53407200D02*
X99166667Y-53359580D01*
X99166667Y-53359580D02*
X99119048Y-53264342D01*
X99119048Y-53264342D02*
X99071429Y-53073866D01*
X99071429Y-53073866D02*
X99071429Y-52835771D01*
X99071429Y-52835771D02*
X99119048Y-52645295D01*
X99119048Y-52645295D02*
X99166667Y-52550057D01*
X99166667Y-52550057D02*
X99214286Y-52502438D01*
X99214286Y-52502438D02*
X99309524Y-52454819D01*
X109204819Y-39559523D02*
X109919104Y-39559523D01*
X109919104Y-39559523D02*
X110061961Y-39607142D01*
X110061961Y-39607142D02*
X110157200Y-39702380D01*
X110157200Y-39702380D02*
X110204819Y-39845237D01*
X110204819Y-39845237D02*
X110204819Y-39940475D01*
X110204819Y-38559523D02*
X110204819Y-39130951D01*
X110204819Y-38845237D02*
X109204819Y-38845237D01*
X109204819Y-38845237D02*
X109347676Y-38940475D01*
X109347676Y-38940475D02*
X109442914Y-39035713D01*
X109442914Y-39035713D02*
X109490533Y-39130951D01*
X109538152Y-37702380D02*
X110204819Y-37702380D01*
X109157200Y-37940475D02*
X109871485Y-38178570D01*
X109871485Y-38178570D02*
X109871485Y-37559523D01*
X132204819Y-37833333D02*
X132919104Y-37833333D01*
X132919104Y-37833333D02*
X133061961Y-37880952D01*
X133061961Y-37880952D02*
X133157200Y-37976190D01*
X133157200Y-37976190D02*
X133204819Y-38119047D01*
X133204819Y-38119047D02*
X133204819Y-38214285D01*
X132204819Y-37452380D02*
X132204819Y-36833333D01*
X132204819Y-36833333D02*
X132585771Y-37166666D01*
X132585771Y-37166666D02*
X132585771Y-37023809D01*
X132585771Y-37023809D02*
X132633390Y-36928571D01*
X132633390Y-36928571D02*
X132681009Y-36880952D01*
X132681009Y-36880952D02*
X132776247Y-36833333D01*
X132776247Y-36833333D02*
X133014342Y-36833333D01*
X133014342Y-36833333D02*
X133109580Y-36880952D01*
X133109580Y-36880952D02*
X133157200Y-36928571D01*
X133157200Y-36928571D02*
X133204819Y-37023809D01*
X133204819Y-37023809D02*
X133204819Y-37309523D01*
X133204819Y-37309523D02*
X133157200Y-37404761D01*
X133157200Y-37404761D02*
X133109580Y-37452380D01*
X114834819Y-37666666D02*
X114358628Y-37999999D01*
X114834819Y-38238094D02*
X113834819Y-38238094D01*
X113834819Y-38238094D02*
X113834819Y-37857142D01*
X113834819Y-37857142D02*
X113882438Y-37761904D01*
X113882438Y-37761904D02*
X113930057Y-37714285D01*
X113930057Y-37714285D02*
X114025295Y-37666666D01*
X114025295Y-37666666D02*
X114168152Y-37666666D01*
X114168152Y-37666666D02*
X114263390Y-37714285D01*
X114263390Y-37714285D02*
X114311009Y-37761904D01*
X114311009Y-37761904D02*
X114358628Y-37857142D01*
X114358628Y-37857142D02*
X114358628Y-38238094D01*
X114834819Y-36714285D02*
X114834819Y-37285713D01*
X114834819Y-36999999D02*
X113834819Y-36999999D01*
X113834819Y-36999999D02*
X113977676Y-37095237D01*
X113977676Y-37095237D02*
X114072914Y-37190475D01*
X114072914Y-37190475D02*
X114120533Y-37285713D01*
X168404819Y-42833333D02*
X169119104Y-42833333D01*
X169119104Y-42833333D02*
X169261961Y-42880952D01*
X169261961Y-42880952D02*
X169357200Y-42976190D01*
X169357200Y-42976190D02*
X169404819Y-43119047D01*
X169404819Y-43119047D02*
X169404819Y-43214285D01*
X168833390Y-42214285D02*
X168785771Y-42309523D01*
X168785771Y-42309523D02*
X168738152Y-42357142D01*
X168738152Y-42357142D02*
X168642914Y-42404761D01*
X168642914Y-42404761D02*
X168595295Y-42404761D01*
X168595295Y-42404761D02*
X168500057Y-42357142D01*
X168500057Y-42357142D02*
X168452438Y-42309523D01*
X168452438Y-42309523D02*
X168404819Y-42214285D01*
X168404819Y-42214285D02*
X168404819Y-42023809D01*
X168404819Y-42023809D02*
X168452438Y-41928571D01*
X168452438Y-41928571D02*
X168500057Y-41880952D01*
X168500057Y-41880952D02*
X168595295Y-41833333D01*
X168595295Y-41833333D02*
X168642914Y-41833333D01*
X168642914Y-41833333D02*
X168738152Y-41880952D01*
X168738152Y-41880952D02*
X168785771Y-41928571D01*
X168785771Y-41928571D02*
X168833390Y-42023809D01*
X168833390Y-42023809D02*
X168833390Y-42214285D01*
X168833390Y-42214285D02*
X168881009Y-42309523D01*
X168881009Y-42309523D02*
X168928628Y-42357142D01*
X168928628Y-42357142D02*
X169023866Y-42404761D01*
X169023866Y-42404761D02*
X169214342Y-42404761D01*
X169214342Y-42404761D02*
X169309580Y-42357142D01*
X169309580Y-42357142D02*
X169357200Y-42309523D01*
X169357200Y-42309523D02*
X169404819Y-42214285D01*
X169404819Y-42214285D02*
X169404819Y-42023809D01*
X169404819Y-42023809D02*
X169357200Y-41928571D01*
X169357200Y-41928571D02*
X169309580Y-41880952D01*
X169309580Y-41880952D02*
X169214342Y-41833333D01*
X169214342Y-41833333D02*
X169023866Y-41833333D01*
X169023866Y-41833333D02*
X168928628Y-41880952D01*
X168928628Y-41880952D02*
X168881009Y-41928571D01*
X168881009Y-41928571D02*
X168833390Y-42023809D01*
X139404819Y-37833333D02*
X140119104Y-37833333D01*
X140119104Y-37833333D02*
X140261961Y-37880952D01*
X140261961Y-37880952D02*
X140357200Y-37976190D01*
X140357200Y-37976190D02*
X140404819Y-38119047D01*
X140404819Y-38119047D02*
X140404819Y-38214285D01*
X139738152Y-36928571D02*
X140404819Y-36928571D01*
X139357200Y-37166666D02*
X140071485Y-37404761D01*
X140071485Y-37404761D02*
X140071485Y-36785714D01*
X125154819Y-37833333D02*
X125869104Y-37833333D01*
X125869104Y-37833333D02*
X126011961Y-37880952D01*
X126011961Y-37880952D02*
X126107200Y-37976190D01*
X126107200Y-37976190D02*
X126154819Y-38119047D01*
X126154819Y-38119047D02*
X126154819Y-38214285D01*
X125250057Y-37404761D02*
X125202438Y-37357142D01*
X125202438Y-37357142D02*
X125154819Y-37261904D01*
X125154819Y-37261904D02*
X125154819Y-37023809D01*
X125154819Y-37023809D02*
X125202438Y-36928571D01*
X125202438Y-36928571D02*
X125250057Y-36880952D01*
X125250057Y-36880952D02*
X125345295Y-36833333D01*
X125345295Y-36833333D02*
X125440533Y-36833333D01*
X125440533Y-36833333D02*
X125583390Y-36880952D01*
X125583390Y-36880952D02*
X126154819Y-37452380D01*
X126154819Y-37452380D02*
X126154819Y-36833333D01*
X152690476Y-68724819D02*
X152690476Y-69439104D01*
X152690476Y-69439104D02*
X152642857Y-69581961D01*
X152642857Y-69581961D02*
X152547619Y-69677200D01*
X152547619Y-69677200D02*
X152404762Y-69724819D01*
X152404762Y-69724819D02*
X152309524Y-69724819D01*
X153690476Y-69724819D02*
X153119048Y-69724819D01*
X153404762Y-69724819D02*
X153404762Y-68724819D01*
X153404762Y-68724819D02*
X153309524Y-68867676D01*
X153309524Y-68867676D02*
X153214286Y-68962914D01*
X153214286Y-68962914D02*
X153119048Y-69010533D01*
X154595238Y-68724819D02*
X154119048Y-68724819D01*
X154119048Y-68724819D02*
X154071429Y-69201009D01*
X154071429Y-69201009D02*
X154119048Y-69153390D01*
X154119048Y-69153390D02*
X154214286Y-69105771D01*
X154214286Y-69105771D02*
X154452381Y-69105771D01*
X154452381Y-69105771D02*
X154547619Y-69153390D01*
X154547619Y-69153390D02*
X154595238Y-69201009D01*
X154595238Y-69201009D02*
X154642857Y-69296247D01*
X154642857Y-69296247D02*
X154642857Y-69534342D01*
X154642857Y-69534342D02*
X154595238Y-69629580D01*
X154595238Y-69629580D02*
X154547619Y-69677200D01*
X154547619Y-69677200D02*
X154452381Y-69724819D01*
X154452381Y-69724819D02*
X154214286Y-69724819D01*
X154214286Y-69724819D02*
X154119048Y-69677200D01*
X154119048Y-69677200D02*
X154071429Y-69629580D01*
X117904819Y-37833333D02*
X118619104Y-37833333D01*
X118619104Y-37833333D02*
X118761961Y-37880952D01*
X118761961Y-37880952D02*
X118857200Y-37976190D01*
X118857200Y-37976190D02*
X118904819Y-38119047D01*
X118904819Y-38119047D02*
X118904819Y-38214285D01*
X118904819Y-36833333D02*
X118904819Y-37404761D01*
X118904819Y-37119047D02*
X117904819Y-37119047D01*
X117904819Y-37119047D02*
X118047676Y-37214285D01*
X118047676Y-37214285D02*
X118142914Y-37309523D01*
X118142914Y-37309523D02*
X118190533Y-37404761D01*
X127504819Y-79399523D02*
X128219104Y-79399523D01*
X128219104Y-79399523D02*
X128361961Y-79447142D01*
X128361961Y-79447142D02*
X128457200Y-79542380D01*
X128457200Y-79542380D02*
X128504819Y-79685237D01*
X128504819Y-79685237D02*
X128504819Y-79780475D01*
X128504819Y-78399523D02*
X128504819Y-78970951D01*
X128504819Y-78685237D02*
X127504819Y-78685237D01*
X127504819Y-78685237D02*
X127647676Y-78780475D01*
X127647676Y-78780475D02*
X127742914Y-78875713D01*
X127742914Y-78875713D02*
X127790533Y-78970951D01*
X127600057Y-78018570D02*
X127552438Y-77970951D01*
X127552438Y-77970951D02*
X127504819Y-77875713D01*
X127504819Y-77875713D02*
X127504819Y-77637618D01*
X127504819Y-77637618D02*
X127552438Y-77542380D01*
X127552438Y-77542380D02*
X127600057Y-77494761D01*
X127600057Y-77494761D02*
X127695295Y-77447142D01*
X127695295Y-77447142D02*
X127790533Y-77447142D01*
X127790533Y-77447142D02*
X127933390Y-77494761D01*
X127933390Y-77494761D02*
X128504819Y-78066189D01*
X128504819Y-78066189D02*
X128504819Y-77447142D01*
X150504819Y-63509523D02*
X151219104Y-63509523D01*
X151219104Y-63509523D02*
X151361961Y-63557142D01*
X151361961Y-63557142D02*
X151457200Y-63652380D01*
X151457200Y-63652380D02*
X151504819Y-63795237D01*
X151504819Y-63795237D02*
X151504819Y-63890475D01*
X151504819Y-62509523D02*
X151504819Y-63080951D01*
X151504819Y-62795237D02*
X150504819Y-62795237D01*
X150504819Y-62795237D02*
X150647676Y-62890475D01*
X150647676Y-62890475D02*
X150742914Y-62985713D01*
X150742914Y-62985713D02*
X150790533Y-63080951D01*
X150504819Y-62176189D02*
X150504819Y-61509523D01*
X150504819Y-61509523D02*
X151504819Y-61938094D01*
X160904819Y-37833333D02*
X161619104Y-37833333D01*
X161619104Y-37833333D02*
X161761961Y-37880952D01*
X161761961Y-37880952D02*
X161857200Y-37976190D01*
X161857200Y-37976190D02*
X161904819Y-38119047D01*
X161904819Y-38119047D02*
X161904819Y-38214285D01*
X160904819Y-37452380D02*
X160904819Y-36785714D01*
X160904819Y-36785714D02*
X161904819Y-37214285D01*
X135204819Y-80173333D02*
X135919104Y-80173333D01*
X135919104Y-80173333D02*
X136061961Y-80220952D01*
X136061961Y-80220952D02*
X136157200Y-80316190D01*
X136157200Y-80316190D02*
X136204819Y-80459047D01*
X136204819Y-80459047D02*
X136204819Y-80554285D01*
X136204819Y-79649523D02*
X136204819Y-79459047D01*
X136204819Y-79459047D02*
X136157200Y-79363809D01*
X136157200Y-79363809D02*
X136109580Y-79316190D01*
X136109580Y-79316190D02*
X135966723Y-79220952D01*
X135966723Y-79220952D02*
X135776247Y-79173333D01*
X135776247Y-79173333D02*
X135395295Y-79173333D01*
X135395295Y-79173333D02*
X135300057Y-79220952D01*
X135300057Y-79220952D02*
X135252438Y-79268571D01*
X135252438Y-79268571D02*
X135204819Y-79363809D01*
X135204819Y-79363809D02*
X135204819Y-79554285D01*
X135204819Y-79554285D02*
X135252438Y-79649523D01*
X135252438Y-79649523D02*
X135300057Y-79697142D01*
X135300057Y-79697142D02*
X135395295Y-79744761D01*
X135395295Y-79744761D02*
X135633390Y-79744761D01*
X135633390Y-79744761D02*
X135728628Y-79697142D01*
X135728628Y-79697142D02*
X135776247Y-79649523D01*
X135776247Y-79649523D02*
X135823866Y-79554285D01*
X135823866Y-79554285D02*
X135823866Y-79363809D01*
X135823866Y-79363809D02*
X135776247Y-79268571D01*
X135776247Y-79268571D02*
X135728628Y-79220952D01*
X135728628Y-79220952D02*
X135633390Y-79173333D01*
X135304819Y-79399523D02*
X136019104Y-79399523D01*
X136019104Y-79399523D02*
X136161961Y-79447142D01*
X136161961Y-79447142D02*
X136257200Y-79542380D01*
X136257200Y-79542380D02*
X136304819Y-79685237D01*
X136304819Y-79685237D02*
X136304819Y-79780475D01*
X136304819Y-78399523D02*
X136304819Y-78970951D01*
X136304819Y-78685237D02*
X135304819Y-78685237D01*
X135304819Y-78685237D02*
X135447676Y-78780475D01*
X135447676Y-78780475D02*
X135542914Y-78875713D01*
X135542914Y-78875713D02*
X135590533Y-78970951D01*
X135304819Y-78066189D02*
X135304819Y-77447142D01*
X135304819Y-77447142D02*
X135685771Y-77780475D01*
X135685771Y-77780475D02*
X135685771Y-77637618D01*
X135685771Y-77637618D02*
X135733390Y-77542380D01*
X135733390Y-77542380D02*
X135781009Y-77494761D01*
X135781009Y-77494761D02*
X135876247Y-77447142D01*
X135876247Y-77447142D02*
X136114342Y-77447142D01*
X136114342Y-77447142D02*
X136209580Y-77494761D01*
X136209580Y-77494761D02*
X136257200Y-77542380D01*
X136257200Y-77542380D02*
X136304819Y-77637618D01*
X136304819Y-77637618D02*
X136304819Y-77923332D01*
X136304819Y-77923332D02*
X136257200Y-78018570D01*
X136257200Y-78018570D02*
X136209580Y-78066189D01*
X112128221Y-37359580D02*
X112080602Y-37407200D01*
X112080602Y-37407200D02*
X111937745Y-37454819D01*
X111937745Y-37454819D02*
X111842507Y-37454819D01*
X111842507Y-37454819D02*
X111699650Y-37407200D01*
X111699650Y-37407200D02*
X111604412Y-37311961D01*
X111604412Y-37311961D02*
X111556793Y-37216723D01*
X111556793Y-37216723D02*
X111509174Y-37026247D01*
X111509174Y-37026247D02*
X111509174Y-36883390D01*
X111509174Y-36883390D02*
X111556793Y-36692914D01*
X111556793Y-36692914D02*
X111604412Y-36597676D01*
X111604412Y-36597676D02*
X111699650Y-36502438D01*
X111699650Y-36502438D02*
X111842507Y-36454819D01*
X111842507Y-36454819D02*
X111937745Y-36454819D01*
X111937745Y-36454819D02*
X112080602Y-36502438D01*
X112080602Y-36502438D02*
X112128221Y-36550057D01*
X113080602Y-37454819D02*
X112509174Y-37454819D01*
X112794888Y-37454819D02*
X112794888Y-36454819D01*
X112794888Y-36454819D02*
X112699650Y-36597676D01*
X112699650Y-36597676D02*
X112604412Y-36692914D01*
X112604412Y-36692914D02*
X112509174Y-36740533D01*
X109334819Y-48756666D02*
X108858628Y-49089999D01*
X109334819Y-49328094D02*
X108334819Y-49328094D01*
X108334819Y-49328094D02*
X108334819Y-48947142D01*
X108334819Y-48947142D02*
X108382438Y-48851904D01*
X108382438Y-48851904D02*
X108430057Y-48804285D01*
X108430057Y-48804285D02*
X108525295Y-48756666D01*
X108525295Y-48756666D02*
X108668152Y-48756666D01*
X108668152Y-48756666D02*
X108763390Y-48804285D01*
X108763390Y-48804285D02*
X108811009Y-48851904D01*
X108811009Y-48851904D02*
X108858628Y-48947142D01*
X108858628Y-48947142D02*
X108858628Y-49328094D01*
X108430057Y-48375713D02*
X108382438Y-48328094D01*
X108382438Y-48328094D02*
X108334819Y-48232856D01*
X108334819Y-48232856D02*
X108334819Y-47994761D01*
X108334819Y-47994761D02*
X108382438Y-47899523D01*
X108382438Y-47899523D02*
X108430057Y-47851904D01*
X108430057Y-47851904D02*
X108525295Y-47804285D01*
X108525295Y-47804285D02*
X108620533Y-47804285D01*
X108620533Y-47804285D02*
X108763390Y-47851904D01*
X108763390Y-47851904D02*
X109334819Y-48423332D01*
X109334819Y-48423332D02*
X109334819Y-47804285D01*
D11*
%TO.C,SW2*%
X169250000Y-62000000D02*
X169250000Y-66500000D01*
X171750000Y-67750000D02*
X173250000Y-67750000D01*
X173250000Y-60750000D02*
X171750000Y-60750000D01*
X175750000Y-66500000D02*
X175750000Y-62000000D01*
%TO.C,A1*%
X97150000Y-58770000D02*
X107570000Y-58770000D01*
X97150000Y-66650000D02*
X97150000Y-58770000D01*
X99690000Y-53690000D02*
X99690000Y-58770000D01*
X99690000Y-71730000D02*
X99690000Y-66650000D01*
X99690000Y-71730000D02*
X143130000Y-71730000D01*
X102360000Y-56360000D02*
X102360000Y-53690000D01*
X102360000Y-69060000D02*
X102360000Y-71730000D01*
X107570000Y-58770000D02*
X107570000Y-66650000D01*
X107570000Y-66650000D02*
X97150000Y-66650000D01*
X137920000Y-53690000D02*
X99690000Y-53690000D01*
X137920000Y-56360000D02*
X102360000Y-56360000D01*
X137920000Y-56360000D02*
X137920000Y-53690000D01*
X137920000Y-56360000D02*
X140460000Y-56360000D01*
X140460000Y-56360000D02*
X140460000Y-53690000D01*
X140460000Y-69060000D02*
X102360000Y-69060000D01*
X140460000Y-69060000D02*
X140460000Y-71730000D01*
X143130000Y-53690000D02*
X140460000Y-53690000D01*
X143130000Y-71730000D02*
X143130000Y-53690000D01*
%TO.C,J11*%
X112490000Y-73530000D02*
X112490000Y-83650000D01*
X112490000Y-83650000D02*
X118460000Y-83650000D01*
X113250000Y-74290000D02*
X113250000Y-78590000D01*
X113250000Y-82890000D02*
X113250000Y-78590000D01*
X116200000Y-73540000D02*
X116200000Y-74290000D01*
X116200000Y-74290000D02*
X113250000Y-74290000D01*
X116200000Y-82890000D02*
X113250000Y-82890000D01*
X116200000Y-83640000D02*
X116200000Y-82890000D01*
X117700000Y-73540000D02*
X117700000Y-75340000D01*
X117700000Y-75340000D02*
X118450000Y-75340000D01*
X117700000Y-76840000D02*
X117700000Y-80340000D01*
X117700000Y-80340000D02*
X118450000Y-80340000D01*
X117700000Y-81840000D02*
X117700000Y-83640000D01*
X117700000Y-83640000D02*
X118450000Y-83640000D01*
X118450000Y-73540000D02*
X117700000Y-73540000D01*
X118450000Y-75340000D02*
X118450000Y-73540000D01*
X118450000Y-76840000D02*
X117700000Y-76840000D01*
X118450000Y-80340000D02*
X118450000Y-76840000D01*
X118450000Y-81840000D02*
X117700000Y-81840000D01*
X118450000Y-83640000D02*
X118450000Y-81840000D01*
X118460000Y-73530000D02*
X112490000Y-73530000D01*
X118460000Y-83650000D02*
X118460000Y-73530000D01*
X118750000Y-73240000D02*
X117500000Y-73240000D01*
X118750000Y-74490000D02*
X118750000Y-73240000D01*
%TO.C,J5*%
X147725000Y-41600000D02*
X147725000Y-42850000D01*
X147725000Y-42850000D02*
X148975000Y-42850000D01*
X148015000Y-32440000D02*
X148015000Y-42560000D01*
X148015000Y-42560000D02*
X153985000Y-42560000D01*
X148025000Y-32450000D02*
X148025000Y-34250000D01*
X148025000Y-34250000D02*
X148775000Y-34250000D01*
X148025000Y-35750000D02*
X148025000Y-39250000D01*
X148025000Y-39250000D02*
X148775000Y-39250000D01*
X148025000Y-40750000D02*
X148025000Y-42550000D01*
X148025000Y-42550000D02*
X148775000Y-42550000D01*
X148775000Y-32450000D02*
X148025000Y-32450000D01*
X148775000Y-34250000D02*
X148775000Y-32450000D01*
X148775000Y-35750000D02*
X148025000Y-35750000D01*
X148775000Y-39250000D02*
X148775000Y-35750000D01*
X148775000Y-40750000D02*
X148025000Y-40750000D01*
X148775000Y-42550000D02*
X148775000Y-40750000D01*
X150275000Y-32450000D02*
X150275000Y-33200000D01*
X150275000Y-33200000D02*
X153225000Y-33200000D01*
X150275000Y-41800000D02*
X153225000Y-41800000D01*
X150275000Y-42550000D02*
X150275000Y-41800000D01*
X153225000Y-33200000D02*
X153225000Y-37500000D01*
X153225000Y-41800000D02*
X153225000Y-37500000D01*
X153985000Y-32440000D02*
X148015000Y-32440000D01*
X153985000Y-42560000D02*
X153985000Y-32440000D01*
%TO.C,SW3*%
X169250000Y-52250000D02*
X169250000Y-56750000D01*
X171750000Y-58000000D02*
X173250000Y-58000000D01*
X173250000Y-51000000D02*
X171750000Y-51000000D01*
X175750000Y-56750000D02*
X175750000Y-52250000D01*
%TO.C,J10*%
X104690000Y-73530000D02*
X104690000Y-83650000D01*
X104690000Y-83650000D02*
X110660000Y-83650000D01*
X105450000Y-74290000D02*
X105450000Y-78590000D01*
X105450000Y-82890000D02*
X105450000Y-78590000D01*
X108400000Y-73540000D02*
X108400000Y-74290000D01*
X108400000Y-74290000D02*
X105450000Y-74290000D01*
X108400000Y-82890000D02*
X105450000Y-82890000D01*
X108400000Y-83640000D02*
X108400000Y-82890000D01*
X109900000Y-73540000D02*
X109900000Y-75340000D01*
X109900000Y-75340000D02*
X110650000Y-75340000D01*
X109900000Y-76840000D02*
X109900000Y-80340000D01*
X109900000Y-80340000D02*
X110650000Y-80340000D01*
X109900000Y-81840000D02*
X109900000Y-83640000D01*
X109900000Y-83640000D02*
X110650000Y-83640000D01*
X110650000Y-73540000D02*
X109900000Y-73540000D01*
X110650000Y-75340000D02*
X110650000Y-73540000D01*
X110650000Y-76840000D02*
X109900000Y-76840000D01*
X110650000Y-80340000D02*
X110650000Y-76840000D01*
X110650000Y-81840000D02*
X109900000Y-81840000D01*
X110650000Y-83640000D02*
X110650000Y-81840000D01*
X110660000Y-73530000D02*
X104690000Y-73530000D01*
X110660000Y-83650000D02*
X110660000Y-73530000D01*
X110950000Y-73240000D02*
X109700000Y-73240000D01*
X110950000Y-74490000D02*
X110950000Y-73240000D01*
%TO.C,SW1*%
X169250000Y-71750000D02*
X169250000Y-76250000D01*
X171750000Y-77500000D02*
X173250000Y-77500000D01*
X173250000Y-70500000D02*
X171750000Y-70500000D01*
X175750000Y-76250000D02*
X175750000Y-71750000D01*
%TO.C,J16*%
X140940000Y-50840000D02*
X140940000Y-48780000D01*
X143060000Y-48780000D02*
X140940000Y-48780000D01*
X143060000Y-50840000D02*
X140940000Y-50840000D01*
X143060000Y-50840000D02*
X143060000Y-48780000D01*
X143060000Y-51840000D02*
X143060000Y-52900000D01*
X143060000Y-52900000D02*
X142000000Y-52900000D01*
%TO.C,J6*%
X155000000Y-41600000D02*
X155000000Y-42850000D01*
X155000000Y-42850000D02*
X156250000Y-42850000D01*
X155290000Y-32440000D02*
X155290000Y-42560000D01*
X155290000Y-42560000D02*
X161260000Y-42560000D01*
X155300000Y-32450000D02*
X155300000Y-34250000D01*
X155300000Y-34250000D02*
X156050000Y-34250000D01*
X155300000Y-35750000D02*
X155300000Y-39250000D01*
X155300000Y-39250000D02*
X156050000Y-39250000D01*
X155300000Y-40750000D02*
X155300000Y-42550000D01*
X155300000Y-42550000D02*
X156050000Y-42550000D01*
X156050000Y-32450000D02*
X155300000Y-32450000D01*
X156050000Y-34250000D02*
X156050000Y-32450000D01*
X156050000Y-35750000D02*
X155300000Y-35750000D01*
X156050000Y-39250000D02*
X156050000Y-35750000D01*
X156050000Y-40750000D02*
X155300000Y-40750000D01*
X156050000Y-42550000D02*
X156050000Y-40750000D01*
X157550000Y-32450000D02*
X157550000Y-33200000D01*
X157550000Y-33200000D02*
X160500000Y-33200000D01*
X157550000Y-41800000D02*
X160500000Y-41800000D01*
X157550000Y-42550000D02*
X157550000Y-41800000D01*
X160500000Y-33200000D02*
X160500000Y-37500000D01*
X160500000Y-41800000D02*
X160500000Y-37500000D01*
X161260000Y-32440000D02*
X155290000Y-32440000D01*
X161260000Y-42560000D02*
X161260000Y-32440000D01*
%TO.C,J20*%
X97170000Y-49230000D02*
X97170000Y-36470000D01*
X97170000Y-51830000D02*
X97170000Y-50500000D01*
X98500000Y-51830000D02*
X97170000Y-51830000D01*
X99830000Y-36470000D02*
X97170000Y-36470000D01*
X99830000Y-49230000D02*
X97170000Y-49230000D01*
X99830000Y-49230000D02*
X99830000Y-36470000D01*
%TO.C,J14*%
X102690000Y-32440000D02*
X102690000Y-45060000D01*
X102690000Y-45060000D02*
X108660000Y-45060000D01*
X103450000Y-33200000D02*
X103450000Y-38750000D01*
X103450000Y-44300000D02*
X103450000Y-38750000D01*
X106400000Y-32450000D02*
X106400000Y-33200000D01*
X106400000Y-33200000D02*
X103450000Y-33200000D01*
X106400000Y-44300000D02*
X103450000Y-44300000D01*
X106400000Y-45050000D02*
X106400000Y-44300000D01*
X107900000Y-32450000D02*
X107900000Y-34250000D01*
X107900000Y-34250000D02*
X108650000Y-34250000D01*
X107900000Y-35750000D02*
X107900000Y-41750000D01*
X107900000Y-41750000D02*
X108650000Y-41750000D01*
X107900000Y-43250000D02*
X107900000Y-45050000D01*
X107900000Y-45050000D02*
X108650000Y-45050000D01*
X108650000Y-32450000D02*
X107900000Y-32450000D01*
X108650000Y-34250000D02*
X108650000Y-32450000D01*
X108650000Y-35750000D02*
X107900000Y-35750000D01*
X108650000Y-41750000D02*
X108650000Y-35750000D01*
X108650000Y-43250000D02*
X107900000Y-43250000D01*
X108650000Y-45050000D02*
X108650000Y-43250000D01*
X108660000Y-32440000D02*
X102690000Y-32440000D01*
X108660000Y-45060000D02*
X108660000Y-32440000D01*
X108950000Y-32150000D02*
X107700000Y-32150000D01*
X108950000Y-33400000D02*
X108950000Y-32150000D01*
%TO.C,J3*%
X133550000Y-41600000D02*
X133550000Y-42850000D01*
X133550000Y-42850000D02*
X134800000Y-42850000D01*
X133840000Y-32440000D02*
X133840000Y-42560000D01*
X133840000Y-42560000D02*
X139810000Y-42560000D01*
X133850000Y-32450000D02*
X133850000Y-34250000D01*
X133850000Y-34250000D02*
X134600000Y-34250000D01*
X133850000Y-35750000D02*
X133850000Y-39250000D01*
X133850000Y-39250000D02*
X134600000Y-39250000D01*
X133850000Y-40750000D02*
X133850000Y-42550000D01*
X133850000Y-42550000D02*
X134600000Y-42550000D01*
X134600000Y-32450000D02*
X133850000Y-32450000D01*
X134600000Y-34250000D02*
X134600000Y-32450000D01*
X134600000Y-35750000D02*
X133850000Y-35750000D01*
X134600000Y-39250000D02*
X134600000Y-35750000D01*
X134600000Y-40750000D02*
X133850000Y-40750000D01*
X134600000Y-42550000D02*
X134600000Y-40750000D01*
X136100000Y-32450000D02*
X136100000Y-33200000D01*
X136100000Y-33200000D02*
X139050000Y-33200000D01*
X136100000Y-41800000D02*
X139050000Y-41800000D01*
X136100000Y-42550000D02*
X136100000Y-41800000D01*
X139050000Y-33200000D02*
X139050000Y-37500000D01*
X139050000Y-41800000D02*
X139050000Y-37500000D01*
X139810000Y-32440000D02*
X133840000Y-32440000D01*
X139810000Y-42560000D02*
X139810000Y-32440000D01*
%TO.C,R1*%
X115380000Y-34230000D02*
X115710000Y-34230000D01*
X115380000Y-40770000D02*
X115380000Y-34230000D01*
X115710000Y-40770000D02*
X115380000Y-40770000D01*
X117790000Y-40770000D02*
X118120000Y-40770000D01*
X118120000Y-34230000D02*
X117790000Y-34230000D01*
X118120000Y-40770000D02*
X118120000Y-34230000D01*
%TO.C,J8*%
X169750000Y-46600000D02*
X169750000Y-47850000D01*
X169750000Y-47850000D02*
X171000000Y-47850000D01*
X170040000Y-37440000D02*
X170040000Y-47560000D01*
X170040000Y-47560000D02*
X176010000Y-47560000D01*
X170050000Y-37450000D02*
X170050000Y-39250000D01*
X170050000Y-39250000D02*
X170800000Y-39250000D01*
X170050000Y-40750000D02*
X170050000Y-44250000D01*
X170050000Y-44250000D02*
X170800000Y-44250000D01*
X170050000Y-45750000D02*
X170050000Y-47550000D01*
X170050000Y-47550000D02*
X170800000Y-47550000D01*
X170800000Y-37450000D02*
X170050000Y-37450000D01*
X170800000Y-39250000D02*
X170800000Y-37450000D01*
X170800000Y-40750000D02*
X170050000Y-40750000D01*
X170800000Y-44250000D02*
X170800000Y-40750000D01*
X170800000Y-45750000D02*
X170050000Y-45750000D01*
X170800000Y-47550000D02*
X170800000Y-45750000D01*
X172300000Y-37450000D02*
X172300000Y-38200000D01*
X172300000Y-38200000D02*
X175250000Y-38200000D01*
X172300000Y-46800000D02*
X175250000Y-46800000D01*
X172300000Y-47550000D02*
X172300000Y-46800000D01*
X175250000Y-38200000D02*
X175250000Y-42500000D01*
X175250000Y-46800000D02*
X175250000Y-42500000D01*
X176010000Y-37440000D02*
X170040000Y-37440000D01*
X176010000Y-47560000D02*
X176010000Y-37440000D01*
%TO.C,J4*%
X140750000Y-41600000D02*
X140750000Y-42850000D01*
X140750000Y-42850000D02*
X142000000Y-42850000D01*
X141040000Y-32440000D02*
X141040000Y-42560000D01*
X141040000Y-42560000D02*
X147010000Y-42560000D01*
X141050000Y-32450000D02*
X141050000Y-34250000D01*
X141050000Y-34250000D02*
X141800000Y-34250000D01*
X141050000Y-35750000D02*
X141050000Y-39250000D01*
X141050000Y-39250000D02*
X141800000Y-39250000D01*
X141050000Y-40750000D02*
X141050000Y-42550000D01*
X141050000Y-42550000D02*
X141800000Y-42550000D01*
X141800000Y-32450000D02*
X141050000Y-32450000D01*
X141800000Y-34250000D02*
X141800000Y-32450000D01*
X141800000Y-35750000D02*
X141050000Y-35750000D01*
X141800000Y-39250000D02*
X141800000Y-35750000D01*
X141800000Y-40750000D02*
X141050000Y-40750000D01*
X141800000Y-42550000D02*
X141800000Y-40750000D01*
X143300000Y-32450000D02*
X143300000Y-33200000D01*
X143300000Y-33200000D02*
X146250000Y-33200000D01*
X143300000Y-41800000D02*
X146250000Y-41800000D01*
X143300000Y-42550000D02*
X143300000Y-41800000D01*
X146250000Y-33200000D02*
X146250000Y-37500000D01*
X146250000Y-41800000D02*
X146250000Y-37500000D01*
X147010000Y-32440000D02*
X141040000Y-32440000D01*
X147010000Y-42560000D02*
X147010000Y-32440000D01*
%TO.C,J2*%
X126500000Y-41600000D02*
X126500000Y-42850000D01*
X126500000Y-42850000D02*
X127750000Y-42850000D01*
X126790000Y-32440000D02*
X126790000Y-42560000D01*
X126790000Y-42560000D02*
X132760000Y-42560000D01*
X126800000Y-32450000D02*
X126800000Y-34250000D01*
X126800000Y-34250000D02*
X127550000Y-34250000D01*
X126800000Y-35750000D02*
X126800000Y-39250000D01*
X126800000Y-39250000D02*
X127550000Y-39250000D01*
X126800000Y-40750000D02*
X126800000Y-42550000D01*
X126800000Y-42550000D02*
X127550000Y-42550000D01*
X127550000Y-32450000D02*
X126800000Y-32450000D01*
X127550000Y-34250000D02*
X127550000Y-32450000D01*
X127550000Y-35750000D02*
X126800000Y-35750000D01*
X127550000Y-39250000D02*
X127550000Y-35750000D01*
X127550000Y-40750000D02*
X126800000Y-40750000D01*
X127550000Y-42550000D02*
X127550000Y-40750000D01*
X129050000Y-32450000D02*
X129050000Y-33200000D01*
X129050000Y-33200000D02*
X132000000Y-33200000D01*
X129050000Y-41800000D02*
X132000000Y-41800000D01*
X129050000Y-42550000D02*
X129050000Y-41800000D01*
X132000000Y-33200000D02*
X132000000Y-37500000D01*
X132000000Y-41800000D02*
X132000000Y-37500000D01*
X132760000Y-32440000D02*
X126790000Y-32440000D01*
X132760000Y-42560000D02*
X132760000Y-32440000D01*
%TO.C,J15*%
X152170000Y-65230000D02*
X152170000Y-57550000D01*
X152170000Y-67830000D02*
X152170000Y-66500000D01*
X153500000Y-67830000D02*
X152170000Y-67830000D01*
X154830000Y-57550000D02*
X152170000Y-57550000D01*
X154830000Y-65230000D02*
X152170000Y-65230000D01*
X154830000Y-65230000D02*
X154830000Y-57550000D01*
%TO.C,J1*%
X119250000Y-41600000D02*
X119250000Y-42850000D01*
X119250000Y-42850000D02*
X120500000Y-42850000D01*
X119540000Y-32440000D02*
X119540000Y-42560000D01*
X119540000Y-42560000D02*
X125510000Y-42560000D01*
X119550000Y-32450000D02*
X119550000Y-34250000D01*
X119550000Y-34250000D02*
X120300000Y-34250000D01*
X119550000Y-35750000D02*
X119550000Y-39250000D01*
X119550000Y-39250000D02*
X120300000Y-39250000D01*
X119550000Y-40750000D02*
X119550000Y-42550000D01*
X119550000Y-42550000D02*
X120300000Y-42550000D01*
X120300000Y-32450000D02*
X119550000Y-32450000D01*
X120300000Y-34250000D02*
X120300000Y-32450000D01*
X120300000Y-35750000D02*
X119550000Y-35750000D01*
X120300000Y-39250000D02*
X120300000Y-35750000D01*
X120300000Y-40750000D02*
X119550000Y-40750000D01*
X120300000Y-42550000D02*
X120300000Y-40750000D01*
X121800000Y-32450000D02*
X121800000Y-33200000D01*
X121800000Y-33200000D02*
X124750000Y-33200000D01*
X121800000Y-41800000D02*
X124750000Y-41800000D01*
X121800000Y-42550000D02*
X121800000Y-41800000D01*
X124750000Y-33200000D02*
X124750000Y-37500000D01*
X124750000Y-41800000D02*
X124750000Y-37500000D01*
X125510000Y-32440000D02*
X119540000Y-32440000D01*
X125510000Y-42560000D02*
X125510000Y-32440000D01*
%TO.C,J12*%
X120990000Y-73530000D02*
X120990000Y-83650000D01*
X120990000Y-83650000D02*
X126960000Y-83650000D01*
X121750000Y-74290000D02*
X121750000Y-78590000D01*
X121750000Y-82890000D02*
X121750000Y-78590000D01*
X124700000Y-73540000D02*
X124700000Y-74290000D01*
X124700000Y-74290000D02*
X121750000Y-74290000D01*
X124700000Y-82890000D02*
X121750000Y-82890000D01*
X124700000Y-83640000D02*
X124700000Y-82890000D01*
X126200000Y-73540000D02*
X126200000Y-75340000D01*
X126200000Y-75340000D02*
X126950000Y-75340000D01*
X126200000Y-76840000D02*
X126200000Y-80340000D01*
X126200000Y-80340000D02*
X126950000Y-80340000D01*
X126200000Y-81840000D02*
X126200000Y-83640000D01*
X126200000Y-83640000D02*
X126950000Y-83640000D01*
X126950000Y-73540000D02*
X126200000Y-73540000D01*
X126950000Y-75340000D02*
X126950000Y-73540000D01*
X126950000Y-76840000D02*
X126200000Y-76840000D01*
X126950000Y-80340000D02*
X126950000Y-76840000D01*
X126950000Y-81840000D02*
X126200000Y-81840000D01*
X126950000Y-83640000D02*
X126950000Y-81840000D01*
X126960000Y-73530000D02*
X120990000Y-73530000D01*
X126960000Y-83650000D02*
X126960000Y-73530000D01*
X127250000Y-73240000D02*
X126000000Y-73240000D01*
X127250000Y-74490000D02*
X127250000Y-73240000D01*
%TO.C,J17*%
X143990000Y-56390000D02*
X143990000Y-69010000D01*
X143990000Y-69010000D02*
X149960000Y-69010000D01*
X144750000Y-57150000D02*
X144750000Y-62700000D01*
X144750000Y-68250000D02*
X144750000Y-62700000D01*
X147700000Y-56400000D02*
X147700000Y-57150000D01*
X147700000Y-57150000D02*
X144750000Y-57150000D01*
X147700000Y-68250000D02*
X144750000Y-68250000D01*
X147700000Y-69000000D02*
X147700000Y-68250000D01*
X149200000Y-56400000D02*
X149200000Y-58200000D01*
X149200000Y-58200000D02*
X149950000Y-58200000D01*
X149200000Y-59700000D02*
X149200000Y-65700000D01*
X149200000Y-65700000D02*
X149950000Y-65700000D01*
X149200000Y-67200000D02*
X149200000Y-69000000D01*
X149200000Y-69000000D02*
X149950000Y-69000000D01*
X149950000Y-56400000D02*
X149200000Y-56400000D01*
X149950000Y-58200000D02*
X149950000Y-56400000D01*
X149950000Y-59700000D02*
X149200000Y-59700000D01*
X149950000Y-65700000D02*
X149950000Y-59700000D01*
X149950000Y-67200000D02*
X149200000Y-67200000D01*
X149950000Y-69000000D02*
X149950000Y-67200000D01*
X149960000Y-56390000D02*
X143990000Y-56390000D01*
X149960000Y-69010000D02*
X149960000Y-56390000D01*
X150250000Y-56100000D02*
X149000000Y-56100000D01*
X150250000Y-57350000D02*
X150250000Y-56100000D01*
%TO.C,J7*%
X162250000Y-41600000D02*
X162250000Y-42850000D01*
X162250000Y-42850000D02*
X163500000Y-42850000D01*
X162540000Y-32440000D02*
X162540000Y-42560000D01*
X162540000Y-42560000D02*
X168510000Y-42560000D01*
X162550000Y-32450000D02*
X162550000Y-34250000D01*
X162550000Y-34250000D02*
X163300000Y-34250000D01*
X162550000Y-35750000D02*
X162550000Y-39250000D01*
X162550000Y-39250000D02*
X163300000Y-39250000D01*
X162550000Y-40750000D02*
X162550000Y-42550000D01*
X162550000Y-42550000D02*
X163300000Y-42550000D01*
X163300000Y-32450000D02*
X162550000Y-32450000D01*
X163300000Y-34250000D02*
X163300000Y-32450000D01*
X163300000Y-35750000D02*
X162550000Y-35750000D01*
X163300000Y-39250000D02*
X163300000Y-35750000D01*
X163300000Y-40750000D02*
X162550000Y-40750000D01*
X163300000Y-42550000D02*
X163300000Y-40750000D01*
X164800000Y-32450000D02*
X164800000Y-33200000D01*
X164800000Y-33200000D02*
X167750000Y-33200000D01*
X164800000Y-41800000D02*
X167750000Y-41800000D01*
X164800000Y-42550000D02*
X164800000Y-41800000D01*
X167750000Y-33200000D02*
X167750000Y-37500000D01*
X167750000Y-41800000D02*
X167750000Y-37500000D01*
X168510000Y-32440000D02*
X162540000Y-32440000D01*
X168510000Y-42560000D02*
X168510000Y-32440000D01*
%TO.C,J9*%
X136550000Y-82690000D02*
X136550000Y-83940000D01*
X136550000Y-83940000D02*
X137800000Y-83940000D01*
X136840000Y-76030000D02*
X136840000Y-83650000D01*
X136840000Y-83650000D02*
X142810000Y-83650000D01*
X136850000Y-76040000D02*
X136850000Y-77840000D01*
X136850000Y-77840000D02*
X137600000Y-77840000D01*
X136850000Y-79340000D02*
X136850000Y-80340000D01*
X136850000Y-80340000D02*
X137600000Y-80340000D01*
X136850000Y-81840000D02*
X136850000Y-83640000D01*
X136850000Y-83640000D02*
X137600000Y-83640000D01*
X137600000Y-76040000D02*
X136850000Y-76040000D01*
X137600000Y-77840000D02*
X137600000Y-76040000D01*
X137600000Y-79340000D02*
X136850000Y-79340000D01*
X137600000Y-80340000D02*
X137600000Y-79340000D01*
X137600000Y-81840000D02*
X136850000Y-81840000D01*
X137600000Y-83640000D02*
X137600000Y-81840000D01*
X139100000Y-76040000D02*
X139100000Y-76790000D01*
X139100000Y-76790000D02*
X142050000Y-76790000D01*
X139100000Y-82890000D02*
X142050000Y-82890000D01*
X139100000Y-83640000D02*
X139100000Y-82890000D01*
X142050000Y-76790000D02*
X142050000Y-79840000D01*
X142050000Y-82890000D02*
X142050000Y-79840000D01*
X142810000Y-76030000D02*
X136840000Y-76030000D01*
X142810000Y-83650000D02*
X142810000Y-76030000D01*
%TO.C,J13*%
X128790000Y-73530000D02*
X128790000Y-83650000D01*
X128790000Y-83650000D02*
X134760000Y-83650000D01*
X129550000Y-74290000D02*
X129550000Y-78590000D01*
X129550000Y-82890000D02*
X129550000Y-78590000D01*
X132500000Y-73540000D02*
X132500000Y-74290000D01*
X132500000Y-74290000D02*
X129550000Y-74290000D01*
X132500000Y-82890000D02*
X129550000Y-82890000D01*
X132500000Y-83640000D02*
X132500000Y-82890000D01*
X134000000Y-73540000D02*
X134000000Y-75340000D01*
X134000000Y-75340000D02*
X134750000Y-75340000D01*
X134000000Y-76840000D02*
X134000000Y-80340000D01*
X134000000Y-80340000D02*
X134750000Y-80340000D01*
X134000000Y-81840000D02*
X134000000Y-83640000D01*
X134000000Y-83640000D02*
X134750000Y-83640000D01*
X134750000Y-73540000D02*
X134000000Y-73540000D01*
X134750000Y-75340000D02*
X134750000Y-73540000D01*
X134750000Y-76840000D02*
X134000000Y-76840000D01*
X134750000Y-80340000D02*
X134750000Y-76840000D01*
X134750000Y-81840000D02*
X134000000Y-81840000D01*
X134750000Y-83640000D02*
X134750000Y-81840000D01*
X134760000Y-73530000D02*
X128790000Y-73530000D01*
X134760000Y-83650000D02*
X134760000Y-73530000D01*
X135050000Y-73240000D02*
X133800000Y-73240000D01*
X135050000Y-74490000D02*
X135050000Y-73240000D01*
%TO.C,C1*%
X109490113Y-39275000D02*
X109990113Y-39275000D01*
X109740113Y-39025000D02*
X109740113Y-39525000D01*
X112294888Y-38170000D02*
X112294888Y-39710000D01*
X112294888Y-41790000D02*
X112294888Y-43330000D01*
X112334888Y-38170000D02*
X112334888Y-39710000D01*
X112334888Y-41790000D02*
X112334888Y-43330000D01*
X112374888Y-38171000D02*
X112374888Y-39710000D01*
X112374888Y-41790000D02*
X112374888Y-43329000D01*
X112414888Y-38172000D02*
X112414888Y-39710000D01*
X112414888Y-41790000D02*
X112414888Y-43328000D01*
X112454888Y-38174000D02*
X112454888Y-39710000D01*
X112454888Y-41790000D02*
X112454888Y-43326000D01*
X112494888Y-38177000D02*
X112494888Y-39710000D01*
X112494888Y-41790000D02*
X112494888Y-43323000D01*
X112534888Y-38181000D02*
X112534888Y-39710000D01*
X112534888Y-41790000D02*
X112534888Y-43319000D01*
X112574888Y-38185000D02*
X112574888Y-39710000D01*
X112574888Y-41790000D02*
X112574888Y-43315000D01*
X112614888Y-38189000D02*
X112614888Y-39710000D01*
X112614888Y-41790000D02*
X112614888Y-43311000D01*
X112654888Y-38194000D02*
X112654888Y-39710000D01*
X112654888Y-41790000D02*
X112654888Y-43306000D01*
X112694888Y-38200000D02*
X112694888Y-39710000D01*
X112694888Y-41790000D02*
X112694888Y-43300000D01*
X112734888Y-38207000D02*
X112734888Y-39710000D01*
X112734888Y-41790000D02*
X112734888Y-43293000D01*
X112774888Y-38214000D02*
X112774888Y-39710000D01*
X112774888Y-41790000D02*
X112774888Y-43286000D01*
X112814888Y-38222000D02*
X112814888Y-39710000D01*
X112814888Y-41790000D02*
X112814888Y-43278000D01*
X112854888Y-38230000D02*
X112854888Y-39710000D01*
X112854888Y-41790000D02*
X112854888Y-43270000D01*
X112894888Y-38239000D02*
X112894888Y-39710000D01*
X112894888Y-41790000D02*
X112894888Y-43261000D01*
X112934888Y-38249000D02*
X112934888Y-39710000D01*
X112934888Y-41790000D02*
X112934888Y-43251000D01*
X112974888Y-38259000D02*
X112974888Y-39710000D01*
X112974888Y-41790000D02*
X112974888Y-43241000D01*
X113015888Y-38270000D02*
X113015888Y-39710000D01*
X113015888Y-41790000D02*
X113015888Y-43230000D01*
X113055888Y-38282000D02*
X113055888Y-39710000D01*
X113055888Y-41790000D02*
X113055888Y-43218000D01*
X113095888Y-38295000D02*
X113095888Y-39710000D01*
X113095888Y-41790000D02*
X113095888Y-43205000D01*
X113135888Y-38308000D02*
X113135888Y-39710000D01*
X113135888Y-41790000D02*
X113135888Y-43192000D01*
X113175888Y-38322000D02*
X113175888Y-39710000D01*
X113175888Y-41790000D02*
X113175888Y-43178000D01*
X113215888Y-38336000D02*
X113215888Y-39710000D01*
X113215888Y-41790000D02*
X113215888Y-43164000D01*
X113255888Y-38352000D02*
X113255888Y-39710000D01*
X113255888Y-41790000D02*
X113255888Y-43148000D01*
X113295888Y-38368000D02*
X113295888Y-39710000D01*
X113295888Y-41790000D02*
X113295888Y-43132000D01*
X113335888Y-38385000D02*
X113335888Y-39710000D01*
X113335888Y-41790000D02*
X113335888Y-43115000D01*
X113375888Y-38402000D02*
X113375888Y-39710000D01*
X113375888Y-41790000D02*
X113375888Y-43098000D01*
X113415888Y-38421000D02*
X113415888Y-39710000D01*
X113415888Y-41790000D02*
X113415888Y-43079000D01*
X113455888Y-38440000D02*
X113455888Y-39710000D01*
X113455888Y-41790000D02*
X113455888Y-43060000D01*
X113495888Y-38460000D02*
X113495888Y-39710000D01*
X113495888Y-41790000D02*
X113495888Y-43040000D01*
X113535888Y-38482000D02*
X113535888Y-39710000D01*
X113535888Y-41790000D02*
X113535888Y-43018000D01*
X113575888Y-38503000D02*
X113575888Y-39710000D01*
X113575888Y-41790000D02*
X113575888Y-42997000D01*
X113615888Y-38526000D02*
X113615888Y-39710000D01*
X113615888Y-41790000D02*
X113615888Y-42974000D01*
X113655888Y-38550000D02*
X113655888Y-39710000D01*
X113655888Y-41790000D02*
X113655888Y-42950000D01*
X113695888Y-38575000D02*
X113695888Y-39710000D01*
X113695888Y-41790000D02*
X113695888Y-42925000D01*
X113735888Y-38601000D02*
X113735888Y-39710000D01*
X113735888Y-41790000D02*
X113735888Y-42899000D01*
X113775888Y-38628000D02*
X113775888Y-39710000D01*
X113775888Y-41790000D02*
X113775888Y-42872000D01*
X113815888Y-38655000D02*
X113815888Y-39710000D01*
X113815888Y-41790000D02*
X113815888Y-42845000D01*
X113855888Y-38685000D02*
X113855888Y-39710000D01*
X113855888Y-41790000D02*
X113855888Y-42815000D01*
X113895888Y-38715000D02*
X113895888Y-39710000D01*
X113895888Y-41790000D02*
X113895888Y-42785000D01*
X113935888Y-38746000D02*
X113935888Y-39710000D01*
X113935888Y-41790000D02*
X113935888Y-42754000D01*
X113975888Y-38779000D02*
X113975888Y-39710000D01*
X113975888Y-41790000D02*
X113975888Y-42721000D01*
X114015888Y-38813000D02*
X114015888Y-39710000D01*
X114015888Y-41790000D02*
X114015888Y-42687000D01*
X114055888Y-38849000D02*
X114055888Y-39710000D01*
X114055888Y-41790000D02*
X114055888Y-42651000D01*
X114095888Y-38886000D02*
X114095888Y-39710000D01*
X114095888Y-41790000D02*
X114095888Y-42614000D01*
X114135888Y-38924000D02*
X114135888Y-39710000D01*
X114135888Y-41790000D02*
X114135888Y-42576000D01*
X114175888Y-38965000D02*
X114175888Y-39710000D01*
X114175888Y-41790000D02*
X114175888Y-42535000D01*
X114215888Y-39007000D02*
X114215888Y-39710000D01*
X114215888Y-41790000D02*
X114215888Y-42493000D01*
X114255888Y-39051000D02*
X114255888Y-39710000D01*
X114255888Y-41790000D02*
X114255888Y-42449000D01*
X114295888Y-39097000D02*
X114295888Y-39710000D01*
X114295888Y-41790000D02*
X114295888Y-42403000D01*
X114335888Y-39145000D02*
X114335888Y-42355000D01*
X114375888Y-39196000D02*
X114375888Y-42304000D01*
X114415888Y-39250000D02*
X114415888Y-42250000D01*
X114455888Y-39307000D02*
X114455888Y-42193000D01*
X114495888Y-39367000D02*
X114495888Y-42133000D01*
X114535888Y-39431000D02*
X114535888Y-42069000D01*
X114575888Y-39499000D02*
X114575888Y-42001000D01*
X114615888Y-39572000D02*
X114615888Y-41928000D01*
X114655888Y-39652000D02*
X114655888Y-41848000D01*
X114695888Y-39739000D02*
X114695888Y-41761000D01*
X114735888Y-39835000D02*
X114735888Y-41665000D01*
X114775888Y-39945000D02*
X114775888Y-41555000D01*
X114815888Y-40073000D02*
X114815888Y-41427000D01*
X114855888Y-40232000D02*
X114855888Y-41268000D01*
X114895888Y-40466000D02*
X114895888Y-41034000D01*
X114914888Y-40750000D02*
G75*
G02*
X109674888Y-40750000I-2620000J0D01*
G01*
X109674888Y-40750000D02*
G75*
G02*
X114914888Y-40750000I2620000J0D01*
G01*
%TO.C,R2*%
X109880000Y-45320000D02*
X110210000Y-45320000D01*
X109880000Y-51860000D02*
X109880000Y-45320000D01*
X110210000Y-51860000D02*
X109880000Y-51860000D01*
X112290000Y-51860000D02*
X112620000Y-51860000D01*
X112620000Y-45320000D02*
X112290000Y-45320000D01*
X112620000Y-51860000D02*
X112620000Y-45320000D01*
%TD*%
M02*
