M48
; DRILL file {KiCad 9.0.0} date 2025-06-02T16:04:57+0530
; FORMAT={-:-/ absolute / metric / decimal}
; #@! TF.CreationDate,2025-06-02T16:04:57+05:30
; #@! TF.GenerationSoftware,Kicad,Pcbnew,9.0.0
; #@! TF.FileFunction,Plated,1,2,PTH
FMAT,2
METRIC
; #@! TA.AperFunction,Plated,PTH,ViaDrill
T1C0.300
; #@! TA.AperFunction,Plated,PTH,ComponentDrill
T2C0.800
; #@! TA.AperFunction,Plated,PTH,ComponentDrill
T3C0.950
; #@! TA.AperFunction,Plated,PTH,ComponentDrill
T4C1.000
; #@! TA.AperFunction,Plated,PTH,ComponentDrill
T5C1.100
%
G90
G05
T1
X109.75Y-47.0
X116.75Y-37.0
X142.0Y-60.0
X142.0Y-62.5
T2
X111.25Y-44.78
X111.25Y-52.4
X111.295Y-40.75
X113.295Y-40.75
X116.75Y-33.69
X116.75Y-41.31
X142.0Y-49.84
X142.0Y-51.84
T3
X106.2Y-35.0
X106.2Y-37.5
X106.2Y-40.0
X106.2Y-42.5
X108.2Y-76.09
X108.2Y-78.59
X108.2Y-81.09
X116.0Y-76.09
X116.0Y-78.59
X116.0Y-81.09
X122.0Y-35.0
X122.0Y-37.5
X122.0Y-40.0
X124.5Y-76.09
X124.5Y-78.59
X124.5Y-81.09
X129.25Y-35.0
X129.25Y-37.5
X129.25Y-40.0
X132.3Y-76.09
X132.3Y-78.59
X132.3Y-81.09
X136.3Y-35.0
X136.3Y-37.5
X136.3Y-40.0
X143.5Y-35.0
X143.5Y-37.5
X143.5Y-40.0
X147.5Y-58.95
X147.5Y-61.45
X147.5Y-63.95
X147.5Y-66.45
X150.475Y-35.0
X150.475Y-37.5
X150.475Y-40.0
X157.75Y-35.0
X157.75Y-37.5
X157.75Y-40.0
X165.0Y-35.0
X165.0Y-37.5
X165.0Y-40.0
X172.5Y-40.0
X172.5Y-42.5
X172.5Y-45.0
T4
X98.5Y-37.8
X98.5Y-40.34
X98.5Y-42.88
X98.5Y-45.42
X98.5Y-47.96
X98.5Y-50.5
X103.63Y-55.09
X103.63Y-70.33
X106.17Y-55.09
X106.17Y-70.33
X108.71Y-55.09
X108.71Y-70.33
X111.25Y-55.09
X111.25Y-70.33
X113.79Y-55.09
X113.79Y-70.33
X116.33Y-55.09
X116.33Y-70.33
X118.87Y-55.09
X118.87Y-70.33
X121.41Y-55.09
X121.41Y-70.33
X123.95Y-55.09
X123.95Y-70.33
X126.49Y-55.09
X126.49Y-70.33
X129.03Y-55.09
X129.03Y-70.33
X131.57Y-55.09
X131.57Y-70.33
X134.11Y-55.09
X134.11Y-70.33
X136.65Y-55.09
X136.65Y-70.33
X139.19Y-55.09
X139.19Y-70.33
X139.3Y-78.59
X139.3Y-81.09
X153.5Y-58.88
X153.5Y-61.42
X153.5Y-63.96
X153.5Y-66.5
T5
X170.25Y-51.25
X170.25Y-57.75
X170.25Y-61.0
X170.25Y-67.5
X170.25Y-70.75
X170.25Y-77.25
X174.75Y-51.25
X174.75Y-57.75
X174.75Y-61.0
X174.75Y-67.5
X174.75Y-70.75
X174.75Y-77.25
M30
